<svg xmlns="http://www.w3.org/2000/svg" viewBox="0 0 966 510"><defs><style>.cls-1,.cls-2,.cls-3,.cls-9{fill:none;}.cls-1,.cls-2,.cls-3{stroke:#000;stroke-width:2.7px;}.cls-1,.cls-2{stroke-linecap:round;}.cls-1{stroke-linejoin:round;}.cls-2,.cls-3,.cls-9{stroke-miterlimit:10;}.cls-4{font-size:36px;font-family:AvenirNext-Medium, Avenir Next;}.cls-10,.cls-4{fill:#3c29e6;}.cls-5{letter-spacing:-0.01em;}.cls-6{letter-spacing:-0.01em;}.cls-7{letter-spacing:-0.01em;}.cls-8{letter-spacing:-0.02em;}.cls-9{stroke:#3c29e6;stroke-width:4px;}</style></defs><title>artistic_style</title><g id="图层_2" data-name="图层 2"><g id="eyebrow"><path class="cls-1" d="M183.26,208.82s43.29-19.2,65.16-7.56"/><path class="cls-1" d="M133.49,208.82s-44.25-19.58-65.86-7.18"/></g><path id="nose" class="cls-2" d="M147.37,267.38s8.58-3.19,13.06-2.67a12.44,12.44,0,0,1,9.55,6,12,12,0,0,1,.39,9.49c-1.42,4-4.41,7.73-8.57,9a14.89,14.89,0,0,1-11.18-1c-3.51-1.89-8.39-8.32-8.39-8.32"/><g id="mouth"><path class="cls-2" d="M129.49,319.82s8.09,1.88,12.24,1.72c10-.37,20-3.3,29.85-1.94,4.18.59,14.09.18,14.09.18"/><line class="cls-2" x1="154.15" y1="326.93" x2="159.41" y2="326.51"/></g><g id="eye"><path class="cls-3" d="M211.38,231.89a1.48,1.48,0,0,1,.85-.52c.91-.32,1.75.59,1.88,1.43a1.64,1.64,0,0,1-.19,1.11,1.81,1.81,0,0,1-2.28.39,1.39,1.39,0,0,1-.65-.91A1.49,1.49,0,0,1,211.38,231.89Z"/><path class="cls-3" d="M210.21,230.92a3.9,3.9,0,0,1,1.63-1.11c1.82-.58,3.51,1.17,3.77,2.86a3.17,3.17,0,0,1-.39,2.21,3.67,3.67,0,0,1-4.62.72,2.71,2.71,0,0,1-1.3-1.76A3.5,3.5,0,0,1,210.21,230.92Z"/><path class="cls-3" d="M209.17,229.94a5.39,5.39,0,0,1,2.41-1.56c2.66-.84,5.07,1.76,5.52,4.23a4.34,4.34,0,0,1-.58,3.25c-1.43,2-4.68,2.27-6.7,1a4.09,4.09,0,0,1-1.88-2.54A5,5,0,0,1,209.17,229.94Z"/><path class="cls-3" d="M207.29,228.32a8.72,8.72,0,0,1,3.57-2.34c4-1.24,7.48,2.6,8.13,6.24a6.6,6.6,0,0,1-.91,4.81c-2.08,3-7,3.38-9.88,1.56a6.08,6.08,0,0,1-2.8-3.77A7.05,7.05,0,0,1,207.29,228.32Z"/><path class="cls-3" d="M104.61,230.85a1.46,1.46,0,0,1,.84-.52c.91-.32,1.76.59,1.89,1.43a1.64,1.64,0,0,1-.2,1.11,1.79,1.79,0,0,1-2.27.39,1.32,1.32,0,0,1-.65-.91A1.47,1.47,0,0,1,104.61,230.85Z"/><path class="cls-3" d="M103.44,229.88a3.87,3.87,0,0,1,1.62-1.11c1.82-.58,3.51,1.17,3.77,2.86a3.17,3.17,0,0,1-.39,2.21,3.65,3.65,0,0,1-4.61.72,2.71,2.71,0,0,1-1.3-1.76A3.44,3.44,0,0,1,103.44,229.88Z"/><path class="cls-3" d="M102.4,228.9a5.36,5.36,0,0,1,2.4-1.56c2.67-.84,5.07,1.76,5.52,4.23a4.34,4.34,0,0,1-.58,3.25c-1.43,2-4.68,2.27-6.69,1a4.14,4.14,0,0,1-1.89-2.54A5,5,0,0,1,102.4,228.9Z"/><path class="cls-3" d="M100.51,227.28a8.75,8.75,0,0,1,3.58-2.34c4-1.24,7.47,2.6,8.12,6.24a6.6,6.6,0,0,1-.91,4.81c-2.08,3-7,3.38-9.88,1.56a6.06,6.06,0,0,1-2.79-3.77A7,7,0,0,1,100.51,227.28Z"/><path class="cls-1" d="M232.7,229s-17.87-27-40-1"/><path class="cls-1" d="M84.72,227.67s18.33-27.62,40.81-.07"/></g><path class="cls-3" d="M157.85,378.18s6.22.65,16.23-1.95c20.5-5.32,34.46-20.79,48.52-33.14a77,77,0,0,0,23.6-36.4c3.06-10.39,8-22.74,12.23-51.34,2-13.28,4.76-28.38,7.17-42.89"/><path class="cls-3" d="M157.94,378.18a39.7,39.7,0,0,1-16-2.6c-21-8.09-34.44-20.79-48.42-33.14a78.47,78.47,0,0,1-23.45-37c-3-10.4-7.9-22.1-12.15-50.7-2.11-14.17-3.17-21-5.66-36.39"/><g id="ear"><path class="cls-3" d="M263.37,226.41s20.38-23.74,22.44-22.5,13.86,14.94,12,23.14,0,11.53-3.83,17.45-18.48,22.36-22.71,32.43-19.73,9.47-19.73,9.47"/><path class="cls-3" d="M258.59,260.54s2.67-3.72,6.6-8.43c6.85-8.24,17.52-19.53,24.45-19.54"/><path class="cls-3" d="M264.88,252.23s17.51,16.16-10.26,24.62"/></g><g id="ear-2" data-name="ear"><path class="cls-3" d="M52.84,226.41s-20.37-23.74-22.44-22.5-13.85,14.94-12,23.14,0,11.53,3.84,17.45S40.72,266.86,45,276.93s19.74,9.47,19.74,9.47"/><path class="cls-3" d="M57.63,260.54S55,256.82,51,252.11c-6.85-8.24-17.52-19.53-24.45-19.54"/><path class="cls-3" d="M51.34,252.23S33.82,268.39,61.6,276.85"/></g><g id="hair"><path id="hair-2" data-name="hair" class="cls-3" d="M28.92,206.15S6.62,156.3,46.33,101.3c0,0-8.95-5-26.86,12.93,0,0,14.92-28.85,50.73-27.85,0,0-17.9-10.95-42.77,7,0,0,84.05-95.45,183.52-36.76"/><path id="hair-3" data-name="hair" class="cls-3" d="M211,56.58s8.52-5.9-3.28-18.36c0,0,21.71-.17,29.35,35.81,0,0,32.12-5.56,34.11,3.39,0,0-16.91-4-26.86,8,0,0,63.17-3.83,52.29,85.63,0,0,3.06-9.33-11.86-21.27,0,0,9.19,33.45,3.28,57.72"/><path id="hair-4" data-name="hair" class="cls-3" d="M53.19,220.58s6.14-61.65,21.11-77.89c0,0,.88,25.27,22.17,39.85,0,0,13.12-66.24,64.93-66.24,0,0-10.49,40-24.92,54.43,0,0,47.88-2,51.59-48,0,0,2.19,34.28,26.27,46.26,0,0-9.67-11.3,5.82-31.89,0,0,13.39,67.13,48.15,77.62"/></g><text class="cls-4" transform="translate(52.4 447.97)">Abst<tspan class="cls-5" x="76.32" y="0">r</tspan><tspan x="88.88" y="0">act </tspan><tspan class="cls-6" x="147.02" y="0">S</tspan><tspan x="167.29" y="0">tyle</tspan></text></g><g id="图层_3" data-name="图层 3"><text class="cls-4" transform="translate(694.18 449.47)"><tspan class="cls-7">R</tspan><tspan class="cls-6" x="21.67" y="0">e</tspan><tspan x="42.08" y="0">alistic </tspan><tspan class="cls-6" x="144.21" y="0">S</tspan><tspan x="164.48" y="0">tyle</tspan></text><g id="mouth-2" data-name="mouth"><g id="mouse"><path class="cls-2" d="M763.69,321.24s16,2,16.69,2.14c13.58,3.37,27.7,2.19,41.61.51l19.55-3.3"/><path class="cls-2" d="M777.42,330.4s3.27,5.89,24.86,5.89c20.94,0,22.9-5.89,22.9-5.89"/></g><path class="cls-1" d="M767.61,321.24s14.94-3.77,22.24-2.62c9.86,1.55,22.95.75,32.71-1.31,3.2-.65,12.71,3.86,12.71,3.86"/></g><g id="nose-2" data-name="nose"><path class="cls-2" d="M797.21,292.7c6.66,5.19,28.49-3.65,17.85-17.59-8-10.28-9.29-29.22-9.29-29.22"/><path class="cls-2" d="M790.71,276c-6.93,11.39,2.43,15.09,2.43,15.09"/></g><g id="eye2"><path class="cls-1" d="M835.69,215.6s3.08-1,4.58-1.38c10.86-2.09,22.37,3.34,30.22,9.62,1.77,1.37,4.91,4.58,4.91,4.58"/><path class="cls-1" d="M825.55,230.32s.79-1.31,1.24-1.9a35.77,35.77,0,0,1,18.84-12.89c1.71-.52,5.24-1.11,5.24-1.11"/><path class="cls-1" d="M826.79,232.67s4.78-7.33,8.38-9.94a19.21,19.21,0,0,1,7.78-3.54c5-1,10,.27,14.66,1.77A57,57,0,0,1,867,225c2.88,1.57,5.82,3.4,7.79,5.88a2.76,2.76,0,0,0,.26.4"/><path class="cls-1" d="M831.83,238s3.08,1.05,4.58,1.44a60.82,60.82,0,0,0,17.53,1.77,63.23,63.23,0,0,0,12.63-1.77c1-.26,3-.85,3-.85"/><path class="cls-3" d="M851,224c-2-.13-3.8,1.31-4.65,3.6-1.7,4.9,1.57,10.27,5.76,9,2.75-.85,4.32-4.32,3.6-7.78C855.06,226.06,853.16,224,851,224Z"/><path class="cls-3" d="M851.13,219.26c-4.91-.13-9.55,2.22-11.64,6.08-4.39,8.25,3.92,17.34,14.39,15.12,6.93-1.44,10.73-7.33,8.89-13.15C861.4,222.79,856.69,219.39,851.13,219.26Z"/><path class="cls-3" d="M852.18,225.8a2,2,0,0,0-1.9,1.51c-.72,2,.65,4.25,2.35,3.66a2.58,2.58,0,0,0,1.44-3.21A2.22,2.22,0,0,0,852.18,225.8Z"/><g id="eye2-2" data-name="eye2"><path class="cls-1" d="M729.51,228.55s3.14-3.21,4.91-4.58c7.85-6.35,19.43-11.71,30.22-9.62,1.57.33,4.58,1.38,4.58,1.38"/><path class="cls-1" d="M754.11,214.48s3.53.66,5.23,1.12a35.68,35.68,0,0,1,18.85,12.88c.45.59,1.24,1.9,1.24,1.9"/><path class="cls-1" d="M729.91,231.36s.19-.26.26-.39c2-2.49,4.9-4.25,7.78-5.89a52,52,0,0,1,9.36-4.05c4.64-1.51,9.68-2.82,14.65-1.77a20.28,20.28,0,0,1,7.79,3.53c3.59,2.62,8.37,10,8.37,10"/><path class="cls-1" d="M735.34,238.62s2,.59,3,.85A58.61,58.61,0,0,0,751,241.24a63.22,63.22,0,0,0,17.53-1.77c1.57-.39,4.58-1.43,4.58-1.43"/><path class="cls-3" d="M749.27,228.75c-.72,3.46.78,6.93,3.6,7.78,4.12,1.31,7.46-4.06,5.75-9-.85-2.29-2.68-3.73-4.64-3.6C751.82,224.1,749.86,226.13,749.27,228.75Z"/><path class="cls-3" d="M742.14,227.37c-1.83,5.89,2,11.71,8.9,13.15,10.46,2.29,18.71-6.87,14.39-15.11-2.09-3.86-6.67-6.22-11.65-6.08C748.29,219.46,743.51,222.86,742.14,227.37Z"/><path class="cls-3" d="M750.77,227.83a2.66,2.66,0,0,0,1.44,3.21c1.7.58,3.08-1.64,2.36-3.67a2.14,2.14,0,0,0-1.9-1.5A2.36,2.36,0,0,0,750.77,227.83Z"/></g></g><g id="eyebrow-2" data-name="eyebrow"><path class="cls-1" d="M817.9,210.56c9.68-16,31.92-17.8,48.47-13.74,6.28,1.57,12.37,4.58,16.69,9.36"/><path class="cls-1" d="M820,210.17c19.43-10,43.18-15.31,62.74-3.34"/><path class="cls-1" d="M783.94,211.61c-3.14-5.83-8.63-10.08-14.78-12.57-11.06-4.38-25.58-4.38-36.83-.71a31.6,31.6,0,0,0-13,7.85"/><path class="cls-1" d="M781.46,210.82c-19.43-10.73-44.23-14.26-63.85-2.29"/></g><path class="cls-3" d="M802.56,381.43s6.27.65,16.34-2c20.64-5.36,34.69-20.93,48.84-33.36a77.49,77.49,0,0,0,23.76-36.64c3.08-10.46,8-22.89,12.31-51.68,2-13.36,4.8-28.57,7.22-43.18"/><path class="cls-3" d="M802.66,381.43a40.05,40.05,0,0,1-16.08-2.62c-21.19-8.15-34.67-20.93-48.74-33.36a78.94,78.94,0,0,1-23.61-37.29c-3.06-10.47-8-22.25-12.23-51-2.13-14.27-3.19-21.14-5.7-36.64"/><g id="ear-3" data-name="ear"><path class="cls-3" d="M908.79,228.64S929.3,204.75,931.37,206s14,15,12.07,23.29,0,11.61-3.86,17.57-18.59,22.5-22.85,32.65S896.86,289,896.86,289"/><path class="cls-3" d="M904,263s2.69-3.74,6.65-8.49c6.89-8.28,17.63-19.66,24.61-19.67"/><path class="cls-3" d="M910.3,254.64S927.93,270.9,900,279.42"/></g><g id="ear-4" data-name="ear"><path class="cls-3" d="M696.86,228.64S676.35,204.75,674.27,206s-13.95,15-12.07,23.29,0,11.61,3.86,17.57,18.6,22.5,22.85,32.65S708.78,289,708.78,289"/><path class="cls-3" d="M701.67,263s-2.69-3.74-6.64-8.49c-6.9-8.28-17.64-19.66-24.62-19.67"/><path class="cls-3" d="M695.34,254.64s-17.63,16.26,10.33,24.78"/></g><g id="hair-5" data-name="hair"><path id="hair-6" data-name="hair" class="cls-3" d="M672.78,208.25S650.33,158.07,690.3,102.7c0,0-9-5-27,13,0,0,15-29,51.06-28,0,0-18-11-43.05,7,0,0,84.6-96.08,184.73-37"/><path id="hair-7" data-name="hair" class="cls-3" d="M856,57.69s8.58-5.94-3.3-18.49c0,0,21.85,4.43,29.54,33.76,0,0,32.34-3.3,34.34,5.71,0,0-17-4-27,8,0,0,63.59-3.85,52.64,86.2,0,0,3.08-9.39-11.94-21.41,0,0,9.24,33.67,3.3,58.1"/><path id="hair-8" data-name="hair" class="cls-3" d="M697.21,222.77s6.18-62.05,21.25-78.4c0,0,.89,25.44,22.32,40.11,0,0,13.2-66.68,65.36-66.68,0,0-10.56,40.27-25.09,54.8,0,0,48.2-2,51.93-48.38,0,0,2.21,34.51,26.45,46.58,0,0-9.74-11.38,5.86-32.11,0,0,13.47,67.58,48.46,78.14"/></g></g><g id="图层_5" data-name="图层 5"><g id="eyebrow-3" data-name="eyebrow"><path class="cls-1" d="M502.74,201c9.66-15.93,31.85-17.76,48.36-13.71,6.27,1.57,12.34,4.57,16.65,9.34"/><path class="cls-1" d="M504.83,200.6c19.38-10,43.08-15.28,62.59-3.33"/><path class="cls-1" d="M457.11,201.38c-3.13-5.81-8.61-10-14.75-12.53-11-4.37-25.52-4.37-36.75-.72a31.69,31.69,0,0,0-13,7.83"/><path class="cls-1" d="M454.63,200.6c-19.38-10.71-44.12-14.23-63.7-2.29"/></g><g id="eye2-3" data-name="eye2"><path class="cls-2" d="M435.74,206.27a36.55,36.55,0,0,0-22.64-.59c-1.34.4-4.1,1.51-4.1,1.51"/><path class="cls-2" d="M453.64,233.55s.32-4.37-.82-6.14c-7.8-12.14-20.74-18.28-36.52-16.71-13.05,1.31-17.8,8.58-20.52,21.83-.54,2.63-.57,7,4.66,11.58,1.42,1.25,3.83,1.39,5.92,1.64,5.58.67,11.22.1,16.84.16s11,.27,16.58-.08,9.88-2.94,12.21-6.68a23.17,23.17,0,0,0,1.32-3"/><path class="cls-2" d="M452.85,230.29c-7.18-13.71-20.23-19.59-39.41-14.72a19.06,19.06,0,0,0-11,7.25,19.45,19.45,0,0,0-3.75,7.49,11.31,11.31,0,0,0,1,9.49c3.35,5.31,7.46,6.2,14.06,6.28"/><path class="cls-3" d="M432.82,227.77c-.08-.27-.28-.78-.28-.78l-.63-.1a6.52,6.52,0,0,1-4.49-3.47c-.09-.16-.23-.5-.23-.5l-.54,0a6.52,6.52,0,0,0-6.38,8.74c.08.24.29.71.29.71a9.8,9.8,0,0,1,1.51-.16,5.38,5.38,0,0,1,4.65,3.06c.12.25.3.78.3.78s.72-.1,1.08-.19A6.42,6.42,0,0,0,432.82,227.77Z"/><path class="cls-1" d="M437.33,228.08a12.14,12.14,0,0,0-11.2-8.88A11.9,11.9,0,0,0,415,225.94a12.12,12.12,0,0,0,2.32,13.58c.21.23.67.65.67.65a9,9,0,0,1-.39-.87,4.61,4.61,0,0,1,.19-3.35,4.48,4.48,0,0,1,4.2-2.53,4.56,4.56,0,0,1,4.2,3.33,4.38,4.38,0,0,1-3.22,5.5,9.55,9.55,0,0,1-1.25.14l.63.21a11.94,11.94,0,0,0,6.43.1A11.65,11.65,0,0,0,437.33,228.08Z"/><path class="cls-2" d="M522.49,206.27a36.55,36.55,0,0,1,22.64-.59c1.35.4,4.1,1.51,4.1,1.51"/><path class="cls-2" d="M504.59,233.55s-.32-4.37.82-6.14c7.8-12.14,20.74-18.28,36.52-16.71,13.05,1.31,17.8,8.58,20.52,21.83.54,2.63.57,7-4.66,11.58-1.42,1.25-3.83,1.39-5.92,1.64-5.58.67-11.22.1-16.84.16s-11,.27-16.58-.08-9.88-2.94-12.21-6.68a23.17,23.17,0,0,1-1.32-3"/><path class="cls-2" d="M505.38,230.29c7.18-13.71,20.23-19.59,39.42-14.72a19.07,19.07,0,0,1,11,7.25,19.45,19.45,0,0,1,3.75,7.49,11.35,11.35,0,0,1-.95,9.49c-3.36,5.31-7.47,6.2-14.07,6.28"/><path class="cls-3" d="M525.41,227.77c.08-.27.28-.78.28-.78l.63-.1a6.5,6.5,0,0,0,4.49-3.47c.09-.16.23-.5.23-.5l.54,0a6.54,6.54,0,0,1,6.14,3.72,6.62,6.62,0,0,1,.24,5c-.08.24-.29.71-.29.71a9.8,9.8,0,0,0-1.51-.16,5.39,5.39,0,0,0-4.65,3.06c-.12.25-.3.78-.3.78s-.71-.1-1.08-.19A6.42,6.42,0,0,1,525.41,227.77Z"/><path class="cls-1" d="M520.9,228.08a12.14,12.14,0,0,1,11.2-8.88,11.9,11.9,0,0,1,11.15,6.74,12.13,12.13,0,0,1-2.31,13.58c-.22.23-.68.65-.68.65a9,9,0,0,0,.39-.87,4.61,4.61,0,0,0-.19-3.35,4.47,4.47,0,0,0-4.19-2.53,4.56,4.56,0,0,0-4.21,3.33,4.38,4.38,0,0,0,3.22,5.5,9.64,9.64,0,0,0,1.26.14l-.64.21a11.93,11.93,0,0,1-6.43.1A11.65,11.65,0,0,1,520.9,228.08Z"/></g><path id="nose-3" data-name="nose" class="cls-2" d="M468.8,267.26s9.71-3.85,14.63-2.62,9.32,5.49,9.31,10.7a15.84,15.84,0,0,1-1.5,6.24,15.32,15.32,0,0,1-3.42,5.15c-4.07,3.79-10.91,3.6-15.72,1.43-3.73-1.67-8.5-8.45-8.5-8.45"/><g id="mouth-3" data-name="mouth"><g id="mouse-2" data-name="mouse"><path class="cls-2" d="M451.37,320s1.49.36,2.24.52c15.49,3.36,31.59,2.18,47.45.5l5.71-.65"/><line class="cls-2" x1="472.06" y1="332.15" x2="486.82" y2="331.3"/></g><path class="cls-1" d="M451.37,320s3.57-2.69,10.86-1.54c9.83,1.54,26.32,1.25,36.06-.8,3.19-.66,9,2.61,9,2.61"/></g><path class="cls-3" d="M479.24,378.45s6.25.65,16.3-2c20.59-5.35,34.61-20.88,48.73-33.28A77.4,77.4,0,0,0,568,306.65c3.07-10.44,8-22.84,12.28-51.56,2-13.34,4.78-28.5,7.2-43.08"/><path class="cls-3" d="M479.34,378.45a39.93,39.93,0,0,1-16-2.61c-21.15-8.13-34.6-20.89-48.64-33.29a78.74,78.74,0,0,1-23.55-37.2c-3.05-10.45-7.93-22.19-12.21-50.91-2.11-14.24-3.17-21.09-5.68-36.56"/><g id="ear-5" data-name="ear"><path class="cls-3" d="M585.22,226s20.46-23.84,22.54-22.6,13.91,15,12,23.25,0,11.57-3.85,17.52-18.56,22.45-22.8,32.57-19.83,9.51-19.83,9.51"/><path class="cls-3" d="M580.42,260.29s2.68-3.72,6.63-8.46c6.88-8.27,17.59-19.62,24.56-19.63"/><path class="cls-3" d="M586.73,252s17.59,16.23-10.3,24.73"/></g><g id="ear-6" data-name="ear"><path class="cls-3" d="M373.78,226s-20.46-23.84-22.54-22.6-13.91,15-12,23.25,0,11.57,3.85,17.52,18.56,22.45,22.8,32.57,19.83,9.51,19.83,9.51"/><path class="cls-3" d="M378.58,260.29s-2.68-3.72-6.63-8.46c-6.88-8.27-17.59-19.62-24.56-19.63"/><path class="cls-3" d="M372.27,252s-17.59,16.23,10.3,24.73"/></g><g id="hair-9" data-name="hair"><path id="hair-10" data-name="hair" class="cls-3" d="M349.75,205.67s-22.39-50.06,17.49-105.31c0,0-9-5-27,13,0,0,15-29,50.94-28,0,0-18-11-42.95,7,0,0,84.41-95.86,184.31-36.92"/><path id="hair-11" data-name="hair" class="cls-3" d="M532.57,55.45s8.56-5.93-3.29-18.44c0,0,21.8,6.71,28.67,34.21,0,0,33.06-3.82,35.06,5.17,0,0-17-4-27,8,0,0,63.44-3.84,52.51,86,0,0,3.08-9.37-11.9-21.36,0,0,9.22,33.6,3.29,58"/><path id="hair-12" data-name="hair" class="cls-3" d="M374.13,220.16s6.17-61.91,21.2-78.22c0,0,.89,25.38,22.27,40,0,0,13.17-66.53,65.21-66.53,0,0-10.54,40.18-25,54.67,0,0,48.09-2,51.81-48.26,0,0,2.2,34.43,26.39,46.46,0,0-9.72-11.34,5.84-32,0,0,13.45,67.42,48.36,78"/></g><text class="cls-4" transform="translate(370.4 447.97)"><tspan class="cls-8">C</tspan><tspan x="24.84" y="0">a</tspan><tspan class="cls-7" x="44.35" y="0">r</tspan><tspan x="56.95" y="0">toon </tspan><tspan class="cls-6" x="142.67" y="0">S</tspan><tspan x="162.93" y="0">tyle</tspan></text><line class="cls-9" x1="6" y1="462.5" x2="69" y2="462.5"/><polygon class="cls-10" points="21 470.5 21 454.5 0 462.5 21 470.5"/><line class="cls-9" x1="960" y1="462.5" x2="897" y2="462.5"/><polygon class="cls-10" points="945 470.5 945 454.5 966 462.5 945 470.5"/></g></svg>