<svg xmlns="http://www.w3.org/2000/svg" viewBox="0 0 966 510"><defs><style>.cls-1,.cls-7{fill:none;stroke-miterlimit:10;}.cls-1{stroke:#000;stroke-width:2.7px;}.cls-2{font-size:36px;font-family:AvenirNext-Medium, Avenir Next;}.cls-2,.cls-8{fill:#3c29e6;}.cls-3{letter-spacing:-0.01em;}.cls-4{letter-spacing:-0.01em;}.cls-5{letter-spacing:-0.01em;}.cls-6{letter-spacing:-0.02em;}.cls-7{stroke:#3c29e6;stroke-width:4px;}</style></defs><title>artistic_style</title><g id="图层_2" data-name="图层 2"><path class="cls-1" d="M157.85,378.18s6.22.65,16.23-1.95c20.5-5.32,34.46-20.79,48.52-33.14a77,77,0,0,0,23.6-36.4c3.06-10.39,8-22.74,12.23-51.34,2-13.28,4.76-28.38,7.17-42.89"/><path class="cls-1" d="M157.94,378.18a39.7,39.7,0,0,1-16-2.6c-21-8.09-34.44-20.79-48.42-33.14a78.47,78.47,0,0,1-23.45-37c-3-10.4-7.9-22.1-12.15-50.7-2.11-14.17-3.17-21-5.66-36.39"/><g id="ear"><path class="cls-1" d="M263.37,226.41s20.38-23.74,22.44-22.5,13.86,14.94,12,23.14,0,11.53-3.83,17.45-18.48,22.36-22.71,32.43-19.73,9.47-19.73,9.47"/><path class="cls-1" d="M258.59,260.54s2.67-3.72,6.6-8.43c6.85-8.24,17.52-19.53,24.45-19.54"/><path class="cls-1" d="M264.88,252.23s17.51,16.16-10.26,24.62"/></g><g id="ear-2" data-name="ear"><path class="cls-1" d="M52.84,226.41s-20.37-23.74-22.44-22.5-13.85,14.94-12,23.14,0,11.53,3.84,17.45S40.72,266.86,45,276.93s19.74,9.47,19.74,9.47"/><path class="cls-1" d="M57.63,260.54S55,256.82,51,252.11c-6.85-8.24-17.52-19.53-24.45-19.54"/><path class="cls-1" d="M51.34,252.23S33.82,268.39,61.6,276.85"/></g><g id="hair"><path id="hair-2" data-name="hair" class="cls-1" d="M28.92,206.15S6.62,156.3,46.33,101.3c0,0-8.95-5-26.86,12.93,0,0,14.92-28.85,50.73-27.85,0,0-17.9-10.95-42.77,7,0,0,84.05-95.45,183.52-36.76"/><path id="hair-3" data-name="hair" class="cls-1" d="M211,56.58s8.52-5.9-3.28-18.36c0,0,21.71-.17,29.35,35.81,0,0,32.12-5.56,34.11,3.39,0,0-16.91-4-26.86,8,0,0,63.17-3.83,52.29,85.63,0,0,3.06-9.33-11.86-21.27,0,0,9.19,33.45,3.28,57.72"/><path id="hair-4" data-name="hair" class="cls-1" d="M53.19,220.58s6.14-61.65,21.11-77.89c0,0,.88,25.27,22.17,39.85,0,0,13.12-66.24,64.93-66.24,0,0-10.49,40-24.92,54.43,0,0,47.88-2,51.59-48,0,0,2.19,34.28,26.27,46.26,0,0-9.67-11.3,5.82-31.89,0,0,13.39,67.13,48.15,77.62"/></g><text class="cls-2" transform="translate(52.4 447.97)">Abst<tspan class="cls-3" x="76.32" y="0">r</tspan><tspan x="88.88" y="0">act </tspan><tspan class="cls-4" x="147.02" y="0">S</tspan><tspan x="167.29" y="0">tyle</tspan></text><g id="eyebrow"><path class="cls-1" d="M190.14,194.86s1.78.77,2.68,1c4.07.77,9.87-.38,13-1.78a68.7,68.7,0,0,1,10.58-3.69,17.53,17.53,0,0,1,7-.77,20.75,20.75,0,0,1,5.47,1.78c5,2.17,11.73,5.67,16.57,9.82,1.4,1.33,4,4.33,4,4.33"/><path class="cls-1" d="M190.14,194.86l5.54-8.6s2.36-3.56,3.76-5.16c5-5.48,13.13-7.51,20.45-6.18s13.83,5.8,18.67,11.41,11,19.3,11,19.3"/><path class="cls-1" d="M129.68,195.12s-11.79.89-15.74-.89a68.88,68.88,0,0,0-10.57-3.76,17.47,17.47,0,0,0-7-.83,21.44,21.44,0,0,0-5.54,1.72c-5,2.1-11.79,5.54-16.63,9.62-1.47,1.34-4.08,4.33-4.08,4.33"/><path class="cls-1" d="M129.68,195.12l-5.48-8.66s-2.36-3.57-3.76-5.23c-5-5.54-13.06-7.64-20.38-6.37s-13.89,5.67-18.8,11.21-11.15,19.18-11.15,19.18"/></g><path id="nose" class="cls-1" d="M149.37,284.44c-1.6.57-3.19,1.72-3.51,3.38a3,3,0,0,0,.89,2.67,2.15,2.15,0,0,0,1.72.51c.9-.19,1.47-1.08,2.36-1.4a2.76,2.76,0,0,1,2.23.25c1.66,1,2.29,3.06,4.08,3.83a6.54,6.54,0,0,0,2.67.57c2.17.06,3.38-.89,4.66-2.42a6.54,6.54,0,0,1,1.72-1.59,2.42,2.42,0,0,1,2.29-.13c1.15.57,1.72,2,3.18,1.34a2.92,2.92,0,0,0,1.34-3.06,4.62,4.62,0,0,0-1.4-2.1c-3-2.81-7.39-3.44-10.07-6.63a3.14,3.14,0,0,0-2.42-1.4,2.18,2.18,0,0,0-1.21.45c-1.27.82-2.1,2.29-3.37,3.18a50.52,50.52,0,0,1-5.16,2.55"/><path class="cls-1" d="M193.77,227.8a21.05,21.05,0,0,1,12.36-12.1c6.12-2.36,13.06-2,19.24.25,9.62,3.44,17.71,12.23,18.16,22.43a23.63,23.63,0,0,1-8,18.09c-9.24,8.22-24.4,9.49-35,3.12-3.18-1.91-6-4.65-7-8.22"/><path class="cls-1" d="M123.76,227.1a21,21,0,0,0-12.36-12.17c-6.12-2.35-13.06-2-19.24.26-9.62,3.44-17.72,12.23-18.16,22.36a23.48,23.48,0,0,0,8,18.09c9.23,8.22,24.4,9.5,35,3.12,3.25-2,6.18-4.9,7.14-8.66"/><path class="cls-1" d="M210.65,239.21a1.37,1.37,0,0,1,.83-.51c.89-.32,1.72.57,1.85,1.4a1.61,1.61,0,0,1-.19,1.08,1.75,1.75,0,0,1-2.23.38,1.33,1.33,0,0,1-.64-.89A1.44,1.44,0,0,1,210.65,239.21Z"/><path class="cls-1" d="M209.51,238.25a3.71,3.71,0,0,1,1.59-1.08c1.78-.58,3.44,1.14,3.69,2.8a3.13,3.13,0,0,1-.38,2.17,3.59,3.59,0,0,1-4.52.7,2.62,2.62,0,0,1-1.27-1.72A3.39,3.39,0,0,1,209.51,238.25Z"/><path class="cls-1" d="M208.49,237.29a5.13,5.13,0,0,1,2.35-1.52c2.62-.83,5,1.72,5.42,4.14a4.3,4.3,0,0,1-.57,3.18c-1.4,2-4.59,2.23-6.57,1a4,4,0,0,1-1.84-2.48A4.85,4.85,0,0,1,208.49,237.29Z"/><path class="cls-1" d="M206.64,235.7a8.61,8.61,0,0,1,3.5-2.29c3.89-1.21,7.33,2.55,8,6.11a6.5,6.5,0,0,1-.89,4.72c-2,2.93-6.82,3.31-9.69,1.53a6,6,0,0,1-2.74-3.7A6.94,6.94,0,0,1,206.64,235.7Z"/><path class="cls-1" d="M106.17,239.21a1.37,1.37,0,0,1,.83-.51c.89-.32,1.72.57,1.85,1.4a1.61,1.61,0,0,1-.19,1.08,1.75,1.75,0,0,1-2.23.38,1.3,1.3,0,0,1-.64-.89A1.44,1.44,0,0,1,106.17,239.21Z"/><path class="cls-1" d="M105,238.25a3.74,3.74,0,0,1,1.6-1.08c1.78-.58,3.44,1.14,3.69,2.8a3.13,3.13,0,0,1-.38,2.17,3.59,3.59,0,0,1-4.52.7,2.66,2.66,0,0,1-1.28-1.72A3.42,3.42,0,0,1,105,238.25Z"/><path class="cls-1" d="M104,237.29a5.13,5.13,0,0,1,2.35-1.52c2.61-.83,5,1.72,5.42,4.14a4.25,4.25,0,0,1-.58,3.18c-1.4,2-4.58,2.23-6.56,1a4,4,0,0,1-1.84-2.48A4.85,4.85,0,0,1,104,237.29Z"/><path class="cls-1" d="M102.16,235.7a8.47,8.47,0,0,1,3.5-2.29c3.89-1.21,7.33,2.55,8,6.11a6.45,6.45,0,0,1-.9,4.72c-2,2.93-6.81,3.31-9.68,1.53a6,6,0,0,1-2.74-3.7A6.94,6.94,0,0,1,102.16,235.7Z"/><path id="mouth" class="cls-1" d="M132.42,327.89s1.78.51,2.68.7c8,1.66,16.43.13,24.65-.83,7.58-.95,15.67-1.34,22.68,1.34,1.4.64,4.14,2,4.14,2"/></g><g id="图层_3" data-name="图层 3"><text class="cls-2" transform="translate(694.18 449.47)"><tspan class="cls-5">R</tspan><tspan class="cls-4" x="21.67" y="0">e</tspan><tspan x="42.08" y="0">alistic </tspan><tspan class="cls-4" x="144.21" y="0">S</tspan><tspan x="164.48" y="0">tyle</tspan></text><path class="cls-1" d="M802.56,381.43s6.27.65,16.34-2c20.64-5.36,34.69-20.93,48.84-33.36a77.49,77.49,0,0,0,23.76-36.64c3.08-10.46,8-22.89,12.31-51.68,2-13.36,4.8-28.57,7.22-43.18"/><path class="cls-1" d="M802.66,381.43a40.05,40.05,0,0,1-16.08-2.62c-21.19-8.15-34.67-20.93-48.74-33.36a78.94,78.94,0,0,1-23.61-37.29c-3.06-10.47-8-22.25-12.23-51-2.13-14.27-3.19-21.14-5.7-36.64"/><g id="ear-3" data-name="ear"><path class="cls-1" d="M908.79,228.64S929.3,204.75,931.37,206s14,15,12.07,23.29,0,11.61-3.86,17.57-18.59,22.5-22.85,32.65S896.86,289,896.86,289"/><path class="cls-1" d="M904,263s2.69-3.74,6.65-8.49c6.89-8.28,17.63-19.66,24.61-19.67"/><path class="cls-1" d="M910.3,254.64S927.93,270.9,900,279.42"/></g><g id="ear-4" data-name="ear"><path class="cls-1" d="M696.86,228.64S676.35,204.75,674.27,206s-13.95,15-12.07,23.29,0,11.61,3.86,17.57,18.6,22.5,22.85,32.65S708.78,289,708.78,289"/><path class="cls-1" d="M701.67,263s-2.69-3.74-6.64-8.49c-6.9-8.28-17.64-19.66-24.62-19.67"/><path class="cls-1" d="M695.34,254.64s-17.63,16.26,10.33,24.78"/></g><g id="hair-5" data-name="hair"><path id="hair-6" data-name="hair" class="cls-1" d="M672.78,208.25S650.33,158.07,690.3,102.7c0,0-9-5-27,13,0,0,15-29,51.06-28,0,0-18-11-43.05,7,0,0,84.6-96.08,184.73-37"/><path id="hair-7" data-name="hair" class="cls-1" d="M856,57.69s8.58-5.94-3.3-18.49c0,0,21.85,4.43,29.54,33.76,0,0,32.34-3.3,34.34,5.71,0,0-17-4-27,8,0,0,63.59-3.85,52.64,86.2,0,0,3.08-9.39-11.94-21.41,0,0,9.24,33.67,3.3,58.1"/><path id="hair-8" data-name="hair" class="cls-1" d="M697.21,222.77s6.18-62.05,21.25-78.4c0,0,.89,25.44,22.32,40.11,0,0,13.2-66.68,65.36-66.68,0,0-10.56,40.27-25.09,54.8,0,0,48.2-2,51.93-48.38,0,0,2.21,34.51,26.45,46.58,0,0-9.74-11.38,5.86-32.11,0,0,13.47,67.58,48.46,78.14"/></g><g id="brow"><path class="cls-1" d="M896.83,205.28a12.36,12.36,0,0,0-1.46-.95c-14-7.71-61.41-.84-65.55-.65-4.31.19-3.73-8.09-3.73-8.09s33.15-1.06,50.59-2.75,20.15,12.46,20.15,12.46"/><g id="brow-2"><path class="cls-1" d="M705.7,205.28a12.86,12.86,0,0,1,1.45-.95c14-7.71,61.42-.84,65.56-.65s3.72-8.09,3.72-8.09-33.15-1.06-50.59-2.75S705.7,205.3,705.7,205.3"/></g></g><path id="nose-2" data-name="nose" class="cls-1" d="M808.86,275.73a31.42,31.42,0,0,1,3.43,3,5.52,5.52,0,0,1,1.72,4,2.64,2.64,0,0,1-.75,1.72c-1.17,1.1-3.1.55-4.33,1.58s-1.1,2.48-1.86,3.65c-1,1.65-3.09,2.13-5,2.34-2.2.27-3.85.06-5.29-1.65a12.86,12.86,0,0,0-4.47-3.92c-1.72-.76-3.44-1.65-3.58-3.72a5.44,5.44,0,0,1,1.52-4,23.89,23.89,0,0,1,3.64-3"/><g id="eye2"><path class="cls-1" d="M827.42,231.26s.27-2.33.41-3.37.35-2.26.55-3.43c.35-2.27.69-4.61,1.1-6.88.14-1,.21-1.58,1.51-1.85,1-.21,2-.21,3-.35,1.72-.2,3.44-.41,5.23-.55a84.42,84.42,0,0,1,18.63,1.1,77.61,77.61,0,0,1,10.65,2.55c2.48.75,6,1.51,6.81,3.64.48,1.24-.28,2.61-1.17,3.78-3.09,4.26-10.59,12.24-10.59,12.24s7-8.53,6.81-13.2c-.07-2.89-3.71-4.13-6.88-4.95A65.72,65.72,0,0,0,853,218.54a53.54,53.54,0,0,0-10.51-.27,16,16,0,0,0-6.33,1.79,12,12,0,0,0-4.26,4.74c-.76,1.24-1.31,2.54-2.2,3.78-.42.62-1,1.17-1.45,1.79C828,230.64,827.42,231.26,827.42,231.26Z"/><path class="cls-1" d="M859.52,238.76s-1.64.48-2.47.68a45.35,45.35,0,0,1-26.74-1.78c-.62-.28-1.79-.76-1.79-.76"/><path class="cls-1" d="M843.51,229.48a6.46,6.46,0,0,0,2.26,5.56c3.24,2.14,7.09-1.58,6.33-6.6-.41-3.09-2.68-5.08-5-4.46-.07,0-.14.06-.21.06C845.09,224.73,843.71,226.93,843.51,229.48Z"/><path class="cls-1" d="M848.25,219.92a10.2,10.2,0,0,0-9.49,5.57,10,10,0,0,0,11.76,13.89,9.68,9.68,0,0,0,7.29-12.17A10.32,10.32,0,0,0,848.25,219.92Z"/><g id="eye2-2" data-name="eye2"><path class="cls-1" d="M773,230.37c-.48-.62-1-1.17-1.45-1.79-.89-1.24-1.44-2.54-2.2-3.78a11.56,11.56,0,0,0-4.26-4.74,17,17,0,0,0-6.32-1.79,49.36,49.36,0,0,0-10.52.27A65.88,65.88,0,0,0,737.77,220c-3.16.75-6.81,2.06-6.88,4.95-.07,4.6,6.81,13.2,6.81,13.2s-7.49-8-10.59-12.24c-.89-1.17-1.65-2.54-1.17-3.78.83-2.13,4.33-2.89,6.81-3.64a77.75,77.75,0,0,1,10.66-2.55,84.85,84.85,0,0,1,18.63-1.1c1.78.14,3.5.35,5.22.55,1,.14,2,.14,3,.35,1.3.27,1.37,1,1.51,1.85.41,2.27.76,4.61,1.1,6.88.21,1.17.34,2.27.55,3.43s.41,3.37.41,3.37S773.17,230.64,773,230.37Z"/><path class="cls-1" d="M772.62,236.9s-1.16.55-1.78.76a46,46,0,0,1-26.75,1.78c-.82-.2-2.47-.68-2.47-.68"/><path class="cls-1" d="M754.2,224c-.07,0-.14-.06-.21-.06-2.26-.62-4.53,1.37-5,4.46-.75,5,3,8.74,6.33,6.6a6.47,6.47,0,0,0,2.27-5.56C757.43,226.93,756.06,224.66,754.2,224Z"/><path class="cls-1" d="M743.41,227.27a9.69,9.69,0,0,0,7.28,12.17A9.94,9.94,0,1,0,753,220,9.9,9.9,0,0,0,743.41,227.27Z"/></g></g><g id="mouth-2" data-name="mouth"><path class="cls-1" d="M767.24,326.4s6.36-2.71,9.1-2.48c3.54.29,7.09.5,10.59,1,3.73.52,7.41,1.23,11.24,1.43a79.43,79.43,0,0,0,15.36-1.09c5.05-.72,10.42-1.5,15.46-.4l7.19,1.64"/><path class="cls-1" d="M778.59,330.08s2.55.44,3.83.64a139.39,139.39,0,0,0,36.08,1.38c2.11-.22,6.33-.83,6.33-.83"/></g></g><g id="图层_5" data-name="图层 5"><path class="cls-1" d="M479.24,378.45s6.25.65,16.3-2c20.59-5.35,34.61-20.88,48.73-33.28A77.4,77.4,0,0,0,568,306.65c3.07-10.44,8-22.84,12.28-51.56,2-13.34,4.78-28.5,7.2-43.08"/><path class="cls-1" d="M479.34,378.45a39.93,39.93,0,0,1-16-2.61c-21.15-8.13-34.6-20.89-48.64-33.29a78.74,78.74,0,0,1-23.55-37.2c-3.05-10.45-7.93-22.19-12.21-50.91-2.11-14.24-3.17-21.09-5.68-36.56"/><g id="ear-5" data-name="ear"><path class="cls-1" d="M585.22,226s20.46-23.84,22.54-22.6,13.91,15,12,23.25,0,11.57-3.85,17.52-18.56,22.45-22.8,32.57-19.83,9.51-19.83,9.51"/><path class="cls-1" d="M580.42,260.29s2.68-3.72,6.63-8.46c6.88-8.27,17.59-19.62,24.56-19.63"/><path class="cls-1" d="M586.73,252s17.59,16.23-10.3,24.73"/></g><g id="ear-6" data-name="ear"><path class="cls-1" d="M373.78,226s-20.46-23.84-22.54-22.6-13.91,15-12,23.25,0,11.57,3.85,17.52,18.56,22.45,22.8,32.57,19.83,9.51,19.83,9.51"/><path class="cls-1" d="M378.58,260.29s-2.68-3.72-6.63-8.46c-6.88-8.27-17.59-19.62-24.56-19.63"/><path class="cls-1" d="M372.27,252s-17.59,16.23,10.3,24.73"/></g><g id="hair-9" data-name="hair"><path id="hair-10" data-name="hair" class="cls-1" d="M349.75,205.67s-22.39-50.06,17.49-105.31c0,0-9-5-27,13,0,0,15-29,50.94-28,0,0-18-11-42.95,7,0,0,84.41-95.86,184.31-36.92"/><path id="hair-11" data-name="hair" class="cls-1" d="M532.57,55.45s8.56-5.93-3.29-18.44c0,0,21.8,6.71,28.67,34.21,0,0,33.06-3.82,35.06,5.17,0,0-17-4-27,8,0,0,63.44-3.84,52.51,86,0,0,3.08-9.37-11.9-21.36,0,0,9.22,33.6,3.29,58"/><path id="hair-12" data-name="hair" class="cls-1" d="M374.13,220.16s6.17-61.91,21.2-78.22c0,0,.89,25.38,22.27,40,0,0,13.17-66.53,65.21-66.53,0,0-10.54,40.18-25,54.67,0,0,48.09-2,51.81-48.26,0,0,2.2,34.43,26.39,46.46,0,0-9.72-11.34,5.84-32,0,0,13.45,67.42,48.36,78"/></g><g id="eyebrow-2" data-name="eyebrow"><path class="cls-1" d="M513.64,189.08s1.92.83,2.89,1.1c4.4.83,10.65-.41,14-1.92a74.53,74.53,0,0,1,11.41-4,19.07,19.07,0,0,1,7.57-.83,22.5,22.5,0,0,1,5.91,1.93c5.43,2.34,12.65,6.12,17.87,10.59,1.52,1.44,4.33,4.67,4.33,4.67"/><path class="cls-1" d="M513.64,189.08l6-9.28s2.54-3.85,4.06-5.57c5.43-5.91,14.16-8.11,22.06-6.67s14.92,6.26,20.15,12.31,11.82,20.83,11.82,20.83"/><path class="cls-1" d="M448.39,189.36s-12.72,1-17-1a74.78,74.78,0,0,0-11.41-4,19,19,0,0,0-7.56-.9,23.44,23.44,0,0,0-6,1.86c-5.44,2.27-12.72,6-17.95,10.38-1.58,1.45-4.4,4.68-4.4,4.68"/><path class="cls-1" d="M448.39,189.36,442.48,180s-2.54-3.85-4.06-5.64c-5.36-6-14.09-8.25-22-6.88s-15,6.12-20.28,12.1-12,20.7-12,20.7"/></g><path id="nose-3" data-name="nose" class="cls-1" d="M473.62,280.11s-3.09-2.27-4.81-3.23a2.94,2.94,0,0,0-1.72-.35c-1,.21-1.51,1.24-1.92,2.13a42.4,42.4,0,0,0-2.48,8.11,3.74,3.74,0,0,0,.35,3.1c1,1.17,6.8,1.51,8.32,1.44,3.09-.14,1.78.83,4.53,2.34s6.05,2.61,8.8,1.17c1.24-.62,2.14-1.72,3.37-2.27,1.72-.82,3.71-.55,5.64-.62s4.06-.69,4.81-2.4c.62-1.38.14-3-.34-4.34a16.24,16.24,0,0,0-2.34-5.08,5.62,5.62,0,0,0-4.81-2.48c-1.93.14-3.71,3.78-3.71,3.78"/><g id="eye2-3" data-name="eye2"><path class="cls-1" d="M508.27,231.64s2.75-14.1,13.48-22.14c9.76-7.36,26.13-9.69,53,8,.75.55,2.4,1.58,2.4,1.58"/><path class="cls-1" d="M573.66,227.86s-27.85-21-49.57-18.7c-.76.07-2.34.34-2.34.34"/><path class="cls-1" d="M509,259s45.79,32,59.33-31.14c.21-1,.62-3.1.62-3.1"/><path class="cls-1" d="M539,236.79a9.28,9.28,0,0,0-7.77-6.8,4.68,4.68,0,0,0-.83-.07h-.55l.76,1.58.21,1.65.34.14a1.15,1.15,0,0,1,.34.14,5.49,5.49,0,0,1,2.89,3.43,5.2,5.2,0,0,1-3.57,6.47c-.07,0-.14.06-.28.06a5.29,5.29,0,0,1-6.46-3.78,6.51,6.51,0,0,1-.14-1.37V238l-.21-.07a9.74,9.74,0,0,1-2-1.3.07.07,0,0,1-.07-.07l-.2-.21-.07.14v.14a9.22,9.22,0,0,0,11.07,11.55,9,9,0,0,0,6.66-10.87A1.08,1.08,0,0,0,539,236.79Z"/><path class="cls-1" d="M526.7,229.92a4,4,0,0,0-1.86,7.56,4.09,4.09,0,0,0,2.69.28,3.93,3.93,0,0,0,2.88-4.68.23.23,0,0,0-.07-.2A3.89,3.89,0,0,0,526.7,229.92Z"/><path class="cls-1" d="M437.94,235.49a9.4,9.4,0,0,0-8.11-6.88h-1l.76,1.58.2,1.65.35.14s2.75,1.93,3.23,3.58A5.2,5.2,0,0,1,429.9,242c-.07,0-.21.07-.27.07a5.32,5.32,0,0,1-6.47-3.78,6.75,6.75,0,0,1-.13-1.38v-.2l-.21-.07-2.13-1.38-.21-.2s0,.13-.07.13c-1.92,6.67,3.85,13.48,11.07,11.62A9,9,0,0,0,438.15,236,.94.94,0,0,1,437.94,235.49Z"/><path class="cls-1" d="M425.64,228.61a4,4,0,1,0,3.71,3.16.25.25,0,0,0-.07-.2A4,4,0,0,0,425.64,228.61Z"/><path class="cls-1" d="M451.08,231.91s-2.75-14.09-13.48-22.14c-9.76-7.35-26.12-9.69-53,8-.75.55-2.4,1.58-2.4,1.58"/><path class="cls-1" d="M385.69,228.2s27.85-21,49.57-18.7c.76.07,2.34.34,2.34.34"/><path class="cls-1" d="M450.39,259.34s-45.79,32-59.33-31.14c-.21-1-.62-3.09-.62-3.09"/></g><g id="mouth-3" data-name="mouth"><g id="mouth-2-2" data-name="mouth-2"><path class="cls-1" d="M455.89,334.14l4.67,1a154.5,154.5,0,0,0,41.8,1.93c1.1-.07,3.23-.34,3.23-.34"/></g><path class="cls-1" d="M455.48,329s5.43-2.41,8.31-2.61c4.75-.35,8.74,2.74,13.27,3.64a14,14,0,0,0,3-.07c4.54-.69,9.42-2.41,14-2.2s13,4.47,13,4.47"/></g><text class="cls-2" transform="translate(370.4 447.97)"><tspan class="cls-6">C</tspan><tspan x="24.84" y="0">a</tspan><tspan class="cls-5" x="44.35" y="0">r</tspan><tspan x="56.95" y="0">toon </tspan><tspan class="cls-4" x="142.67" y="0">S</tspan><tspan x="162.93" y="0">tyle</tspan></text><line class="cls-7" x1="6" y1="462.5" x2="69" y2="462.5"/><polygon class="cls-8" points="21 470.5 21 454.5 0 462.5 21 470.5"/><line class="cls-7" x1="960" y1="462.5" x2="897" y2="462.5"/><polygon class="cls-8" points="945 470.5 945 454.5 966 462.5 945 470.5"/></g></svg>