<svg id="图层_5" data-name="图层 5" xmlns="http://www.w3.org/2000/svg" viewBox="0 0 966 503"><defs><style>.cls-1,.cls-2,.cls-3{fill:none;stroke:#000;stroke-width:2.7px;}.cls-1,.cls-3{stroke-miterlimit:10;}.cls-2,.cls-3{stroke-linecap:round;}.cls-2{stroke-linejoin:round;}.cls-4{font-size:36px;fill:#3c29e6;font-family:Avenir-Medium, Avenir;}</style></defs><title>emotion03</title><g id="disgust"><path class="cls-1" d="M724.29,381.73s6.18.64,16.13-1.94c20.39-5.3,34.27-20.68,48.25-33a76.6,76.6,0,0,0,23.47-36.19c3-10.34,7.9-22.61,12.16-51.05,2-13.2,4.73-28.22,7.13-42.65"/><path class="cls-1" d="M724.38,381.73a39.56,39.56,0,0,1-15.88-2.59c-20.94-8.05-34.25-20.68-48.15-32.95A78,78,0,0,1,637,309.35c-3-10.34-7.85-22-12.08-50.4-2.1-14.1-3.15-20.88-5.63-36.19"/><g id="ear"><path class="cls-1" d="M829.21,230.81s20.26-23.6,22.31-22.37,13.78,14.85,11.93,23,0,11.46-3.82,17.35S841.26,271,837.06,281.05s-19.63,9.41-19.63,9.41"/><path class="cls-1" d="M824.45,264.75s2.66-3.69,6.57-8.39c6.81-8.18,17.42-19.41,24.31-19.42"/><path class="cls-1" d="M830.71,256.49s17.41,16.06-10.2,24.47"/></g><g id="ear-2" data-name="ear"><path class="cls-1" d="M619.87,230.81s-20.26-23.6-22.31-22.37-13.78,14.85-11.92,23,0,11.46,3.81,17.35S607.82,271,612,281.05s19.63,9.41,19.63,9.41"/><path class="cls-1" d="M624.63,264.75s-2.66-3.69-6.57-8.39c-6.81-8.18-17.42-19.41-24.31-19.42"/><path class="cls-1" d="M618.38,256.49S601,272.55,628.58,281"/></g><g id="hair"><path id="hair-2" data-name="hair" class="cls-1" d="M596.09,210.67S573.91,161.1,613.4,106.41c0,0-8.9-5-26.71,12.85,0,0,14.84-28.68,50.44-27.69,0,0-17.8-10.88-42.52,6.92,0,0,83.57-94.9,182.47-36.55"/><path id="hair-3" data-name="hair" class="cls-1" d="M777.08,61.94s8.48-5.87-3.26-18.26c0,0,21.59,4.38,29.18,33.34,0,0,31.94-3.25,33.92,5.65,0,0-16.81-4-26.7,7.91,0,0,62.81-3.8,52,85.15,0,0,3-9.28-11.79-21.15,0,0,9.13,33.26,3.26,57.39"/><path id="hair-4" data-name="hair" class="cls-1" d="M620.22,225s6.11-61.3,21-77.44c0,0,.88,25.12,22,39.62,0,0,13-65.87,64.56-65.87,0,0-10.43,39.78-24.78,54.13,0,0,47.61-2,51.3-47.78,0,0,2.17,34.08,26.12,46,0,0-9.62-11.23,5.78-31.71,0,0,13.32,66.75,47.88,77.18"/></g><g id="eye2"><path class="cls-2" d="M694.15,221.56S670.87,209,643.06,238.3c-1.08,1.15-3.28,3.64-3.28,3.64"/><path class="cls-2" d="M708,245s-10.14-19.48-31.27-24.5c-1.25-.29-3.86-.73-3.86-.73"/><path class="cls-2" d="M706.37,248.73s-11.72-28.9-36.09-20.73-29.77,18.48-29.77,18.48"/><path class="cls-2" d="M699.5,257.12a73.38,73.38,0,0,1-43.07,3.44c-2.78-.64-8.5-2.55-8.5-2.55"/><path class="cls-2" d="M762.35,221s21.39-11.59,47.64,13.29c2.21,2.09,6.73,7.09,6.73,7.09"/><path class="cls-2" d="M748.47,244.39s7.94-16.22,25.23-22.93A84.08,84.08,0,0,1,783,219"/><path class="cls-2" d="M750.14,241.34S762,221.28,786.63,227s30.09,12.83,30.09,12.83"/><path class="cls-2" d="M808.67,257.93a73,73,0,0,0-48.29,3c-1,.44-6.9-2.15-6.9-2.15"/><path class="cls-1" d="M805.66,234a6.74,6.74,0,0,0-6.34,4c-2.36,5.41,2.15,11.39,7.84,9.9a7.1,7.1,0,0,0-1.5-13.89Z"/><path class="cls-1" d="M693.22,230.84c-2.64-.14-5.2,1.78-6.34,4.88-2.36,6.63,2.15,13.94,7.84,12.12,3.78-1.17,5.87-5.87,4.87-10.58C698.82,233.69,696.21,230.94,693.22,230.84Z"/><path class="cls-1" d="M797.22,232.38c-5.92-.14-11.66,1.94-14.22,5.29-5.31,7.18,4.82,15.1,17.57,13.13,8.48-1.26,13.18-6.36,10.93-11.46C809.79,235.47,803.93,232.5,797.22,232.38Z"/><path class="cls-1" d="M686.8,229.81c-5.67-.17-11.16,2.2-13.61,6C668.11,244,677.8,253,690,250.76c8.11-1.44,12.61-7.24,10.45-13C698.82,233.32,693.22,229.94,686.8,229.81Z"/><path class="cls-1" d="M807.76,236.56c-1.09-.06-2.14.87-2.61,2.36-1,3.2.88,6.73,3.22,5.85,1.56-.56,2.42-2.83,2-5.1C810.07,237.94,809,236.61,807.76,236.56Z"/><path class="cls-1" d="M695.06,236c-1.08-.07-2.14.86-2.61,2.36-1,3.2.89,6.73,3.23,5.85,1.56-.56,2.42-2.83,2-5.11C697.37,237.34,696.29,236,695.06,236Z"/></g><g id="nose"><path class="cls-2" d="M728.42,267.34a11.86,11.86,0,0,1,8.47,1.11,11.59,11.59,0,0,1,4.76,5.16"/></g><g id="mouth"><path id="mouth-2" data-name="mouth" class="cls-2" d="M703.47,334.57c5.61-1.79,11-5.17,16.24-7.88,5.41-2.8,27.11-16.1,32.66-18.61,11.09-5,6.69-2.32,20.49,0"/><path class="cls-2" d="M769.65,298.44a5.72,5.72,0,0,1,6.83,4.82"/></g><path id="nose-2" data-name="nose" class="cls-3" d="M734.89,276.48s-7.59-6-12.28-6.15-9.68,2.42-11,7a14.76,14.76,0,0,0-.31,5.92,14.08,14.08,0,0,0,1.68,5.46c2.61,4.42,8.72,6,13.54,5.39,3.74-.5,9.74-5.25,9.74-5.25"/><g id="eyebrow"><path class="cls-3" d="M807,203.63s-2-2.75-3.16-4A47.86,47.86,0,0,0,790,189.52c-6.06-2.92-13.31-4-19.53-1.47-8.41,3.43-13.68,13-14.28,22.1-.1,1.42.07,4.19.07,4.19"/><path class="cls-3" d="M807,203.63a49.48,49.48,0,0,0-5-1.86c-7.16-1.84-14.8-.66-22.1.51-7.85,1.27-15.83,3.66-21.41,9.39-.79.82-2.23,2.67-2.23,2.67"/><path class="cls-3" d="M650.62,204.63s1.94-2.87,3.14-4.22a47.8,47.8,0,0,1,13.52-10.31c6-3.08,13.2-4.35,19.49-2,8.24,3.13,12,7.6,13.07,16.38.21,1.7,8.74,3.06,8.74,3.06"/><path class="cls-3" d="M650.33,204.57s2.85-1.33,4.31-1.79c7.3-2.27,15.22-1.26,22.77-.23,6.75.91,16.4,5,21.83,9,1.81,1.34,9.34-3.93,9.34-3.93"/></g></g><g id="surprised"><g id="face"><path class="cls-1" d="M236.69,381.13s6.19.64,16.13-1.94c20.4-5.3,34.27-20.68,48.25-33A76.6,76.6,0,0,0,324.54,310c3-10.34,7.91-22.62,12.16-51.05,2-13.2,4.74-28.22,7.13-42.65"/><path class="cls-1" d="M236.78,381.13a39.58,39.58,0,0,1-15.88-2.59c-20.93-8.05-34.25-20.68-48.15-33a77.9,77.9,0,0,1-23.31-36.83c-3-10.34-7.86-22-12.09-50.41-2.1-14.09-3.14-20.88-5.62-36.18"/><g id="ear-3" data-name="ear"><path class="cls-1" d="M341.62,230.21s20.25-23.61,22.31-22.37,13.78,14.85,11.92,23,0,11.46-3.81,17.35-18.37,22.23-22.58,32.25-19.62,9.41-19.62,9.41"/><path class="cls-1" d="M336.86,264.14s2.66-3.69,6.56-8.38c6.82-8.18,17.42-19.42,24.32-19.43"/><path class="cls-1" d="M343.11,255.88s17.42,16.07-10.2,24.48"/></g><g id="ear-4" data-name="ear"><path class="cls-1" d="M132.27,230.21S112,206.6,110,207.84s-13.78,14.85-11.92,23,0,11.46,3.81,17.35,18.37,22.23,22.58,32.25,19.62,9.41,19.62,9.41"/><path class="cls-1" d="M137,264.14s-2.66-3.69-6.56-8.38c-6.82-8.18-17.42-19.42-24.32-19.43"/><path class="cls-1" d="M130.78,255.88S113.36,272,141,280.36"/></g><g id="hair-5" data-name="hair"><path id="hair-6" data-name="hair" class="cls-1" d="M108.49,210.06S86.32,160.5,125.8,105.8c0,0-8.9-4.94-26.7,12.86,0,0,14.83-28.68,50.44-27.69,0,0-17.81-10.88-42.53,6.92,0,0,83.57-94.91,182.48-36.55"/><path id="hair-7" data-name="hair" class="cls-1" d="M289.49,61.34s8.47-5.87-3.26-18.26c0,0,21.58,4.38,29.18,33.34,0,0,31.94-3.26,33.92,5.65,0,0-16.82-4-26.71,7.91,0,0,62.82-3.81,52,85.15,0,0,3-9.28-11.79-21.15,0,0,9.13,33.26,3.26,57.39"/><path id="hair-8" data-name="hair" class="cls-1" d="M132.62,224.41s6.11-61.3,21-77.44c0,0,.87,25.12,22,39.62,0,0,13-65.87,64.56-65.87,0,0-10.43,39.78-24.78,54.13,0,0,47.61-2,51.3-47.79,0,0,2.18,34.09,26.12,46,0,0-9.62-11.24,5.79-31.72,0,0,13.31,66.76,47.87,77.19"/></g></g><path id="nose-3" data-name="nose" class="cls-3" d="M227.81,273.84s9-3.56,13.51-2.42,8.6,5.07,8.6,9.88a14.47,14.47,0,0,1-1.39,5.76,14.14,14.14,0,0,1-3.15,4.75c-3.77,3.5-10.08,3.33-14.52,1.33-3.44-1.55-7.85-7.8-7.85-7.8"/><g id="eyebrow-2" data-name="eyebrow"><path class="cls-3" d="M317.43,202.34s-1.33-3.11-2.21-4.63a47.43,47.43,0,0,0-11.35-12.83c-5.27-4.17-12.11-6.81-18.74-5.68-9,1.53-16.18,9.76-18.73,18.47-.4,1.37-.85,4.12-.85,4.12"/><path class="cls-3" d="M317.43,202.34a49,49,0,0,0-4.49-2.9c-6.6-3.35-14.31-3.86-21.69-4.3-7.94-.47-16.24.14-22.94,4.53-.95.62-2.76,2.12-2.76,2.12"/><path class="cls-3" d="M158.1,202.34s1.36-3.18,2.27-4.74a47.71,47.71,0,0,1,11.29-12.72c5.27-4.17,12.11-6.81,18.74-5.68,8.69,1.48,15.74,9.27,18.49,17.69a47.5,47.5,0,0,1,1.09,4.9"/><path class="cls-3" d="M158.1,202.34s2.54-1.86,3.89-2.59c6.73-3.63,14.69-4.16,22.29-4.61,6.8-.4,13.88,0,20,2.87a46,46,0,0,1,5.73,3.78"/></g><g id="eye2-2" data-name="eye2"><path class="cls-3" d="M262.31,254.42s.31-5,.8-7.43c2.83-14,13-27.11,28.33-28.71,18.06-1.87,23.82,19.65,26.45,35.69.53,3.19,1.19,7.68-3.89,13.23-1.38,1.52-3.72,1.69-5.75,2-5.42.81-10.9.12-16.36.2s-10.71.32-16.11-.1c-6.59-.52-13.14-11.68-13.14-11.68"/><path class="cls-3" d="M211.62,254.42s-.3-5-.8-7.43c-2.82-14-13-27.11-28.33-28.71C164.44,216.41,158.68,237.93,156,254c-.52,3.19-1.18,7.68,3.89,13.23,1.38,1.52,3.73,1.69,5.76,2,5.42.81,10.9.12,16.35.2s10.72.32,16.12-.1A14.4,14.4,0,0,0,210,261.2a32.12,32.12,0,0,0,1.28-3.59"/><path class="cls-2" d="M275.89,252.43A15.36,15.36,0,0,0,291.25,262a15,15,0,0,0,12.94-10.18,15.49,15.49,0,0,0-5-16.79c-.3-.25-.94-.72-.94-.72a11.15,11.15,0,0,1,.62,1.05,5.77,5.77,0,0,1,.26,4.25,5.61,5.61,0,0,1-4.86,3.82,5.77,5.77,0,0,1-5.77-3.57,5.57,5.57,0,0,1,3.2-7.42,11,11,0,0,1,1.55-.37l-.82-.17a15,15,0,0,0-8.07.84A14.82,14.82,0,0,0,275.89,252.43Z"/><path class="cls-1" d="M288.76,255.16a7.53,7.53,0,0,0,7.35-3.83,7.65,7.65,0,0,0-8-11.28,7.46,7.46,0,0,0-6,9A7.72,7.72,0,0,0,288.76,255.16Z"/><path class="cls-2" d="M173.14,252.43A15.35,15.35,0,0,0,188.5,262a15,15,0,0,0,12.93-10.18,15.49,15.49,0,0,0-5-16.79c-.31-.25-.95-.72-.95-.72s.45.68.63,1.05a5.87,5.87,0,0,1,.26,4.25,5.62,5.62,0,0,1-4.86,3.82,5.76,5.76,0,0,1-5.77-3.57,5.57,5.57,0,0,1,3.2-7.42,10.71,10.71,0,0,1,1.55-.37l-.83-.17a15,15,0,0,0-8.06.84A14.82,14.82,0,0,0,173.14,252.43Z"/><path class="cls-1" d="M186,255.16a7.55,7.55,0,0,0,7.35-3.83,7.65,7.65,0,0,0-8-11.28,7.47,7.47,0,0,0-6.05,9A7.72,7.72,0,0,0,186,255.16Z"/></g><path class="cls-3" d="M254.41,317.63c-.06-1.49-2.78-2.91-3.87-3.45s-2.27-1.25-3.44-1.74a24,24,0,0,0-4-1c-2.43-.57-5-.3-7.47-.32a9.13,9.13,0,0,0-5.48,1.73c-1.67,1.11-3.62,1.86-5,3.43a13.93,13.93,0,0,0-3.45,6.46,45.48,45.48,0,0,0-1,9c0,1,0,2,0,3s.35,1.88.44,2.87c.38,4,.93,8.22,3.23,11.66,2.58,3.84,5.42,7.37,9.94,8.85a13.1,13.1,0,0,0,4.52.86c2,0,3.27,0,5-1a15.57,15.57,0,0,0,4.44-3.69c1-1.34,1.77-2.93,2.69-4.34a14.46,14.46,0,0,0,2.16-5.19,70,70,0,0,1,1.72-7.72c.77-2.3.42-4.91.42-7.33,0-2.6,0-5.2,0-7.8a11.9,11.9,0,0,0-.31-3.81c-.32-1-1-1.73-1.41-2.66"/><path class="cls-3" d="M218.11,315.87c1.31-3.52,2.82-7.28,6-9.28s7-1.44,10.66-1.55c5.11-.15,16.36-2.87,19.92,1.56,1.69,2.11,4.51,4.62,5.33,7.15"/><path class="cls-3" d="M217.31,353.44c2.05,1.66,4.2,3.21,6.11,5,1.53,1.46,3.26,5,5.06,5.74,2.32.9,7.76-.57,10.4-.54s6.66,1.21,9.31.69c2.34-.47,3.1-3.1,4.47-4.8a25.76,25.76,0,0,1,5.66-5.22"/></g><text class="cls-4" transform="translate(168.32 448.89)"><tspan xml:space="preserve">Suprised                                 Disgusted</tspan></text></svg>