<svg id="图层_6" data-name="图层 6" xmlns="http://www.w3.org/2000/svg" viewBox="0 0 966 503"><defs><style>.cls-1,.cls-2{fill:none;stroke:#000;stroke-miterlimit:10;stroke-width:2.7px;}.cls-1{stroke-linecap:round;}.cls-3{font-size:36px;fill:#3c29e6;font-family:Avenir-Medium, Avenir;}</style></defs><title>emotion01</title><g id="sad"><g id="mouth"><path class="cls-1" d="M699.91,334.16c4.29-12,24.11-13.86,34.52-12a42.4,42.4,0,0,1,23.76,13.31"/><path class="cls-1" d="M699.58,324.91c2.53,1,5.57-2.19,7.43-3.55s3.43-2.54,5.1-3.86c1.42-1.13,2.75-2.42,4.66-2.54,2.17-.14,4.35,1,6.46,1.55a10.21,10.21,0,0,0,3.57.18c1-.13,1.81-1,2.78-1.38a8.08,8.08,0,0,1,3.23-.69c2.71,0,5.68,2,8,3.35a50.85,50.85,0,0,1,7.78,5.58"/><path class="cls-1" d="M714,332.1c7.94-2.49,16.65-3.21,24.67-.68"/></g><g id="male1.6"><g id="eyebrow"><path class="cls-2" d="M802,209.52s-.54-2.11-.73-3.14a56.44,56.44,0,0,1-.72-19.09,2.42,2.42,0,0,0-.3-2,2.32,2.32,0,0,0-1-.48c-16.55-4.77-34.43-8.46-47.9-18.73-1.93-1.45-5.5-4.83-5.5-4.83"/><path class="cls-2" d="M747,162.59s1.69,2.9,2.6,4.29c5.68,9.24,12,18.12,19.81,25.55,7.67,7.31,17,13.17,27.18,15.88,1.81.49,5.5,1.15,5.5,1.15"/><g id="eyebrow-2"><path class="cls-2" d="M647.16,208.38a55.71,55.71,0,0,0,1-20.3,2.42,2.42,0,0,1,.3-2.05,2.28,2.28,0,0,1,1-.49c18.48-5.37,38.66-9.3,52.49-22.65"/><path class="cls-2" d="M701,164.58c-6.16,10.33-13,20.42-21.68,28.69-8.52,8.1-18.91,14.38-30.5,16.68"/></g></g></g><path id="nose" class="cls-2" d="M718.8,284.12a29.55,29.55,0,0,0-4.23-2.84,2.62,2.62,0,0,0-1.51-.3c-.84.18-1.32,1.09-1.69,1.87A37.56,37.56,0,0,0,709.2,290a3.29,3.29,0,0,0,.3,2.72c.85,1,6,1.33,7.31,1.27,2.72-.12,1.57.72,4,2s5.31,2.3,7.73,1c1.09-.55,1.87-1.51,3-2,1.51-.72,3.26-.48,5-.54s3.56-.6,4.23-2.11a5.27,5.27,0,0,0-.3-3.81,14.38,14.38,0,0,0-2.06-4.47,4.93,4.93,0,0,0-4.22-2.17c-1.7.12-3.27,3.32-3.27,3.32"/><g id="eye_" data-name="eye "><path class="cls-2" d="M700.62,241.54s-2.41-12.39-11.84-19.45c-8.57-6.47-22.95-8.52-46.63,7.12-.66.43-2,1.39-2,1.39"/><path class="cls-2" d="M643.18,238.21s24.46-18.48,43.55-16.43c.66.06,2,.31,2,.31"/><path class="cls-2" d="M700,265.58S659.19,294.15,647.65,237c-.12-.49-.3-1.45-.3-1.45"/><path class="cls-2" d="M661.18,266.85c-3.26-.06-6.4.84-7.79,2.23-2.9,3,2.65,6.34,9.66,5.56,4.65-.55,7.25-2.72,6-4.83C668.06,268.11,664.86,266.91,661.18,266.85Z"/><path class="cls-2" d="M749.43,241.11s2.41-12.38,11.84-19.45c8.57-6.46,23-8.51,46.63,7.13.66.42,2.05,1.39,2.05,1.39"/><path class="cls-2" d="M806.87,237.85s-24.46-18.48-43.55-16.43c-.66.06-2,.3-2,.3"/><path class="cls-2" d="M750,265.21s40.83,28.58,52.37-28.63c.12-.48.3-1.45.3-1.45"/><path class="cls-2" d="M781,269.38c-1.27,2.18,1.33,4.29,6,4.83,7,.85,12.56-2.53,9.66-5.55-1.39-1.39-4.53-2.3-7.79-2.24C785.19,266.48,782,267.75,781,269.38Z"/><g id="eye2"><g id="eye2-2"><path class="cls-2" d="M779.21,259.42a8.25,8.25,0,0,0-7.19-6h-.79a8.49,8.49,0,0,1,.61,1.38,11.33,11.33,0,0,1,.18,1.45,2,2,0,0,1,.3.13,4.74,4.74,0,0,1,2.84,3.14,4.55,4.55,0,0,1-3.14,5.67c-.06,0-.12.06-.24.06a4.64,4.64,0,0,1-5.68-3.38,3.92,3.92,0,0,1-.12-1.21v-.18a2.5,2.5,0,0,0-.36-.12,4.35,4.35,0,0,1-1.57-1c-.07-.07-.31-.37-.31-.37a1,1,0,0,1-.12.3,8.14,8.14,0,0,0,9.79,10.09,7.9,7.9,0,0,0,5.86-9.54A.76.76,0,0,0,779.21,259.42Z"/><path class="cls-2" d="M768.39,253.38a3.5,3.5,0,0,0-1.63,6.64,3.55,3.55,0,0,0,2.36.24,3.45,3.45,0,0,0,2.54-4.11.22.22,0,0,0-.06-.18A3.49,3.49,0,0,0,768.39,253.38Z"/></g></g><g id="eye2-3"><g id="eye2-4"><path class="cls-2" d="M685.88,259.42a8.24,8.24,0,0,0-7.12-6h-.85s.48.9.66,1.38a10.22,10.22,0,0,1,.19,1.45l.66.31a4.74,4.74,0,0,1,2.42,3,4.56,4.56,0,0,1-3.14,5.67c-.07,0-.13.06-.25.06a4.63,4.63,0,0,1-5.67-3.38,3.92,3.92,0,0,1-.12-1.21v-.18l-.43-.18a6.09,6.09,0,0,1-1.45-1l-.3-.37a1.39,1.39,0,0,1-.12.37,8.07,8.07,0,0,0,9.79,10,7.87,7.87,0,0,0,5.85-9.54A.46.46,0,0,1,685.88,259.42Z"/><path class="cls-2" d="M675.07,253.38a3.5,3.5,0,0,0-1.63,6.64,3.55,3.55,0,0,0,2.36.24,3.43,3.43,0,0,0,2.53-4.11.22.22,0,0,0-.06-.18A3.47,3.47,0,0,0,675.07,253.38Z"/></g></g></g><g id="face"><path class="cls-2" d="M724.77,380.11s6.18.65,16.13-1.94c20.39-5.29,34.27-20.68,48.25-32.95A76.6,76.6,0,0,0,812.62,309c3-10.34,7.9-22.62,12.16-51,2-13.21,4.74-28.22,7.13-42.65"/><path class="cls-2" d="M724.86,380.11A39.44,39.44,0,0,1,709,377.53c-20.93-8-34.25-20.68-48.15-33a78.06,78.06,0,0,1-23.32-36.83c-3-10.34-7.85-22-12.08-50.41-2.1-14.09-3.15-20.88-5.63-36.19"/><g id="ear"><path class="cls-2" d="M829.69,229.2S850,205.59,852,206.83s13.77,14.85,11.92,23,0,11.46-3.81,17.35-18.38,22.22-22.58,32.25-19.63,9.41-19.63,9.41"/><path class="cls-2" d="M824.94,263.13s2.66-3.69,6.56-8.38c6.82-8.19,17.42-19.42,24.32-19.43"/><path class="cls-2" d="M831.19,254.87s17.41,16.07-10.2,24.48"/></g><g id="ear-2" data-name="ear"><path class="cls-2" d="M620.35,229.2S600.09,205.59,598,206.83s-13.78,14.85-11.92,23,0,11.46,3.81,17.35,18.37,22.22,22.58,32.25,19.62,9.41,19.62,9.41"/><path class="cls-2" d="M625.11,263.13s-2.66-3.69-6.57-8.38c-6.81-8.19-17.41-19.42-24.31-19.43"/><path class="cls-2" d="M618.86,254.87s-17.42,16.07,10.2,24.48"/></g><g id="hair"><path id="hair-2" data-name="hair" class="cls-2" d="M596.57,209.05s-22.18-49.56,17.31-104.26c0,0-8.9-5-26.71,12.86,0,0,14.84-28.68,50.45-27.7,0,0-17.81-10.88-42.53,6.93,0,0,83.57-94.91,182.47-36.56"/><path id="hair-3" data-name="hair" class="cls-2" d="M777.56,60.32s8.48-5.86-3.26-18.25c0,0,21.59,4.37,29.19,33.34,0,0,31.94-3.26,33.91,5.64,0,0-16.81-4-26.7,7.92,0,0,62.81-3.81,52,85.14,0,0,3-9.28-11.8-21.15,0,0,9.14,33.26,3.27,57.39"/><path id="hair-4" data-name="hair" class="cls-2" d="M620.7,223.4s6.11-61.3,21-77.45c0,0,.87,25.13,22,39.62,0,0,13-65.86,64.56-65.86,0,0-10.43,39.78-24.78,54.12,0,0,47.61-2,51.3-47.78,0,0,2.18,34.09,26.12,46,0,0-9.62-11.23,5.78-31.71,0,0,13.32,66.75,47.88,77.19"/></g></g></g><g id="happy"><g id="face-2" data-name="face"><path class="cls-2" d="M235.58,379.51s6.19.65,16.14-1.94c20.39-5.3,34.26-20.68,48.24-33a76.56,76.56,0,0,0,23.48-36.18c3-10.34,7.9-22.62,12.15-51.06,2-13.2,4.74-28.21,7.13-42.65"/><path class="cls-2" d="M235.68,379.51a39.44,39.44,0,0,1-15.88-2.58c-20.94-8.06-34.26-20.68-48.16-33a78,78,0,0,1-23.31-36.84c-3-10.34-7.86-22-12.09-50.4-2.09-14.09-3.14-20.88-5.62-36.19"/><g id="ear-3" data-name="ear"><path class="cls-2" d="M340.51,228.59s20.26-23.6,22.31-22.37,13.78,14.85,11.92,23,0,11.46-3.81,17.36-18.37,22.22-22.57,32.24-19.63,9.41-19.63,9.41"/><path class="cls-2" d="M335.75,262.53s2.66-3.69,6.57-8.38c6.81-8.19,17.42-19.42,24.31-19.43"/><path class="cls-2" d="M342,254.27s17.42,16.06-10.2,24.48"/></g><g id="ear-4" data-name="ear"><path class="cls-2" d="M131.17,228.59s-20.26-23.6-22.31-22.37-13.78,14.85-11.93,23,0,11.46,3.81,17.36,18.38,22.22,22.58,32.24S143,288.24,143,288.24"/><path class="cls-2" d="M135.92,262.53s-2.66-3.69-6.56-8.38c-6.81-8.19-17.42-19.42-24.32-19.43"/><path class="cls-2" d="M129.67,254.27s-17.41,16.06,10.2,24.48"/></g><g id="hair-5" data-name="hair"><path id="hair-6" data-name="hair" class="cls-2" d="M107.38,208.45s-22.17-49.57,17.31-104.26c0,0-8.9-5-26.7,12.86,0,0,14.83-28.69,50.44-27.7,0,0-17.8-10.88-42.53,6.93,0,0,83.57-94.91,182.48-36.56"/><path id="hair-7" data-name="hair" class="cls-2" d="M288.38,59.72s8.47-5.87-3.26-18.25c0,0,21.58,4.37,29.18,33.34,0,0,31.94-3.26,33.92,5.64,0,0-16.82-4-26.71,7.91,0,0,62.82-3.8,52,85.15,0,0,3-9.28-11.79-21.15,0,0,9.13,33.26,3.26,57.39"/><path id="hair-8" data-name="hair" class="cls-2" d="M131.51,222.79s6.11-61.29,21-77.44c0,0,.87,25.13,22,39.62,0,0,13-65.87,64.57-65.87,0,0-10.44,39.78-24.79,54.13,0,0,47.61-2,51.3-47.78,0,0,2.18,34.09,26.12,46,0,0-9.62-11.23,5.79-31.71,0,0,13.31,66.75,47.88,77.18"/></g></g><g id="eyebrow-2-2" data-name="eyebrow"><path class="cls-2" d="M266.19,200.63s19.12-8.74,30.28-6.15c10.19,2.35,26.24,16.11,26.24,16.11"/><path class="cls-2" d="M266.19,200.63l5.25-8.14a60,60,0,0,1,3.56-4.88c4.76-5.19,12.42-7.12,19.36-5.86s13.09,5.49,17.67,10.8,10.38,18.28,10.38,18.28"/><g id="eyebrow-2-3" data-name="eyebrow-2"><path class="cls-2" d="M207.74,201.3s-19.12-8.75-30.28-6.15c-10.19,2.35-26.24,16.1-26.24,16.1"/><path class="cls-2" d="M207.74,201.3l-5.25-8.15s-2.23-3.37-3.56-4.88c-4.76-5.19-12.42-7.12-19.36-5.85s-13.09,5.49-17.67,10.79-10.44,18.22-10.44,18.22"/></g></g><path id="nose-2" data-name="nose" class="cls-2" d="M231.08,280.5a29.87,29.87,0,0,0-4.22-2.84,2.62,2.62,0,0,0-1.51-.3c-.84.18-1.32,1.09-1.69,1.87a37.25,37.25,0,0,0-2.17,7.12,3.26,3.26,0,0,0,.3,2.71c.85,1,6,1.33,7.3,1.27,2.72-.12,1.57.72,4,2.05s5.31,2.29,7.72,1c1.09-.54,1.87-1.5,3-2,1.51-.72,3.26-.48,4.95-.54s3.56-.6,4.22-2.11a5.24,5.24,0,0,0-.3-3.8,14.42,14.42,0,0,0-2.05-4.46,4.93,4.93,0,0,0-4.23-2.17c-1.69.12-3.25,3.31-3.25,3.31"/><g id="eye2-2-2" data-name="eye2"><g id="eye2-2-3" data-name="eye2-2"><path class="cls-2" d="M209,230.61s-6.58-10.73-17.86-14.11c-10.43-3.08-24.85.06-41.86,23.7-.24.37-.78,1.09-.78,1.09"/><path class="cls-2" d="M154.06,247.44s17.13-26.78,36.19-30.76l.9-.18"/><path class="cls-2" d="M213.65,255.83C199.84,258.18,183.13,285.44,158,245c-.31-.54-1-1.57-1-1.57"/><path class="cls-2" d="M200.44,240.75a8.26,8.26,0,0,0-7.54-6h-.48s.48.91.66,1.39a11.13,11.13,0,0,1,.18,1.45,7,7,0,0,1,.79.36,4.67,4.67,0,0,1-.85,8.57c-.06,0-.12.06-.24.06a4.66,4.66,0,0,1-5.67-3.32,3.92,3.92,0,0,1-.12-1.21v-.18a2.47,2.47,0,0,1-.48-.18,4.51,4.51,0,0,1-1.33-.84l-.42-.43a2.89,2.89,0,0,0-.12.49,8.06,8.06,0,0,0,9.77,9.89,7.91,7.91,0,0,0,5.85-9.53A.64.64,0,0,0,200.44,240.75Z"/><path class="cls-2" d="M189.64,234.71a3.31,3.31,0,0,0-3.19,2,3.45,3.45,0,0,0,1.63,4.65,3.52,3.52,0,0,0,2.35.24,3.44,3.44,0,0,0,2.53-4.1.22.22,0,0,0-.06-.18A3.54,3.54,0,0,0,189.64,234.71Z"/></g><g id="eye2-3-2" data-name="eye2-3"><g id="eye2-4-2" data-name="eye2-4"><path class="cls-2" d="M264.5,230.61s6.57-10.73,17.85-14.11c10.2-3,24.25-.06,40.84,22.32.36.48,1.81,2.47,1.81,2.47"/><path class="cls-2" d="M319.45,247.44s-16-25-34.32-30.28c-.6-.18-2.78-.66-2.78-.66"/><path class="cls-2" d="M260.28,255.89C274,258.72,290.62,285,315.53,245c.3-.54,1-1.57,1-1.57"/><path class="cls-2" d="M291.28,242.68a8.2,8.2,0,0,0-7.54-6h-.48s.48.91.66,1.39a11.13,11.13,0,0,1,.18,1.45s.61.24.73.3a4.63,4.63,0,0,1,2.35,3,4.55,4.55,0,0,1-3.14,5.67c-.06,0-.12.06-.24.06a4.66,4.66,0,0,1-5.67-3.32,3.92,3.92,0,0,1-.12-1.21v-.24a2.5,2.5,0,0,0-.36-.12,5,5,0,0,1-1.51-1c-.06-.06-.3-.37-.3-.37a2.86,2.86,0,0,0-.06.31,8.1,8.1,0,0,0,9.71,10.07,7.91,7.91,0,0,0,5.85-9.53A1,1,0,0,0,291.28,242.68Z"/><path class="cls-2" d="M280.48,236.7a3.3,3.3,0,0,0-3.19,2,3.45,3.45,0,0,0,1.63,4.64,3.52,3.52,0,0,0,2.35.24,3.44,3.44,0,0,0,2.53-4.1.22.22,0,0,0-.06-.18A3.55,3.55,0,0,0,280.48,236.7Z"/></g></g></g><path class="cls-2" d="M210.15,319.28s3.32,1.39,5,2c15,5.31,31.85,4.83,45.3-4.16a1.58,1.58,0,0,1,2.35,1.87,46.74,46.74,0,0,1-4.58,8.2c-6.28,9.65-16.29,17.44-28.23,13-7.42-2.71-14.84-8.38-18.22-15.74a36.28,36.28,0,0,1-1.63-5.19"/><path class="cls-2" d="M210.15,319.28a31.09,31.09,0,0,1,5.85-.84,32.87,32.87,0,0,1,8,1.32c3.86,1.27,9.16,1.27,13.33,1.45a13.44,13.44,0,0,0,6.09-1.45,42.49,42.49,0,0,1,6.51-2.17c4.65-1.32,13.63-2.71,13.63-2.71"/><path class="cls-2" d="M210.15,330.08s1.15,6.27,15.5,13.15c8.39,4,17.32,1.93,23.35-.48,4.22-1.69,10.13-8.63,10.13-8.63l4.34-7.06"/></g><text class="cls-3" transform="translate(184.32 448.89)"><tspan xml:space="preserve">Happy                                        Sad</tspan></text></svg>