<svg id="图层_6" data-name="图层 6" xmlns="http://www.w3.org/2000/svg" viewBox="0 0 966 503"><defs><style>.cls-1,.cls-2,.cls-3{fill:none;stroke:#000;stroke-width:2.7px;}.cls-1,.cls-3{stroke-linecap:round;}.cls-1,.cls-2{stroke-miterlimit:10;}.cls-3{stroke-linejoin:round;}.cls-4{font-size:36px;fill:#3c29e6;font-family:Avenir-Medium, Avenir;}</style></defs><title>emotion01</title><g id="sad"><path id="nose" class="cls-1" d="M716.49,273.43s9-3.56,13.52-2.42,8.59,5.07,8.59,9.88a14.47,14.47,0,0,1-1.39,5.76,14.14,14.14,0,0,1-3.15,4.75c-3.77,3.5-10.08,3.33-14.52,1.33a15.89,15.89,0,0,1-7.85-7.8"/><g id="eyebrow"><path class="cls-1" d="M753.73,173.4c-1,7,.79,15.34,3.55,21.82,2.63,6.18,7.37,11.77,13.73,13.95,10,3.41,22.15-2.18,28-10.46"/><path class="cls-1" d="M753.73,173.4c3.63,8.81,11.78,14,19.54,18.85s16.51,8.62,25.75,6.46"/><g id="eyebrow-2" data-name="eyebrow"><path class="cls-1" d="M698,172.79c1,7-.79,15.35-3.54,21.82-2.64,6.19-7.38,11.78-13.74,14-10,3.4-22.15-2.18-28-10.46"/><path class="cls-1" d="M698,172.79c-3.63,8.82-11.78,14-19.54,18.85s-16.51,8.63-25.74,6.47"/></g></g><g id="eye2"><g id="eye2-2" data-name="eye2"><path class="cls-2" d="M648.06,262.51c3.45-.05,6.78,1.25,8.25,3.29,3,4.37-2.92,9.08-10.34,7.8-4.94-.82-7.64-3.93-6.29-7C640.71,264.28,644.15,262.53,648.06,262.51Z"/><path class="cls-2" d="M803.54,262.18c-3.45-.05-6.78,1.25-8.25,3.29-3,4.37,2.92,9.08,10.34,7.8,4.94-.82,7.64-3.93,6.28-7C810.89,264,807.45,262.2,803.54,262.18Z"/></g><g id="eye2-3" data-name="eye2"><path class="cls-1" d="M773.11,220.56a36.44,36.44,0,0,1,19.1,1.81,64.83,64.83,0,0,1,6.08,3.15"/><path class="cls-1" d="M748.3,247.28a51.19,51.19,0,0,1,2.28-5.56c5.6-10.25,18.19-18.66,33.52-17.45,18,1.43,19.31,18.78,18.64,31.46-.13,2.52-.39,6.06-6.48,9.5-1.66.94-4,.7-6,.61-5.47-.24-10.69-1.64-16-2.44s-10.54-1.45-15.73-2.62c-6.35-1.44-10.49-11-10.49-11"/><path class="cls-1" d="M750.7,241.76a47.75,47.75,0,0,1,5.2-5.83c9.27-7.82,25-11.8,35.8-2.12a30.05,30.05,0,0,1,6.95,10,24.24,24.24,0,0,1,2.65,8.92,11.18,11.18,0,0,1-3.24,8.64c-4.48,4.39-14.9,3.64-14.9,3.64"/><path class="cls-2" d="M777.23,247.89c-.17-.16-.54-.45-.54-.45s-.32.15-.49.21a5.47,5.47,0,0,1-4.71-.56l-.38-.26s-.27.13-.4.21a5.44,5.44,0,0,0-2.76,5.31,5.69,5.69,0,0,0,2,3.72l.52.38a7.43,7.43,0,0,1,1-.77,4.51,4.51,0,0,1,4.65.19c.19.13.55.43.55.43a8.91,8.91,0,0,0,.69-.6A5.39,5.39,0,0,0,777.23,247.89Z"/><path class="cls-3" d="M780.58,246.16a10.13,10.13,0,0,0-11.84-1.54,9.88,9.88,0,0,0-5,9.65,10.24,10.24,0,0,0,7.55,8.75c.26.07.77.17.77.17a6.08,6.08,0,0,1-.66-.46,3.86,3.86,0,0,1-1.32-2.48,3.73,3.73,0,0,1,1.88-3.63,3.82,3.82,0,0,1,4.45.58,3.68,3.68,0,0,1,.1,5.33,6.45,6.45,0,0,1-.84.65l.54-.12a9.92,9.92,0,0,0,4.63-2.7A9.79,9.79,0,0,0,780.58,246.16Z"/><path class="cls-1" d="M678.25,219.67a36.5,36.5,0,0,0-19.1,1.82,62.42,62.42,0,0,0-6.08,3.15"/><path class="cls-1" d="M703.06,246.4a51.19,51.19,0,0,0-2.28-5.56c-5.6-10.25-18.19-18.66-33.52-17.45-18,1.42-19.31,18.78-18.64,31.46.13,2.52.39,6,6.48,9.5,1.66.93,4,.7,6,.61,5.47-.24,10.69-1.64,16-2.44s10.54-1.45,15.73-2.63c6.35-1.43,10.49-11,10.49-11"/><path class="cls-1" d="M700.66,240.88a47.75,47.75,0,0,0-5.2-5.83c-9.27-7.82-25-11.8-35.8-2.13a30.19,30.19,0,0,0-6.95,10,24.24,24.24,0,0,0-2.65,8.92,11.18,11.18,0,0,0,3.24,8.64c4.48,4.39,14.9,3.64,14.9,3.64"/><path class="cls-2" d="M674.94,246.81c.17-.16.54-.45.54-.45a4.88,4.88,0,0,0,.49.2,5.43,5.43,0,0,0,4.71-.55l.38-.26s.27.13.4.21a5.45,5.45,0,0,1,2.76,5.31,5.61,5.61,0,0,1-2,3.71c-.16.14-.51.38-.51.38a7.28,7.28,0,0,0-1-.76,4.5,4.5,0,0,0-4.64.19c-.2.13-.55.43-.55.43s-.47-.38-.69-.6A5.39,5.39,0,0,1,674.94,246.81Z"/><path class="cls-3" d="M671.59,245.08a10.15,10.15,0,0,1,11.84-1.55,9.89,9.89,0,0,1,5,9.65,10.25,10.25,0,0,1-7.55,8.76l-.77.17a6.08,6.08,0,0,0,.66-.46,3.86,3.86,0,0,0,1.32-2.49,3.71,3.71,0,0,0-1.89-3.62,3.78,3.78,0,0,0-4.44.58,3.67,3.67,0,0,0-.1,5.33,6.45,6.45,0,0,0,.84.65L676,262a10,10,0,0,1-4.37-16.9Z"/></g></g><g id="mouth"><path class="cls-1" d="M699.91,334.16c4.29-12,24.11-13.86,34.52-12a42.4,42.4,0,0,1,23.76,13.31"/><path class="cls-1" d="M699.58,324.91c2.53,1,5.57-2.19,7.43-3.55s3.43-2.54,5.1-3.86c1.42-1.13,2.75-2.42,4.66-2.54,2.17-.14,4.35,1,6.46,1.55a10.21,10.21,0,0,0,3.57.18c1-.13,1.81-1,2.78-1.38a8.08,8.08,0,0,1,3.23-.69c2.71,0,5.68,2,8,3.35a50.85,50.85,0,0,1,7.78,5.58"/><path class="cls-1" d="M714,332.1c7.94-2.49,16.65-3.21,24.67-.68"/></g><g id="face"><path class="cls-2" d="M724.77,380.11s6.18.65,16.13-1.94c20.39-5.29,34.27-20.68,48.25-32.95A76.6,76.6,0,0,0,812.62,309c3-10.34,7.9-22.62,12.16-51,2-13.21,4.74-28.22,7.13-42.65"/><path class="cls-2" d="M724.86,380.11A39.44,39.44,0,0,1,709,377.53c-20.93-8-34.25-20.68-48.15-33a78.06,78.06,0,0,1-23.32-36.83c-3-10.34-7.85-22-12.08-50.41-2.1-14.09-3.15-20.88-5.63-36.19"/><g id="ear"><path class="cls-2" d="M829.69,229.2S850,205.59,852,206.83s13.77,14.85,11.92,23,0,11.46-3.81,17.35-18.38,22.22-22.58,32.25-19.63,9.41-19.63,9.41"/><path class="cls-2" d="M824.94,263.13s2.66-3.69,6.56-8.38c6.82-8.19,17.42-19.42,24.32-19.43"/><path class="cls-2" d="M831.19,254.87s17.41,16.07-10.2,24.48"/></g><g id="ear-2" data-name="ear"><path class="cls-2" d="M620.35,229.2S600.09,205.59,598,206.83s-13.78,14.85-11.92,23,0,11.46,3.81,17.35,18.37,22.22,22.58,32.25,19.62,9.41,19.62,9.41"/><path class="cls-2" d="M625.11,263.13s-2.66-3.69-6.57-8.38c-6.81-8.19-17.41-19.42-24.31-19.43"/><path class="cls-2" d="M618.86,254.87s-17.42,16.07,10.2,24.48"/></g><g id="hair"><path id="hair-2" data-name="hair" class="cls-2" d="M596.57,209.05s-22.18-49.56,17.31-104.26c0,0-8.9-5-26.71,12.86,0,0,14.84-28.68,50.45-27.7,0,0-17.81-10.88-42.53,6.93,0,0,83.57-94.91,182.47-36.56"/><path id="hair-3" data-name="hair" class="cls-2" d="M777.56,60.32s8.48-5.86-3.26-18.25c0,0,21.59,4.37,29.19,33.34,0,0,31.94-3.26,33.91,5.64,0,0-16.81-4-26.7,7.92,0,0,62.81-3.81,52,85.14,0,0,3-9.28-11.8-21.15,0,0,9.14,33.26,3.27,57.39"/><path id="hair-4" data-name="hair" class="cls-2" d="M620.7,223.4s6.11-61.3,21-77.45c0,0,.87,25.13,22,39.62,0,0,13-65.86,64.56-65.86,0,0-10.43,39.78-24.78,54.12,0,0,47.61-2,51.3-47.78,0,0,2.18,34.09,26.12,46,0,0-9.62-11.23,5.78-31.71,0,0,13.32,66.75,47.88,77.19"/></g></g></g><g id="happy"><path class="cls-3" d="M199.81,312.17c5.54,3.31,11,6.53,17.24,8.42a73.92,73.92,0,0,0,19.1,3A61.62,61.62,0,0,0,253.54,322c6.32-1.61,10.37-4.76,15.16-8.86a38.48,38.48,0,0,1-4.77,14.18c-7.6,12.74-23,20.56-37.64,16-13.11-4-25.67-17.07-26.48-31.17"/><path class="cls-3" d="M199.81,312.17c4.19-3.65,5-8.82,11.23-5.81,4.45,2.14,8.33,4.53,13.25,5.9,9.33,2.59,18.81,3.7,28-.5,2.52-1.15,6.3-4.64,9.12-5.22,1.78-.37,4.75,4.37,7.32,6.54"/><path class="cls-3" d="M215,337.5a38.84,38.84,0,0,1,40.69-.62"/><path id="nose-2" data-name="nose" class="cls-1" d="M227.41,273.07s8.64-3.43,13-2.33,8.28,4.88,8.28,9.51a13.93,13.93,0,0,1-1.34,5.55,13.64,13.64,0,0,1-3,4.58c-3.62,3.38-9.71,3.2-14,1.28a15.23,15.23,0,0,1-7.55-7.52"/><g id="eyebrow-3" data-name="eyebrow"><path class="cls-1" d="M316.14,206.48c-1.84-6.82-8.29-14.43-11.76-17.73-4.81-4.56-17.89-7.22-17.89-7.22s-19.16,10.65-21.2,20.43"/><path class="cls-1" d="M316.27,206.91c-13.18-10.26-36.54-15.68-51-4.95"/><g id="eyebrow-4" data-name="eyebrow"><path class="cls-1" d="M156.94,206.27c1.83-6.82,8.28-14.44,11.76-17.73,4.8-4.56,17.88-7.23,17.88-7.23s19.16,10.66,21.2,20.44"/><path class="cls-1" d="M156.8,206.7c13.18-10.27,36.54-15.68,51-4.95"/></g></g><g id="eye2-4" data-name="eye2"><path class="cls-1" d="M284.46,217.51a36.25,36.25,0,0,1,19.66,1.72,65,65,0,0,1,6.31,3.28"/><path class="cls-1" d="M259.45,246.27a54.78,54.78,0,0,1,2.25-6,35.54,35.54,0,0,1,34.12-19c18.56,1.31,20.18,19.78,19.73,33.3-.09,2.69-.3,6.45-6.49,10.19-1.68,1-4.08.79-6.18.72-5.63-.19-11-1.62-16.53-2.41s-10.86-1.42-16.21-2.62c-6.54-1.45-11-11.59-11-11.59"/><path class="cls-1" d="M261.82,240.36a50.57,50.57,0,0,1,5.24-6.27c9.38-8.44,25.47-12.87,36.75-2.68A32.37,32.37,0,0,1,311.13,242a26.61,26.61,0,0,1,2.88,9.47,12,12,0,0,1-3.16,9.24c-4.53,4.73-15.25,4.05-15.25,4.05"/><path class="cls-3" d="M299.83,247.33a11.46,11.46,0,0,0-8.77-10.28,11.21,11.21,0,0,0-11.53,4.3,11.59,11.59,0,0,0-.3,13.09c.16.25.52.73.52.73a8.74,8.74,0,0,1-.21-.89,4.39,4.39,0,0,1,.78-3.09,4.2,4.2,0,0,1,4.33-1.61,4.31,4.31,0,0,1,3.3,3.86,4.17,4.17,0,0,1-4,4.55,7.19,7.19,0,0,1-1.19-.09l.55.31a11.32,11.32,0,0,0,16.49-10.88Z"/><path class="cls-2" d="M286,243.1a7.63,7.63,0,1,0,1.69,15,7.43,7.43,0,0,0,5.47-9.34A7.76,7.76,0,0,0,286,243.1Z"/><path class="cls-1" d="M189.48,218.17a36.22,36.22,0,0,0-19.65,1.72,63.77,63.77,0,0,0-6.31,3.28"/><path class="cls-1" d="M214.49,246.93a54.78,54.78,0,0,0-2.25-6,35.54,35.54,0,0,0-34.12-19c-18.56,1.31-20.18,19.79-19.73,33.3.09,2.69.3,6.45,6.49,10.19,1.69,1,4.08.8,6.18.72,5.63-.19,11-1.61,16.53-2.41s10.86-1.42,16.21-2.61c6.55-1.46,11-11.6,11-11.6"/><path class="cls-1" d="M212.12,241a50.16,50.16,0,0,0-5.23-6.27c-9.39-8.44-25.48-12.86-36.75-2.68a32.25,32.25,0,0,0-7.33,10.58,26.61,26.61,0,0,0-2.88,9.47,12.06,12.06,0,0,0,3.17,9.24c4.53,4.73,15.24,4.05,15.24,4.05"/><path class="cls-3" d="M173.84,247.34a11.48,11.48,0,0,1,8.78-10.28,11.19,11.19,0,0,1,11.53,4.3,11.59,11.59,0,0,1,.3,13.09c-.17.25-.52.72-.52.72a8.33,8.33,0,0,0,.21-.88,4.38,4.38,0,0,0-.78-3.09,4.21,4.21,0,0,0-4.33-1.62,4.3,4.3,0,0,0-3.3,3.86,4.17,4.17,0,0,0,4,4.56,8.58,8.58,0,0,0,1.19-.09l-.55.31a11.3,11.3,0,0,1-5.94,1.24A11.09,11.09,0,0,1,173.84,247.34Z"/><path class="cls-2" d="M180.56,248.78a7.44,7.44,0,0,0,5.47,9.34,7.64,7.64,0,1,0,1.69-15A7.77,7.77,0,0,0,180.56,248.78Z"/></g><g id="face-2" data-name="face"><path class="cls-2" d="M235.58,379.51s6.19.65,16.14-1.94c20.39-5.3,34.26-20.68,48.24-33a76.56,76.56,0,0,0,23.48-36.18c3-10.34,7.9-22.62,12.15-51.06,2-13.2,4.74-28.21,7.13-42.65"/><path class="cls-2" d="M235.68,379.51a39.44,39.44,0,0,1-15.88-2.58c-20.94-8.06-34.26-20.68-48.16-33a78,78,0,0,1-23.31-36.84c-3-10.34-7.86-22-12.09-50.4-2.09-14.09-3.14-20.88-5.62-36.19"/><g id="ear-3" data-name="ear"><path class="cls-2" d="M340.51,228.59s20.26-23.6,22.31-22.37,13.78,14.85,11.92,23,0,11.46-3.81,17.36-18.37,22.22-22.57,32.24-19.63,9.41-19.63,9.41"/><path class="cls-2" d="M335.75,262.53s2.66-3.69,6.57-8.38c6.81-8.19,17.42-19.42,24.31-19.43"/><path class="cls-2" d="M342,254.27s17.42,16.06-10.2,24.48"/></g><g id="ear-4" data-name="ear"><path class="cls-2" d="M131.17,228.59s-20.26-23.6-22.31-22.37-13.78,14.85-11.93,23,0,11.46,3.81,17.36,18.38,22.22,22.58,32.24S143,288.24,143,288.24"/><path class="cls-2" d="M135.92,262.53s-2.66-3.69-6.56-8.38c-6.81-8.19-17.42-19.42-24.32-19.43"/><path class="cls-2" d="M129.67,254.27s-17.41,16.06,10.2,24.48"/></g><g id="hair-5" data-name="hair"><path id="hair-6" data-name="hair" class="cls-2" d="M107.38,208.45s-22.17-49.57,17.31-104.26c0,0-8.9-5-26.7,12.86,0,0,14.83-28.69,50.44-27.7,0,0-17.8-10.88-42.53,6.93,0,0,83.57-94.91,182.48-36.56"/><path id="hair-7" data-name="hair" class="cls-2" d="M288.38,59.72s8.47-5.87-3.26-18.25c0,0,21.58,4.37,29.18,33.34,0,0,31.94-3.26,33.92,5.64,0,0-16.82-4-26.71,7.91,0,0,62.82-3.8,52,85.15,0,0,3-9.28-11.79-21.15,0,0,9.13,33.26,3.26,57.39"/><path id="hair-8" data-name="hair" class="cls-2" d="M131.51,222.79s6.11-61.29,21-77.44c0,0,.87,25.13,22,39.62,0,0,13-65.87,64.57-65.87,0,0-10.44,39.78-24.79,54.13,0,0,47.61-2,51.3-47.78,0,0,2.18,34.09,26.12,46,0,0-9.62-11.23,5.79-31.71,0,0,13.31,66.75,47.88,77.18"/></g></g></g><text class="cls-4" transform="translate(184.32 448.89)"><tspan xml:space="preserve">Happy                                        Sad</tspan></text></svg>