<svg id="图层_7" data-name="图层 7" xmlns="http://www.w3.org/2000/svg" viewBox="0 0 966 503"><defs><style>.cls-1{fill:none;stroke:#000;stroke-miterlimit:10;stroke-width:2.7px;}.cls-2{font-size:36px;fill:#3c29e6;font-family:Avenir-Medium, Avenir;}</style></defs><title>emotion02</title><g id="angry"><g id="male1.4"><g id="eyebrow"><path class="cls-1" d="M260.18,217.46c8.29-2.8,9.92-16.75,15.18-22.42,5.54-5.95,17.92-9.39,26.62-8.75"/><path class="cls-1" d="M258.54,216.35c-2.33-11.32-4.14-23.23,6.95-30.7,5.66-3.8,12.73-5.08,19.5-4.56s19.55,5.55,19.55,5.55"/><path class="cls-1" d="M253.64,206.14a45.52,45.52,0,0,0,1.87,11.67"/><g id="eyebrow-2"><path class="cls-1" d="M214.47,217.46c-8.29-2.8-9.93-16.75-15.18-22.42-5.66-6.07-18.57-9.57-27.32-8.69"/><path class="cls-1" d="M215.81,217.81s5-24.4-6.66-32.16c-5.66-3.8-12.72-5.08-19.49-4.56s-19.56,5.55-19.56,5.55"/><path class="cls-1" d="M221,206.14a45.52,45.52,0,0,1-1.87,11.67"/></g></g></g><path id="nose" class="cls-1" d="M232.21,285.53a28.37,28.37,0,0,0-4.08-2.74,2.49,2.49,0,0,0-1.46-.29c-.82.17-1.29,1.05-1.64,1.8a36.72,36.72,0,0,0-2.1,6.89,3.19,3.19,0,0,0,.29,2.63c.82,1,5.78,1.28,7.07,1.23,2.62-.12,1.52.7,3.85,2s5.14,2.22,7.47,1c1-.52,1.81-1.46,2.86-1.92,1.46-.7,3.16-.47,4.79-.53s3.44-.58,4.09-2a5.08,5.08,0,0,0-.3-3.68,13.62,13.62,0,0,0-2-4.32,4.78,4.78,0,0,0-4.09-2.1c-1.63.12-3.15,3.21-3.15,3.21"/><g id="eye2"><path class="cls-1" d="M215.23,245.54s-2.34-12-11.45-18.8c-8.05-6.07-21.54-8.11-43.37,5.78-.64.41-3.68,2.46-3.68,2.46"/><path class="cls-1" d="M159.71,242.33s22.71-17.16,41-16c1.05,0,3,.35,3,.35"/><path class="cls-1" d="M214.64,268.78s-38.88,27.2-50.38-26.45l-.52-2.63"/><path class="cls-1" d="M261.34,245.6s2.34-12,11.45-18.8c8-6.07,21.42-8.11,43.14,5.67l3.85,2.56"/><path class="cls-1" d="M316.86,242.39s-22.71-17.16-41-16c-1.05.06-3,.35-3,.35"/><path class="cls-1" d="M261.93,268.83s38.88,27.21,50.38-26.44c.17-.88.52-2.63.52-2.63"/><path class="cls-1" d="M290,251a8,8,0,0,0-7-5.84h-.76s.41.82.59,1.29v.06c.06.46.17,1.34.17,1.34s.47.17.59.23A5,5,0,0,1,286,251a4.4,4.4,0,0,1-3,5.49c-.06,0-.11.06-.23.06a4.4,4.4,0,0,1-5.61-4.15v-.47a1.75,1.75,0,0,1-.4-.17,4.84,4.84,0,0,1-1.46-1c-.06-.06-.24-.29-.24-.29a.17.17,0,0,1-.06.11,7.83,7.83,0,0,0,9.4,9.87,7.61,7.61,0,0,0,5.67-9.23A.57.57,0,0,0,290,251Z"/><path class="cls-1" d="M203.9,251a7.85,7.85,0,0,0-6.89-5.78l-.87-.06s.46.88.64,1.35a9.77,9.77,0,0,1,.17,1.4s.59.23.7.29A4.74,4.74,0,0,1,200,251a4.41,4.41,0,0,1-3,5.49s-.11.06-.23.06a4.51,4.51,0,0,1-5.49-3.22,4,4,0,0,1-.11-1.16V252a3.58,3.58,0,0,0-.41-.12,4.84,4.84,0,0,1-1.46-1l-.29-.29a.19.19,0,0,1-.06.12,7.82,7.82,0,0,0,9.4,9.86,7.61,7.61,0,0,0,5.66-9.22C204,251.2,203.9,251.09,203.9,251Z"/></g><g id="male1.7"><path class="cls-1" d="M206.41,339.76c2.28-12.08,13.31-19.67,24.93-21.13,9.81-1.22,21.83-1.05,29.19,6.19,4.67,4.55,7.41,10.45,9.05,16.64a.71.71,0,0,1-.94.87c-18.39-5.49-42-13.25-59.89-3.21"/><path class="cls-1" d="M228.48,327a27.67,27.67,0,0,1,18.62,1.75"/><path class="cls-1" d="M225.91,342.57c5.72-2.28,14.42-.82,20.37.93"/><line class="cls-1" x1="204.37" y1="331.94" x2="209.39" y2="322.66"/><line class="cls-1" x1="269.23" y1="324.76" x2="273.66" y2="337.95"/></g><g id="face"><path class="cls-1" d="M237,380.11s6.18.65,16.13-1.94c20.39-5.29,34.27-20.68,48.24-32.95A76.63,76.63,0,0,0,324.81,309c3-10.34,7.9-22.62,12.15-51,2-13.21,4.74-28.22,7.13-42.65"/><path class="cls-1" d="M237.05,380.11a39.44,39.44,0,0,1-15.88-2.58c-20.94-8-34.25-20.68-48.15-33a78,78,0,0,1-23.32-36.83c-3-10.34-7.86-22-12.09-50.41-2.09-14.09-3.14-20.88-5.62-36.19"/><g id="ear"><path class="cls-1" d="M341.88,229.2s20.26-23.61,22.31-22.37,13.78,14.85,11.92,23,0,11.46-3.81,17.35-18.37,22.22-22.57,32.25-19.63,9.41-19.63,9.41"/><path class="cls-1" d="M337.12,263.13s2.66-3.69,6.57-8.38c6.81-8.19,17.42-19.42,24.31-19.43"/><path class="cls-1" d="M343.38,254.87s17.41,16.07-10.21,24.48"/></g><g id="ear-2" data-name="ear"><path class="cls-1" d="M132.54,229.2s-20.26-23.61-22.31-22.37-13.78,14.85-11.92,23,0,11.46,3.81,17.35,18.37,22.22,22.57,32.25,19.63,9.41,19.63,9.41"/><path class="cls-1" d="M137.3,263.13s-2.66-3.69-6.57-8.38c-6.81-8.19-17.42-19.42-24.31-19.43"/><path class="cls-1" d="M131,254.87s-17.41,16.07,10.21,24.48"/></g><g id="hair"><path id="hair-2" data-name="hair" class="cls-1" d="M108.75,209.05s-22.17-49.56,17.31-104.26c0,0-8.9-5-26.7,12.86,0,0,14.84-28.68,50.44-27.7,0,0-17.8-10.88-42.53,6.93,0,0,83.57-94.91,182.48-36.56"/><path id="hair-3" data-name="hair" class="cls-1" d="M289.75,60.32s8.47-5.86-3.26-18.25c0,0,21.58,4.37,29.18,33.34,0,0,31.94-3.26,33.92,5.64,0,0-16.81-4-26.7,7.92,0,0,62.81-3.81,52,85.14,0,0,3.05-9.28-11.79-21.15,0,0,9.13,33.26,3.26,57.39"/><path id="hair-4" data-name="hair" class="cls-1" d="M132.88,223.4s6.12-61.3,21-77.45c0,0,.87,25.13,22.05,39.62,0,0,13-65.86,64.56-65.86,0,0-10.44,39.78-24.78,54.12,0,0,47.6-2,51.29-47.78,0,0,2.18,34.09,26.12,46,0,0-9.62-11.23,5.79-31.71,0,0,13.31,66.75,47.88,77.19"/></g></g></g><g id="fearful"><g id="eyebrow-2-2" data-name="eyebrow"><path class="cls-1" d="M756.48,196.58a17.13,17.13,0,0,0,3.89,2.45c7,2.39,17.36-1.85,24-.9a25.7,25.7,0,0,1,12.27,5.81,54.31,54.31,0,0,1,9.22,9.27,57.42,57.42,0,0,1,3,5.21"/><path class="cls-1" d="M756.48,196.58s9-10.24,15.32-12.75c7.36-2.93,16.16-.72,22.39,4.19,6.88,5.5,10.71,13.52,12.92,22,.72,2.82,1.8,8.44,1.8,8.44"/><g id="eyebrow-2-3" data-name="eyebrow-2"><path class="cls-1" d="M693.34,197.24s-4.43,2.27-6.94,2.57c-5.69.66-11.07-1.14-16.7-1.26a23.12,23.12,0,0,0-14.78,4.61,61.58,61.58,0,0,0-10.59,10.05,48.52,48.52,0,0,0-3.42,5.75"/><path class="cls-1" d="M693.28,197.18s-7.78-8.86-12.75-11.68a21.36,21.36,0,0,0-18.61-.65c-10.53,4.43-16.58,15.08-19.39,26-.72,2.75-1.56,8.2-1.56,8.2"/></g></g><path id="nose-2" data-name="nose" class="cls-1" d="M719.14,285.75a30,30,0,0,0-4.19-2.81,2.61,2.61,0,0,0-1.5-.3c-.84.18-1.32,1.08-1.68,1.85a37.65,37.65,0,0,0-2.15,7.07,3.22,3.22,0,0,0,.3,2.69c.84,1,5.92,1.32,7.24,1.26,2.69-.12,1.56.71,4,2s5.27,2.28,7.66,1c1.08-.54,1.86-1.5,2.93-2,1.5-.71,3.24-.48,4.91-.53s3.53-.6,4.19-2.1a5.16,5.16,0,0,0-.3-3.77,14.32,14.32,0,0,0-2-4.43,4.91,4.91,0,0,0-4.19-2.15c-1.68.12-3.23,3.29-3.23,3.29"/><g id="eye_" data-name="eye "><path class="cls-1" d="M808.25,257.08s-13.53-29.62-32.14-35.55"/><path class="cls-1" d="M693,233.2s-2.27-2.45-3.53-3.53c-6-5.2-13.64-8.62-21.48-8-7.37.66-14.07,4.79-19.16,10.12-5.62,5.86-13.7,20.29-13.7,20.29"/><path class="cls-1" d="M641.33,257.32s7.9-14.36,13-20.7a51.92,51.92,0,0,1,14.9-12.87c1.38-.78,4.25-2,4.25-2"/><path class="cls-1" d="M703.87,254.45s-7.24,11.37-13.16,14.9c-6.23,3.71-14,5.51-21,3.47a38.05,38.05,0,0,1-11.07-5.44c-5.51-3.89-14.84-14.37-14.84-14.37"/><path class="cls-1" d="M677.6,237.93a10.16,10.16,0,0,0-9.51,5.81c-3.54,7.9,3.23,16.58,11.79,14.42a10,10,0,0,0,7.42-12c-.06-.18-.06-.36-.12-.54A10.63,10.63,0,0,0,677.6,237.93Z"/><path class="cls-1" d="M756.6,233s2-2.27,3.17-3.29c5.27-4.78,12.33-8.2,19.33-8.32,8.2-.12,16,4.31,21.67,10.18s13.7,20.35,13.7,20.35"/><path class="cls-1" d="M808.31,257.2s-7.72-14-12.69-20.23c-3.89-4.9-8.91-10-14.66-13.16-1.56-.84-4.85-2.1-4.85-2.1"/><path class="cls-1" d="M745.83,254.27s6.76,10.18,11.49,13.77c8.86,6.82,19.93,7.12,29.62,1.79,7.31-4,19-17,19-17"/><path class="cls-1" d="M762.53,245.47a10,10,0,0,0,6.82,12.45,1.41,1.41,0,0,0,.48.12c8.56,2.16,15.32-6.58,11.79-14.42a10.19,10.19,0,0,0-9.52-5.81A10.39,10.39,0,0,0,762.53,245.47Z"/><path class="cls-1" d="M766.78,246.73a5.64,5.64,0,0,0,3.83,7.06c.12.06.24.06.35.12a5.88,5.88,0,0,0,6.71-8.2,5.74,5.74,0,0,0-5.39-3.29A6,6,0,0,0,766.78,246.73Z"/><path class="cls-1" d="M671.74,246.73a5.64,5.64,0,0,0,3.83,7.06c.12.06.24.06.36.12a5.88,5.88,0,0,0,6.7-8.2,5.74,5.74,0,0,0-5.39-3.29A6,6,0,0,0,671.74,246.73Z"/></g><g id="mouth"><path class="cls-1" d="M703.34,323a7.7,7.7,0,0,1,.42-1c1.73-2.63,6.16-.78,8.37-.36,4.55.9,9.28.36,13.89-.48,5.5-1,11.37-2.51,16.58-.36,4.61,1.92,7.72,6.35,9.87,10.83a56.13,56.13,0,0,1,4.85,15.09c.12.83.18,1.91-.48,2.45a1.73,1.73,0,0,1-1.2.3c-1.61,0-3-.9-4.43-1.62-8.85-4.6-19.39-4.37-29.32-3.47-8.5.72-17.36,2-24.48,6.65-.6.35-1.44.71-1.85.18a1.8,1.8,0,0,1-.24-.6c-.78-4.79,1.25-9.46,2.87-13.83.84-2.33,1.79-4.67,2.69-7,.48-1.26.9-2.51,1.32-3.77.36-.84,1.2-3,1.14-3"/><path class="cls-1" d="M703.76,326.63s1.13.72,1.73,1a19.33,19.33,0,0,0,7.06,1.49c6.35.3,12.63-1,18.86-2,5.92-1,12.44-1.86,18.31.36a.85.85,0,0,0,.24.12"/><path class="cls-1" d="M708.84,344.88a16,16,0,0,1,.9-1.73,16.63,16.63,0,0,1,10.47-7.78c5.45-1.32,11.37.89,15.62,4.3a13.75,13.75,0,0,1,1.38,1.26,15.94,15.94,0,0,1,2,2.75"/></g><g id="face-2" data-name="face"><path class="cls-1" d="M724.9,381.13s6.19.64,16.14-1.94c20.39-5.3,34.26-20.68,48.24-33A76.63,76.63,0,0,0,812.76,310c3-10.34,7.9-22.62,12.15-51.05,2-13.2,4.74-28.22,7.13-42.65"/><path class="cls-1" d="M725,381.13a39.56,39.56,0,0,1-15.88-2.59c-20.94-8.05-34.26-20.68-48.16-33a77.9,77.9,0,0,1-23.31-36.83c-3-10.34-7.86-22-12.09-50.41-2.1-14.09-3.14-20.88-5.62-36.18"/><g id="ear-3" data-name="ear"><path class="cls-1" d="M829.83,230.21s20.26-23.61,22.31-22.37,13.78,14.85,11.92,23,0,11.46-3.81,17.35-18.37,22.23-22.58,32.25-19.62,9.41-19.62,9.41"/><path class="cls-1" d="M825.07,264.14s2.66-3.69,6.57-8.38c6.81-8.18,17.41-19.42,24.31-19.43"/><path class="cls-1" d="M831.32,255.88s17.42,16.07-10.2,24.48"/></g><g id="ear-4" data-name="ear"><path class="cls-1" d="M620.49,230.21s-20.26-23.61-22.32-22.37-13.77,14.85-11.92,23,0,11.46,3.81,17.35,18.38,22.23,22.58,32.25,19.63,9.41,19.63,9.41"/><path class="cls-1" d="M625.24,264.14s-2.66-3.69-6.56-8.38c-6.82-8.18-17.42-19.42-24.32-19.43"/><path class="cls-1" d="M619,255.88s-17.41,16.07,10.2,24.48"/></g><g id="hair-5" data-name="hair"><path id="hair-6" data-name="hair" class="cls-1" d="M596.7,210.06S574.53,160.5,614,105.8c0,0-8.9-4.94-26.7,12.86,0,0,14.83-28.68,50.44-27.69,0,0-17.8-10.88-42.53,6.92,0,0,83.57-94.91,182.48-36.55"/><path id="hair-7" data-name="hair" class="cls-1" d="M777.7,61.34s8.47-5.87-3.26-18.26c0,0,21.58,4.38,29.18,33.34,0,0,31.94-3.26,33.92,5.65,0,0-16.82-4-26.71,7.91,0,0,62.82-3.81,52,85.15,0,0,3-9.28-11.79-21.15,0,0,9.13,33.26,3.26,57.39"/><path id="hair-8" data-name="hair" class="cls-1" d="M620.83,224.41s6.11-61.3,21-77.44c0,0,.87,25.12,22,39.62,0,0,13-65.87,64.56-65.87,0,0-10.43,39.78-24.78,54.13,0,0,47.61-2,51.3-47.79,0,0,2.18,34.09,26.12,46,0,0-9.62-11.24,5.79-31.72,0,0,13.31,66.76,47.87,77.19"/></g></g></g><text class="cls-2" transform="translate(184.32 448.89)"><tspan xml:space="preserve">Angry                                       Fearful</tspan></text></svg>