<svg id="图层_7" data-name="图层 7" xmlns="http://www.w3.org/2000/svg" viewBox="0 0 966 503"><defs><style>.cls-1,.cls-2,.cls-3{fill:none;stroke:#000;stroke-width:2.7px;}.cls-1,.cls-3{stroke-linecap:round;}.cls-1,.cls-2{stroke-miterlimit:10;}.cls-3{stroke-linejoin:round;}.cls-4{font-size:36px;fill:#3c29e6;font-family:Avenir-Medium, Avenir;}</style></defs><title>emotion02</title><g id="angry"><path id="nose" class="cls-1" d="M228.4,273.52s9-3.56,13.51-2.42,8.6,5.08,8.59,9.88a14.63,14.63,0,0,1-1.38,5.76,14,14,0,0,1-3.15,4.75c-3.77,3.51-10.09,3.33-14.53,1.33a15.83,15.83,0,0,1-7.84-7.8"/><g id="eyebrow"><path class="cls-1" d="M307,188.82c-5.41-4.53-13.49-7.36-20.45-8.4-6.65-1-13.9.11-19.08,4.39-8.11,6.69-9.74,20-5.75,29.34"/><path class="cls-1" d="M307,188.54c-8.8.77-17.6,2.62-25.56,6.47s-16.91,10.51-19.78,19.14"/><path class="cls-1" d="M255.38,205.37s.19,10,3.05,11.85"/><g id="eyebrow-2" data-name="eyebrow"><path class="cls-1" d="M170.3,188.82c5.41-4.53,13.49-7.36,20.45-8.4,6.65-1,13.9.11,19.08,4.39,8.11,6.69,9.74,20,5.75,29.34"/><path class="cls-1" d="M170.24,188.54c8.8.77,17.6,2.62,25.56,6.47s16.91,10.51,19.78,19.14"/><path class="cls-1" d="M221.89,205.37s-.19,10-3,11.85"/></g></g><g id="eye2"><path class="cls-2" d="M289.71,246.49a4.81,4.81,0,0,0-3.62,3.86,4.89,4.89,0,0,0,7.22,5.11,4.77,4.77,0,0,0,1.75-6.69A4.92,4.92,0,0,0,289.71,246.49Z"/><g id="eye2-2" data-name="eye2"><path class="cls-1" d="M266,233.7A29,29,0,0,1,277.23,218a59.43,59.43,0,0,1,6.45-3.43"/><path class="cls-1" d="M266.76,261.15s-.85-4.9-.94-7.42c-.49-14.28,6.35-29.38,20.91-34.49,17.13-6,27.71,13.6,34,28.59,1.25,3,2.93,7.19-.72,13.78-1,1.79-3.24,2.5-5.14,3.26-5.09,2.05-10.58,2.65-15.86,4s-10.35,2.79-15.7,3.63c-6.53,1-15.49-8.31-15.49-8.31"/><path class="cls-1" d="M265.94,253.72a59.9,59.9,0,0,1,1.55-9c4.15-13,16.26-24.32,31.31-17.67,4.48,2,8.27,5.21,11.74,8.66a37.53,37.53,0,0,1,7.25,9.22,16.71,16.71,0,0,1,1.76,11.4c-1.68,7-11.53,10.55-11.53,10.55"/><path class="cls-3" d="M289.7,261.42l.58.05a10.45,10.45,0,0,0,5.46-1.21A10.23,10.23,0,0,0,300,246.05a10.57,10.57,0,0,0-11.28-5.31,10.34,10.34,0,0,0-8.07,8,10.72,10.72,0,0,0,4.72,11.12l.71.41"/><path class="cls-1" d="M209.4,233.93a29,29,0,0,0-11.18-15.69,60.4,60.4,0,0,0-6.45-3.43"/></g><g id="eye2-3" data-name="eye2"><path class="cls-2" d="M185.56,246.82a4.78,4.78,0,0,1,3.62,3.86,4.89,4.89,0,0,1-7.21,5.11,4.77,4.77,0,0,1-1.75-6.69A4.92,4.92,0,0,1,185.56,246.82Z"/><g id="eye2-4" data-name="eye2"><path class="cls-1" d="M208.51,261.7s.86-4.9,1-7.42c.49-14.27-6.35-29.37-20.91-34.48-17.13-6-27.72,13.59-34,28.59-1.25,3-2.93,7.19.72,13.77,1,1.79,3.23,2.51,5.13,3.27,5.09,2,10.59,2.64,15.87,4s10.35,2.8,15.7,3.64c6.53,1,15.49-8.32,15.49-8.32"/><path class="cls-1" d="M209.33,254.28a59.69,59.69,0,0,0-1.54-9c-4.16-13-16.26-24.31-31.32-17.67-4.47,2-8.27,5.22-11.74,8.66a38,38,0,0,0-7.24,9.23,16.69,16.69,0,0,0-1.76,11.39c1.68,7,11.53,10.56,11.53,10.56"/><path class="cls-3" d="M175.25,246.61a10.6,10.6,0,0,1,11.29-5.32,10.35,10.35,0,0,1,8.06,8,10.68,10.68,0,0,1-4.72,11.12c-.23.15-.7.42-.7.42l-3.6,1.14-.58,0a10.45,10.45,0,0,1-9.75-15.41Z"/></g></g></g><path class="cls-1" d="M207.66,340.36c6.69-9.75,19.82-11.08,30.68-9.94a52.88,52.88,0,0,1,30.51,13.68"/><path class="cls-1" d="M229.9,325.82A58.41,58.41,0,0,1,249,327"/><path class="cls-3" d="M207.66,340.36c6.55-9.2,18.15-25.74,29.14-21.14a23.17,23.17,0,0,0,3.69,1.53c2,.45,4.16-.23,6.24-.54,8.55-1.29,19.34,15.16,22.12,23.89"/><path class="cls-1" d="M202.18,339.43s1.93,6.23,5.48,6.45"/><path class="cls-1" d="M265.79,345s5.38,7.3,6.24-2.37"/><g id="face"><path class="cls-2" d="M237,380.11s6.18.65,16.13-1.94c20.39-5.29,34.27-20.68,48.24-32.95A76.63,76.63,0,0,0,324.81,309c3-10.34,7.9-22.62,12.15-51,2-13.21,4.74-28.22,7.13-42.65"/><path class="cls-2" d="M237.05,380.11a39.44,39.44,0,0,1-15.88-2.58c-20.94-8-34.25-20.68-48.15-33a78,78,0,0,1-23.32-36.83c-3-10.34-7.86-22-12.09-50.41-2.09-14.09-3.14-20.88-5.62-36.19"/><g id="ear"><path class="cls-2" d="M341.88,229.2s20.26-23.61,22.31-22.37,13.78,14.85,11.92,23,0,11.46-3.81,17.35-18.37,22.22-22.57,32.25-19.63,9.41-19.63,9.41"/><path class="cls-2" d="M337.12,263.13s2.66-3.69,6.57-8.38c6.81-8.19,17.42-19.42,24.31-19.43"/><path class="cls-2" d="M343.38,254.87s17.41,16.07-10.21,24.48"/></g><g id="ear-2" data-name="ear"><path class="cls-2" d="M132.54,229.2s-20.26-23.61-22.31-22.37-13.78,14.85-11.92,23,0,11.46,3.81,17.35,18.37,22.22,22.57,32.25,19.63,9.41,19.63,9.41"/><path class="cls-2" d="M137.3,263.13s-2.66-3.69-6.57-8.38c-6.81-8.19-17.42-19.42-24.31-19.43"/><path class="cls-2" d="M131,254.87s-17.41,16.07,10.21,24.48"/></g><g id="hair"><path id="hair-2" data-name="hair" class="cls-2" d="M108.75,209.05s-22.17-49.56,17.31-104.26c0,0-8.9-5-26.7,12.86,0,0,14.84-28.68,50.44-27.7,0,0-17.8-10.88-42.53,6.93,0,0,83.57-94.91,182.48-36.56"/><path id="hair-3" data-name="hair" class="cls-2" d="M289.75,60.32s8.47-5.86-3.26-18.25c0,0,21.58,4.37,29.18,33.34,0,0,31.94-3.26,33.92,5.64,0,0-16.81-4-26.7,7.92,0,0,62.81-3.81,52,85.14,0,0,3.05-9.28-11.79-21.15,0,0,9.13,33.26,3.26,57.39"/><path id="hair-4" data-name="hair" class="cls-2" d="M132.88,223.4s6.12-61.3,21-77.45c0,0,.87,25.13,22.05,39.62,0,0,13-65.86,64.56-65.86,0,0-10.44,39.78-24.78,54.12,0,0,47.6-2,51.29-47.78,0,0,2.18,34.09,26.12,46,0,0-9.62-11.23,5.79-31.71,0,0,13.31,66.75,47.88,77.19"/></g></g></g><g id="fearful"><path class="cls-1" d="M694.84,338.24c.08-8.63,6.06-17.56,12.9-22.38a7.07,7.07,0,0,1,4-1.61,10,10,0,0,1,3.77,1.22,19.47,19.47,0,0,0,13.41.73c3.13-1,6.21-2.77,9.45-2.3s5.86,3.24,7.88,6c3.5,4.71,8.26,11.15,9.42,17-4.34-.73-8.58-2.4-13-3.14a89.87,89.87,0,0,0-13.5-1.24A88.87,88.87,0,0,0,711.42,334c-5.4,1-11.52,2.09-16.58,4.27"/><path class="cls-1" d="M704.93,318.05c6.3,1.6,16.14,6,22.7,4.92,6.14-1,11.52-4.91,17.87-4.15"/><path id="nose-2" data-name="nose" class="cls-1" d="M716.62,274.44s9-3.56,13.52-2.42,8.6,5.08,8.59,9.88a14.47,14.47,0,0,1-1.39,5.76,13.9,13.9,0,0,1-3.15,4.75c-3.76,3.51-10.08,3.33-14.52,1.33a15.85,15.85,0,0,1-7.85-7.8"/><g id="eyebrow-3" data-name="eyebrow"><path class="cls-1" d="M802.11,211.07c-.54-5.54-.93-10.77-4.32-15.47-8.59-11.94-23.39-7.72-35.72-10.86-5.31-1.34-9.74-5.32-14.43-8"/><path class="cls-1" d="M802.07,211.14c-2.82-2.12-4-5.29-6.9-7.36-3.34-2.42-7.45-3.56-11.44-4.33-7.41-1.42-15.64-2-22.17-6.11-6.13-3.85-10.84-10.28-14.26-16.5"/><g id="eyebrow-4" data-name="eyebrow"><path class="cls-1" d="M649.16,211c.54-5.54.94-10.76,4.32-15.46,8.6-11.95,23.39-7.73,35.72-10.86,5.31-1.35,9.74-5.33,14.44-8"/><path class="cls-1" d="M649.2,211.11c2.83-2.13,4-5.3,6.9-7.37,3.34-2.42,7.45-3.55,11.45-4.32,7.41-1.43,15.63-2,22.16-6.11,6.13-3.86,10.85-10.29,14.26-16.5"/></g></g><g id="eye2-5" data-name="eye2"><path class="cls-1" d="M749.37,248.79c4.33-15.87,19.32-30.38,37.27-27.66s18.12,25,16.64,41.18c-.29,3.22-.78,7.73-7.09,11.84-1.71,1.11-4,.69-6.06.48-5.46-.59-10.59-2.63-15.89-3.92s-10.45-2.38-15.57-4.15a14.67,14.67,0,0,1-9.79-14.6"/><path class="cls-2" d="M783.22,233.38a15.58,15.58,0,0,0-16.38,5c-8.32,10.34-1.6,25.89,11.92,26a15.41,15.41,0,0,0,15.72-15.87A16,16,0,0,0,783.22,233.38Z"/><path class="cls-2" d="M780.21,244.87a4,4,0,0,0-4.2,1.27,4.05,4.05,0,0,0,3,6.66,3.94,3.94,0,0,0,4-4.07A4.07,4.07,0,0,0,780.21,244.87Z"/><path class="cls-2" d="M677.65,233.19a15.58,15.58,0,0,0-16.38,4.95c-8.32,10.35-1.6,25.89,11.92,26a15.41,15.41,0,0,0,15.72-15.87A16,16,0,0,0,677.65,233.19Z"/><path class="cls-2" d="M674,245.29a4,4,0,0,0-4.2,1.27,4,4,0,0,0,3,6.65,4,4,0,0,0,4-4.07A4.08,4.08,0,0,0,674,245.29Z"/><path class="cls-1" d="M701.94,250c-4.33-15.87-19.32-30.38-37.27-27.66s-18.12,25-16.64,41.19c.29,3.22.78,7.73,7.09,11.83,1.71,1.12,4,.7,6.06.48,5.46-.58,10.59-2.62,15.89-3.92s10.45-2.38,15.57-4.14a14.69,14.69,0,0,0,9.79-14.61"/><path class="cls-3" d="M648,243.33s6.93-19.72,21.72-21.32"/><path class="cls-3" d="M803.32,242s-6.93-19.72-21.72-21.32"/></g><g id="face-2" data-name="face"><path class="cls-2" d="M724.9,381.13s6.19.64,16.14-1.94c20.39-5.3,34.26-20.68,48.24-33A76.63,76.63,0,0,0,812.76,310c3-10.34,7.9-22.62,12.15-51.05,2-13.2,4.74-28.22,7.13-42.65"/><path class="cls-2" d="M725,381.13a39.56,39.56,0,0,1-15.88-2.59c-20.94-8.05-34.26-20.68-48.16-33a77.9,77.9,0,0,1-23.31-36.83c-3-10.34-7.86-22-12.09-50.41-2.1-14.09-3.14-20.88-5.62-36.18"/><g id="ear-3" data-name="ear"><path class="cls-2" d="M829.83,230.21s20.26-23.61,22.31-22.37,13.78,14.85,11.92,23,0,11.46-3.81,17.35-18.37,22.23-22.58,32.25-19.62,9.41-19.62,9.41"/><path class="cls-2" d="M825.07,264.14s2.66-3.69,6.57-8.38c6.81-8.18,17.41-19.42,24.31-19.43"/><path class="cls-2" d="M831.32,255.88s17.42,16.07-10.2,24.48"/></g><g id="ear-4" data-name="ear"><path class="cls-2" d="M620.49,230.21s-20.26-23.61-22.32-22.37-13.77,14.85-11.92,23,0,11.46,3.81,17.35,18.38,22.23,22.58,32.25,19.63,9.41,19.63,9.41"/><path class="cls-2" d="M625.24,264.14s-2.66-3.69-6.56-8.38c-6.82-8.18-17.42-19.42-24.32-19.43"/><path class="cls-2" d="M619,255.88s-17.41,16.07,10.2,24.48"/></g><g id="hair-5" data-name="hair"><path id="hair-6" data-name="hair" class="cls-2" d="M596.7,210.06S574.53,160.5,614,105.8c0,0-8.9-4.94-26.7,12.86,0,0,14.83-28.68,50.44-27.69,0,0-17.8-10.88-42.53,6.92,0,0,83.57-94.91,182.48-36.55"/><path id="hair-7" data-name="hair" class="cls-2" d="M777.7,61.34s8.47-5.87-3.26-18.26c0,0,21.58,4.38,29.18,33.34,0,0,31.94-3.26,33.92,5.65,0,0-16.82-4-26.71,7.91,0,0,62.82-3.81,52,85.15,0,0,3-9.28-11.79-21.15,0,0,9.13,33.26,3.26,57.39"/><path id="hair-8" data-name="hair" class="cls-2" d="M620.83,224.41s6.11-61.3,21-77.44c0,0,.87,25.12,22,39.62,0,0,13-65.87,64.56-65.87,0,0-10.43,39.78-24.78,54.13,0,0,47.61-2,51.3-47.79,0,0,2.18,34.09,26.12,46,0,0-9.62-11.24,5.79-31.72,0,0,13.31,66.76,47.87,77.19"/></g></g></g><text class="cls-4" transform="translate(184.32 448.89)"><tspan xml:space="preserve">Angry                                       Fearful</tspan></text></svg>