<svg id="图层_5" data-name="图层 5" xmlns="http://www.w3.org/2000/svg" viewBox="0 0 966 503"><defs><style>.cls-1{fill:none;stroke:#000;stroke-miterlimit:10;stroke-width:2.7px;}.cls-2{font-size:36px;fill:#3c29e6;font-family:Avenir-Medium, Avenir;}</style></defs><title>emotion03</title><g id="disgust"><path class="cls-1" d="M724.29,381.73s6.18.64,16.13-1.94c20.39-5.3,34.27-20.68,48.25-33a76.6,76.6,0,0,0,23.47-36.19c3-10.34,7.9-22.61,12.16-51.05,2-13.2,4.73-28.22,7.13-42.65"/><path class="cls-1" d="M724.38,381.73a39.56,39.56,0,0,1-15.88-2.59c-20.94-8.05-34.25-20.68-48.15-32.95A78,78,0,0,1,637,309.35c-3-10.34-7.85-22-12.08-50.4-2.1-14.1-3.15-20.88-5.63-36.19"/><g id="ear"><path class="cls-1" d="M829.21,230.81s20.26-23.6,22.31-22.37,13.78,14.85,11.93,23,0,11.46-3.82,17.35S841.26,271,837.06,281.05s-19.63,9.41-19.63,9.41"/><path class="cls-1" d="M824.45,264.75s2.66-3.69,6.57-8.39c6.81-8.18,17.42-19.41,24.31-19.42"/><path class="cls-1" d="M830.71,256.49s17.41,16.06-10.2,24.47"/></g><g id="ear-2" data-name="ear"><path class="cls-1" d="M619.87,230.81s-20.26-23.6-22.31-22.37-13.78,14.85-11.92,23,0,11.46,3.81,17.35S607.82,271,612,281.05s19.63,9.41,19.63,9.41"/><path class="cls-1" d="M624.63,264.75s-2.66-3.69-6.57-8.39c-6.81-8.18-17.42-19.41-24.31-19.42"/><path class="cls-1" d="M618.38,256.49S601,272.55,628.58,281"/></g><g id="hair"><path id="hair-2" data-name="hair" class="cls-1" d="M596.09,210.67S573.91,161.1,613.4,106.41c0,0-8.9-5-26.71,12.85,0,0,14.84-28.68,50.44-27.69,0,0-17.8-10.88-42.52,6.92,0,0,83.57-94.9,182.47-36.55"/><path id="hair-3" data-name="hair" class="cls-1" d="M777.08,61.94s8.48-5.87-3.26-18.26c0,0,21.59,4.38,29.18,33.34,0,0,31.94-3.25,33.92,5.65,0,0-16.81-4-26.7,7.91,0,0,62.81-3.8,52,85.15,0,0,3-9.28-11.79-21.15,0,0,9.13,33.26,3.26,57.39"/><path id="hair-4" data-name="hair" class="cls-1" d="M620.22,225s6.11-61.3,21-77.44c0,0,.88,25.12,22,39.62,0,0,13-65.87,64.56-65.87,0,0-10.43,39.78-24.78,54.13,0,0,47.61-2,51.3-47.78,0,0,2.17,34.08,26.12,46,0,0-9.62-11.23,5.78-31.71,0,0,13.32,66.75,47.88,77.18"/></g></g><g id="surprised"><g id="face"><path class="cls-1" d="M236.69,381.13s6.19.64,16.13-1.94c20.4-5.3,34.27-20.68,48.25-33A76.6,76.6,0,0,0,324.54,310c3-10.34,7.91-22.62,12.16-51.05,2-13.2,4.74-28.22,7.13-42.65"/><path class="cls-1" d="M236.78,381.13a39.58,39.58,0,0,1-15.88-2.59c-20.93-8.05-34.25-20.68-48.15-33a77.9,77.9,0,0,1-23.31-36.83c-3-10.34-7.86-22-12.09-50.41-2.1-14.09-3.14-20.88-5.62-36.18"/><g id="ear-3" data-name="ear"><path class="cls-1" d="M341.62,230.21s20.25-23.61,22.31-22.37,13.78,14.85,11.92,23,0,11.46-3.81,17.35-18.37,22.23-22.58,32.25-19.62,9.41-19.62,9.41"/><path class="cls-1" d="M336.86,264.14s2.66-3.69,6.56-8.38c6.82-8.18,17.42-19.42,24.32-19.43"/><path class="cls-1" d="M343.11,255.88s17.42,16.07-10.2,24.48"/></g><g id="ear-4" data-name="ear"><path class="cls-1" d="M132.27,230.21S112,206.6,110,207.84s-13.78,14.85-11.92,23,0,11.46,3.81,17.35,18.37,22.23,22.58,32.25,19.62,9.41,19.62,9.41"/><path class="cls-1" d="M137,264.14s-2.66-3.69-6.56-8.38c-6.82-8.18-17.42-19.42-24.32-19.43"/><path class="cls-1" d="M130.78,255.88S113.36,272,141,280.36"/></g><g id="hair-5" data-name="hair"><path id="hair-6" data-name="hair" class="cls-1" d="M108.49,210.06S86.32,160.5,125.8,105.8c0,0-8.9-4.94-26.7,12.86,0,0,14.83-28.68,50.44-27.69,0,0-17.81-10.88-42.53,6.92,0,0,83.57-94.91,182.48-36.55"/><path id="hair-7" data-name="hair" class="cls-1" d="M289.49,61.34s8.47-5.87-3.26-18.26c0,0,21.58,4.38,29.18,33.34,0,0,31.94-3.26,33.92,5.65,0,0-16.82-4-26.71,7.91,0,0,62.82-3.81,52,85.15,0,0,3-9.28-11.79-21.15,0,0,9.13,33.26,3.26,57.39"/><path id="hair-8" data-name="hair" class="cls-1" d="M132.62,224.41s6.11-61.3,21-77.44c0,0,.87,25.12,22,39.62,0,0,13-65.87,64.56-65.87,0,0-10.43,39.78-24.78,54.13,0,0,47.61-2,51.3-47.79,0,0,2.18,34.09,26.12,46,0,0-9.62-11.24,5.79-31.72,0,0,13.31,66.76,47.87,77.19"/></g></g></g><text class="cls-2" transform="translate(168.32 448.89)"><tspan xml:space="preserve">Suprised                                 Disgusted</tspan></text><g id="brow"><g id="eyebrow"><path class="cls-1" d="M748.35,227.33s1.86.44,2.79.56c4,.06,9.43-2,12.16-3.91a69,69,0,0,1,9.55-5.33,17.85,17.85,0,0,1,6.64-2,21.07,21.07,0,0,1,5.58.74c5.21,1.18,12.22,3.41,17.49,6.57,1.62,1.06,4.59,3.48,4.59,3.48"/><path class="cls-1" d="M748.35,227.33l3.85-9.18s1.67-3.84,2.73-5.64c3.91-6.08,11.29-9.43,18.54-9.43s14.21,3.16,19.85,7.75,13.77,16.63,13.77,16.63"/></g><path class="cls-1" d="M703.76,215.86c-.5-.19-1.31,3.1-4.59,4.53a8.59,8.59,0,0,1-5.83.24c-4-1.42-3.66-5.45-7.76-9.92a21.42,21.42,0,0,0-10.23-6c-7-1.8-12.84.62-15.51,1.67-5.33,2.17-8.37,5.21-13.83,10.67-1.3,1.36-8.19,8.25-7.26,9.43.69.87,5-2.48,13.84-5.71,6.94-2.54,10.42-3.84,14.45-3.16,5,.8,5.46,3.47,14.51,8.87,7.69,4.65,11.6,6.94,15.26,5.64C703.63,229.75,704.63,216.23,703.76,215.86Z"/></g><g id="nose"><path id="nose-2" class="cls-1" d="M720.19,290.91a44.34,44.34,0,0,0-3.9-3.41,3.11,3.11,0,0,0-1.49-.56c-.93.06-1.49.87-2,1.68a37,37,0,0,0-3.16,6.94,3.36,3.36,0,0,0-.06,2.79c.74,1.12,5.95,2.17,7.25,2.3,2.8.25,1.49,1,3.79,2.6s5.08,3,7.75,2.11c1.18-.43,2.11-1.24,3.29-1.61,1.61-.5,3.41-.06,5.08.12s3.73-.12,4.66-1.55a5.59,5.59,0,0,0,.24-3.9,14.46,14.46,0,0,0-1.42-4.84,5,5,0,0,0-4-2.79c-1.68-.07-3.78,2.91-3.78,2.91"/><path class="cls-1" d="M720.5,283.22a17,17,0,0,1,2.8-2.05,11.48,11.48,0,0,1,3.47-1.05,18.05,18.05,0,0,1,3.66.31"/><path class="cls-1" d="M719,279.19a12.72,12.72,0,0,1,2.17-3.72c1.31-1.06,4.66-1.55,4.66-1.55"/></g><g id="eye"><g id="eye2"><path class="cls-1" d="M749.9,275.65s41.31,28.91,53.53-28.1c.19-.93.56-2.79.56-2.79"/><path class="cls-1" d="M766.16,256.05a8.45,8.45,0,0,0-6.64-6.08c-.37-.06-1.12-.12-1.12-.12h-.49s.43.87.62,1.36c0,.07.06.13.06.19.06.5.18,1.36.18,1.36l.31.13s2.49,1.74,2.92,3.22a4.68,4.68,0,0,1-3.23,5.83c-.06,0-.12.07-.24.07a4.78,4.78,0,0,1-5.83-3.42,3.81,3.81,0,0,1-.13-1.24v-.24l-.18-.07-1.93-1.24-.18-.18-.07.12s-.12.44-.18.68a8.33,8.33,0,0,0,10.11,9.87,8.18,8.18,0,0,0,6.08-9.8A1.12,1.12,0,0,0,766.16,256.05Z"/><path class="cls-1" d="M755.05,249.85a3.59,3.59,0,0,0-1.67,6.82,3.6,3.6,0,0,0,2.42.25,3.53,3.53,0,0,0,2.6-4.22.22.22,0,0,0-.06-.18A3.58,3.58,0,0,0,755.05,249.85Z"/><path class="cls-1" d="M667.47,252.45a8.41,8.41,0,0,0-6.64-6.07c-.37-.07-1.11-.13-1.11-.13h-.5s.44.87.62,1.37c0,.06,0,.06.06.12.07.5.19,1.43.19,1.43l.31.12s2.48,1.74,2.92,3.23a4.7,4.7,0,0,1-3.17,5.83c-.06,0-.18.06-.25.06a4.79,4.79,0,0,1-5.83-3.41,6.24,6.24,0,0,1-.12-1.24v-.25l-.19-.06-1.92-1.24-.19-.19a.19.19,0,0,1-.06.12,8.32,8.32,0,0,0,10,10.49,8.1,8.1,0,0,0,6-9.8A.82.82,0,0,1,667.47,252.45Z"/><path class="cls-1" d="M656.37,246.25a3.6,3.6,0,1,0,3.35,2.85.22.22,0,0,0-.06-.18A3.51,3.51,0,0,0,656.37,246.25Z"/><path class="cls-1" d="M697.06,276.4s-41.31,28.9-53.53-28.1l-.56-2.79h0a72.59,72.59,0,0,1,9.74-4.16c4.71-1.24,8.43-1.24,13.64-1.24,4.84,0,14.33,1.18,14.33,1.18"/><path class="cls-1" d="M763.49,238.06s10.17-.49,13.64-.43a88.71,88.71,0,0,1,15.7,1.24c3.35.62,9.92,2.48,9.92,2.48"/></g><path class="cls-1" d="M638.69,242.22s9.37-5,14.64-5.21,10.54.68,15.69,1.61c5.46,1,11,2,16.07,4.34s11.35,11.6,11.35,11.6"/><path class="cls-1" d="M744.51,248.36s8.87-6.51,13.89-8.68a63.61,63.61,0,0,1,14.7-4.16A109.69,109.69,0,0,1,793,233.85c5.71-.07,13.9.43,13.9.43"/></g><g id="mouth"><g id="mouth-2"><path class="cls-1" d="M695,327.63l3.1,1.24c10.54,3.85,22.83,5.77,33.93,7l5,.56"/></g><path class="cls-1" d="M694.51,320.81s6-1,8.94.12c3.72,1.37,6.08,4.47,9.49,6.2a12.6,12.6,0,0,0,2.6.69c4,.86,8.07.18,12.1,1.24,4.34,1.18,10.85,7.44,10.85,7.44"/><path class="cls-1" d="M690.73,315.16s-2.67,1.68-3.41,3.1c-.87,1.74-.31,5.59-.31,5.59"/></g><g id="male1.4"><g id="eyebrow-2" data-name="eyebrow"><path class="cls-1" d="M260.35,199.47s12.57-7.71,19.62-9.41a35.69,35.69,0,0,1,20.47,1.4c6.31,2.18,17.61,9.53,17.61,9.53"/><path class="cls-1" d="M260.35,199.47l4-8.93s1.7-3.7,2.79-5.4c4-5.89,11.3-9,18.4-8.75s13.85,3.46,19.26,8.08,13.12,16.58,13.12,16.58"/><g id="eyebrow-2-2" data-name="eyebrow-2"><path class="cls-1" d="M214.91,199.47s-12.57-7.71-19.62-9.41a36,36,0,0,0-20.41,1.34c-6.31,2.18-17.61,9.53-17.61,9.53"/><path class="cls-1" d="M214.91,199.47l-4-8.93s-1.7-3.7-2.79-5.4c-4-5.89-11.3-9-18.41-8.75s-13.84,3.46-19.25,8.08-13.12,16.58-13.12,16.58"/></g></g></g><path id="nose-2-2" data-name="nose" class="cls-1" d="M231.8,286.58a29.7,29.7,0,0,0-4.25-2.86,2.69,2.69,0,0,0-1.52-.3c-.85.18-1.34,1.09-1.7,1.88a38,38,0,0,0-2.19,7.17,3.31,3.31,0,0,0,.3,2.73c.85,1,6,1.34,7.35,1.28,2.74-.12,1.58.73,4,2.06s5.35,2.31,7.78,1c1.09-.55,1.88-1.52,3-2,1.52-.73,3.28-.48,5-.55s3.58-.6,4.25-2.12a5.27,5.27,0,0,0-.31-3.83,14.15,14.15,0,0,0-2.06-4.49,5,5,0,0,0-4.25-2.19c-1.7.12-3.28,3.34-3.28,3.34"/><g id="eye_" data-name="eye "><path class="cls-1" d="M264.72,256.45s-3.83-12.09,1-22.9c4.44-9.9,16.22-18.71,44.83-16.28l2.13.18"/><path class="cls-1" d="M313.8,225.71s-29.76-4.31-45.74,6.2c-.79.55-2.25,1.64-2.25,1.64"/><path class="cls-1" d="M277,277.34s49.5,5.35,32.44-50c-.19-.66-.61-1.94-.61-1.94"/><path class="cls-1" d="M211.69,256s3.83-12.08-1-22.9c-4.37-9.65-15.61-18.28-42.7-16.46l-4.31.37"/><path class="cls-1" d="M162.67,225.29s27.28-3.95,43.62,4.92c.73.42,4.37,2.91,4.37,2.91"/><path class="cls-1" d="M199.48,276.92s-49.5,5.34-32.43-50.05c.18-.67.61-2,.61-2"/><path class="cls-1" d="M292.11,245.94a8.23,8.23,0,0,0-7.59-6.07H284a9.89,9.89,0,0,1,.66,1.39,10.62,10.62,0,0,1,.19,1.46l.3.12a4.94,4.94,0,0,1,2.86,3.16,4.6,4.6,0,0,1-3.1,5.71c-.06,0-.18.06-.25.06a4.68,4.68,0,0,1-5.71-3.34,4.15,4.15,0,0,1-.12-1.21V247l-.18-.06a4.65,4.65,0,0,1-1.88-1.21l-.18-.18a.19.19,0,0,1-.06.12A8.13,8.13,0,0,0,286.34,256a8,8,0,0,0,5.9-9.59A2.23,2.23,0,0,0,292.11,245.94Z"/><path class="cls-1" d="M199.91,245.94a8.24,8.24,0,0,0-7-6c-.18,0-.91.12-.85.24a6.22,6.22,0,0,1,.49,1.15,11.41,11.41,0,0,1,.18,1.46,4.37,4.37,0,0,0,.49.18,4.82,4.82,0,0,1,2.61,3.1,4.58,4.58,0,0,1-3.16,5.71c-.06,0-.12.06-.24.06a4.68,4.68,0,0,1-5.71-3.34,4,4,0,0,1-.12-1.21v-.18a2.55,2.55,0,0,0-.37-.13,4.65,4.65,0,0,1-1.58-1,3.68,3.68,0,0,1-.24-.36.19.19,0,0,1-.06.12A8.13,8.13,0,0,0,194.08,256a8,8,0,0,0,5.89-9.59A.79.79,0,0,0,199.91,245.94Z"/></g><g id="male1.7"><path class="cls-1" d="M227.67,316.77a56,56,0,0,0-6.68,11,16.57,16.57,0,0,0-1.4,3.83c-1.15,5.52,4.07,13.24,7.41,17.25,3.89,4.55,10.69,5.59,16.34,4.43,4.74-1,7.77-4.74,9.54-9,1.88-4.43,4.37-7.71,3.28-12.45-.79-3.4-3.71-10.39-6-13-1.88-2.19-2.24-3.28-5-4.07-4-1.15-11.42-.91-15.79.73"/><path class="cls-1" d="M226.88,355.4a20.68,20.68,0,0,0,10.69,3.09A34.8,34.8,0,0,0,248.5,357"/><path class="cls-1" d="M227.91,347.74c.91-2.37,8.75-3.4,10.45-3.52a23,23,0,0,1,11.72,2.19"/></g></svg>