<?xml version="1.0" encoding="utf-8"?>
<!-- Generator: Adobe Illustrator 22.0.0, SVG Export Plug-In . SVG Version: 6.00 Build 0)  -->
<svg version="1.1" id="male1.2" xmlns="http://www.w3.org/2000/svg" xmlns:xlink="http://www.w3.org/1999/xlink" x="0px" y="0px"
	 viewBox="0 0 800 800" style="enable-background:new 0 0 800 800;" xml:space="preserve">
<style type="text/css">
	.st0{fill:none;stroke:#000000;stroke-width:4;stroke-linecap:round;stroke-miterlimit:10;}
	.st1{fill:none;stroke:#000000;stroke-width:4;stroke-miterlimit:10;}
	.st2{fill:none;stroke:#000000;stroke-width:4;stroke-linecap:round;stroke-linejoin:round;}
</style>
<title>eye02</title>
<g id="eye2">
	<path class="st0" d="M335.5,403.8c0,0-22.8-22.3-56.3-19.1c-2.2,0.2-6.8,1-6.8,1"/>
	<path class="st0" d="M340.8,443c0,0,11.2-50.4-53.2-50.1c-40.2,0.2-40.1,47.5-40.1,47.5"/>
	<path class="st0" d="M330.2,464c0,0-30.2,38.8-72.4-5.7c-1-1-3-3.2-3-3.2"/>
	<path class="st0" d="M448.1,403.8c0,0,24.1-23.5,59.1-18.7c1.4,0.2,4.1,0.7,4.1,0.7"/>
	<path class="st0" d="M442.8,443c0,0-11.2-50.4,53.2-50.1c40.2,0.2,40,47.5,40,47.5"/>
	<path class="st0" d="M453.4,464c0,0,30,38.6,72.1-5.3c1.1-1.1,3.3-3.6,3.3-3.6"/>
	<path class="st1" d="M482.4,414.8c-6.1-0.3-11.9,3.9-14.6,10.7c-5.4,14.6,4.9,30.7,18,26.7c8.7-2.6,13.5-12.9,11.2-23.3
		C495.3,421,489.3,415,482.4,414.8z"/>
	<path class="st2" d="M491.9,431.1c-0.3-1.1-1.1-3.1-1.1-3.1s-1.4,1.9-2.5,2.2c-3.4,1-6.1-3.1-4.7-6.9c0.2-0.4,0.6-1.1,0.6-1.1
		s-1.3-0.2-1.9-0.3c-4-0.2-7.8,2.6-9.6,7c-3.6,9.6,3.2,20.1,11.8,17.5C490.3,444.7,493.4,437.9,491.9,431.1z"/>
	<path class="st1" d="M306.5,414.8c-6.1-0.3-11.9,3.9-14.6,10.7c-5.4,14.6,4.9,30.7,18,26.7c8.7-2.6,13.5-12.9,11.2-23.3
		C319.4,421,313.4,415,306.5,414.8z"/>
	<path class="st2" d="M316,431.1c-0.3-1.1-1.1-3.1-1.1-3.1s-1.4,1.9-2.5,2.2c-3.4,1-6.1-3.1-4.7-6.9c0.2-0.4,0.6-1.1,0.6-1.1
		s-1.3-0.2-1.9-0.3c-4-0.2-7.8,2.6-9.6,7c-3.6,9.6,3.2,20.1,11.8,17.5C314.3,444.7,317.5,437.9,316,431.1z"/>
</g>
</svg>
