<svg xmlns="http://www.w3.org/2000/svg" viewBox="0 0 3264 1627.5"><defs><style>.cls-1{fill:#fff;}.cls-1,.cls-2,.cls-3,.cls-4{stroke:#000;stroke-width:4px;}.cls-1,.cls-2,.cls-4{stroke-linecap:round;}.cls-1,.cls-4{stroke-linejoin:round;}.cls-2,.cls-3,.cls-4{fill:none;}.cls-2,.cls-3{stroke-miterlimit:10;}</style></defs><title>dataset</title><g id="图层_1" data-name="图层 1"><rect class="cls-1" x="2" y="2" width="800" height="800"/><path class="cls-1" d="M431.5,370.4s68.1-30.2,102.5-11.9" transform="translate(2 2)"/><path class="cls-1" d="M353.2,370.4s-69.6-30.8-103.6-11.3" transform="translate(2 2)"/></g><g id="图层_3" data-name="图层 3"><rect class="cls-1" x="822.5" y="2.5" width="800" height="800"/><g id="eye2"><path class="cls-2" d="M1156,404.3s-22.8-22.3-56.3-19.1c-2.2.2-6.8,1-6.8,1" transform="translate(2 2)"/><path class="cls-2" d="M1161.3,443.5s11.2-50.4-53.2-50.1c-40.2.2-40.1,47.5-40.1,47.5" transform="translate(2 2)"/><path class="cls-2" d="M1150.7,464.5s-30.2,38.8-72.4-5.7c-1-1-3-3.2-3-3.2" transform="translate(2 2)"/><path class="cls-2" d="M1268.6,404.3s24.1-23.5,59.1-18.7c1.4.2,4.1.7,4.1.7" transform="translate(2 2)"/><path class="cls-2" d="M1263.3,443.5s-11.2-50.4,53.2-50.1c40.2.2,40,47.5,40,47.5" transform="translate(2 2)"/><path class="cls-2" d="M1273.9,464.5s30,38.6,72.1-5.3c1.1-1.1,3.3-3.6,3.3-3.6" transform="translate(2 2)"/><path class="cls-3" d="M1302.9,415.3c-6.1-.3-11.9,3.9-14.6,10.7-5.4,14.6,4.9,30.7,18,26.7,8.7-2.6,13.5-12.9,11.2-23.3C1315.8,421.5,1309.8,415.5,1302.9,415.3Z" transform="translate(2 2)"/><path class="cls-4" d="M1312.4,431.6c-.3-1.1-1.1-3.1-1.1-3.1s-1.4,1.9-2.5,2.2c-3.4,1-6.1-3.1-4.7-6.9.2-.4.6-1.1.6-1.1l-1.9-.3c-4-.2-7.8,2.6-9.6,7-3.6,9.6,3.2,20.1,11.8,17.5C1310.8,445.2,1313.9,438.4,1312.4,431.6Z" transform="translate(2 2)"/><path class="cls-3" d="M1127,415.3c-6.1-.3-11.9,3.9-14.6,10.7-5.4,14.6,4.9,30.7,18,26.7,8.7-2.6,13.5-12.9,11.2-23.3C1139.9,421.5,1133.9,415.5,1127,415.3Z" transform="translate(2 2)"/><path class="cls-4" d="M1136.5,431.6c-.3-1.1-1.1-3.1-1.1-3.1s-1.4,1.9-2.5,2.2c-3.4,1-6.1-3.1-4.7-6.9.2-.4.6-1.1.6-1.1l-1.9-.3c-4-.2-7.8,2.6-9.6,7-3.6,9.6,3.2,20.1,11.8,17.5C1134.8,445.2,1138,438.4,1136.5,431.6Z" transform="translate(2 2)"/></g></g><g id="图层_5" data-name="图层 5"><rect class="cls-1" x="1643.5" y="2.5" width="800" height="800"/><g id="nose"><path id="nose-2" class="cls-2" d="M2007.8,501.5a14.81,14.81,0,0,0-1.4,1.1c-1.1,1.4-1.5,3.7-.5,5,1.4,1.8,6.4,2.7,9.8,2.5,4.4-.2,8.2,4.7,11.4,7.1,4.3,3.1,10.7,3.8,14.6.3,2.2-2,3.4-5.2,6-6.6,3.2-1.7,7.9-.5,9.9-3.5.9-1.3,3.4-3.4.6-5.4-.6-.4-1.9-1.1-1.9-1.1" transform="translate(2 2)"/><path class="cls-2" d="M2015.1,494.2s2.9-58.1,8.7-64.2a2.15,2.15,0,0,1,1.5-.4" transform="translate(2 2)"/><path class="cls-2" d="M2051.2,494.2s-2.9-57.6-8.6-64.1a2.11,2.11,0,0,0-1.6-.5" transform="translate(2 2)"/></g></g><g id="图层_7" data-name="图层 7"><rect class="cls-1" x="2461.5" y="2.5" width="800" height="800"/><g id="mouth"><path id="mouth-2" class="cls-2" d="M2790.7,570.9s6,.9,9.1,1.3c35.1,4.9,72.2,7.4,107,.4,2.2-.4,6.6-1.5,6.6-1.5" transform="translate(2 2)"/><path class="cls-2" d="M2819.9,585.1l64,1.4" transform="translate(2 2)"/><path class="cls-2" d="M2790.7,570.9s8.1-2.5,12.2-3.3a69.45,69.45,0,0,1,14.4-1.2c8.1.3,16,2.1,24.1,3.2,16,2.1,31.2-2.6,47.1-3.1,9-.3,26.5,4.3,26.5,4.3" transform="translate(2 2)"/></g></g><g id="图层_9" data-name="图层 9"><rect class="cls-1" x="2.5" y="824.5" width="800" height="800"/><g id="eyebrow"><path class="cls-4" d="M517.5,1184.3c-11-2-22.8-3-33.9-1.2s-21.6,5.2-32.7,6c-8.7.6-26,2.2-26,2.2s14.9-8.5,24.1-12.1c14.3-5.6,36.3-7.2,54.6-4.4s36.9,17.7,36.9,17.7l-4.7-2.4S521.6,1185,517.5,1184.3Z" transform="translate(2 2)"/><path class="cls-4" d="M266.4,1183.3c11-2,22.8-3,33.9-1.2s21.6,5.2,32.7,6c8.7.6,26,2.2,26,2.2s-14.9-8.5-24.1-12.1c-14.3-5.6-36.3-7.2-54.6-4.4s-36.9,17.7-36.9,17.7l4.6-2.4C248.1,1189.1,260.1,1184.8,266.4,1183.3Z" transform="translate(2 2)"/></g></g><g id="图层_10" data-name="图层 10"><rect class="cls-1" x="823.5" y="825.5" width="800" height="800"/><g id="eye2-2" data-name="eye2"><path class="cls-4" d="M1271,1226.9s22.5-18.8,55.1-8.1" transform="translate(2 2)"/><path class="cls-4" d="M1249.8,1251a.28.28,0,1,1-.4-.4c8.6-9.1,27.4-25.2,53.3-26.2,25.5-.9,47.7,17.8,56.2,21.5a.89.89,0,0,1-.2,1.7,8.36,8.36,0,0,1-7.2-2c-5.5-4.9,7.5,9.2,13,12.1a.48.48,0,0,1,.2.6c-.1.1-.1.2-.2.2-1.8.5-5.3,1.3-6.6-.2-2.7-3.2,2.1,7.5,7.4,7.8s-8,4-12.8,1.4.8-22.5-34.3-31.9A74,74,0,0,0,1249.8,1251Z" transform="translate(2 2)"/><path class="cls-4" d="M1245.4,1269.2s47.6,56.6,101.6,5.2" transform="translate(2 2)"/><g id="eye2-2-2" data-name="eye2-2"><path class="cls-4" d="M1154.8,1225.9s-22.8-19.1-55.8-7.8" transform="translate(2 2)"/><path class="cls-4" d="M1176,1249.9a.28.28,0,0,0,.4-.4c-8.6-9.1-27.4-25.2-53.3-26.2s-48.6,18.6-56.8,21.7c-.6.2-.6,1.2,0,1.3a8.77,8.77,0,0,0,7.9-1.8c5.6-4.9-7.5,9.2-12.9,12.1a.37.37,0,0,0-.2.5c.1.1.2.2.3.2,1.8.5,5.2,1.3,6.6-.2,2.7-3.2-2.1,7.5-7.4,7.8s8,4,12.8,1.4-.8-22.5,34.2-31.9A74.29,74.29,0,0,1,1176,1249.9Z" transform="translate(2 2)"/><path class="cls-4" d="M1180.4,1268.2s-47.8,56.7-101.8,5" transform="translate(2 2)"/></g><path class="cls-4" d="M1312,1266a1.82,1.82,0,0,0-2.6.6,15.23,15.23,0,0,1-9.4,6.6c-13.2,3.4-23.7-10.1-18.2-22.3a15.64,15.64,0,0,1,20.8-7.5,10.89,10.89,0,0,1,2.3,1.4,1.6,1.6,0,0,0,2.2-.4,16.38,16.38,0,0,1,2.9-3.5,1.94,1.94,0,0,0-.2-3,24,24,0,0,0-31.9,3.5,22.36,22.36,0,0,0-3.8,5.8c-8.5,18.7,7.7,39.4,28,34.3a23.55,23.55,0,0,0,15-11.1,1.73,1.73,0,0,0-1-2.5A21.72,21.72,0,0,1,1312,1266Z" transform="translate(2 2)"/><path class="cls-4" d="M1150.2,1267a.71.71,0,0,0-1.1.2,15.44,15.44,0,0,1-10,7.6c-13.2,3.3-23.7-10.1-18.2-22.3a15.64,15.64,0,0,1,20.8-7.5,11.73,11.73,0,0,1,3,1.9.71.71,0,0,0,1.1-.2,15.15,15.15,0,0,1,4.4-5,.71.71,0,0,0,.1-1.1,24,24,0,0,0-33.2,2.5,22.72,22.72,0,0,0-3.9,5.8c-8.4,18.7,7.7,39.4,28,34.3a23.79,23.79,0,0,0,15.7-12.3.75.75,0,0,0-.5-1A16,16,0,0,1,1150.2,1267Z" transform="translate(2 2)"/><path class="cls-4" d="M1140.2,1248.2a10.61,10.61,0,0,0-9.9,6c-3.7,8.2,3.4,17.2,12.2,15a10.36,10.36,0,0,0,7.7-12.5,4.33,4.33,0,0,0-.1-.5A10.66,10.66,0,0,0,1140.2,1248.2Z" transform="translate(2 2)"/><path class="cls-4" d="M1301,1244.7a11.71,11.71,0,1,0-.8,23.4,12.67,12.67,0,0,0,3.4-.4,11.36,11.36,0,0,0,8.6-13.6c-.1-.2-.1-.5-.2-.7A12.11,12.11,0,0,0,1301,1244.7Z" transform="translate(2 2)"/></g></g><g id="图层_11" data-name="图层 11"><rect class="cls-1" x="2462" y="824" width="800" height="800"/><g id="mouth-2-2" data-name="mouth"><path class="cls-4" d="M2817.2,1395.3s23.6-8.5,35.1-.3" transform="translate(2 2)"/><path class="cls-4" d="M2852.3,1384.8c-15.1-6.6-25.7,8-25.7,8s-4.7,13.6,25.7,15.2" transform="translate(2 2)"/><path class="cls-4" d="M2888.1,1395.3s-23.6-8.5-35.1-.3" transform="translate(2 2)"/><path class="cls-4" d="M2853,1384.8c15.1-6.6,25.7,8,25.7,8s4.7,13.6-25.6,15.2" transform="translate(2 2)"/></g></g><g id="图层_12" data-name="图层 12"><rect class="cls-1" x="1643.5" y="824.5" width="800" height="800"/><path id="nose-2-2" data-name="nose" class="cls-2" d="M2034.4,1302.5s-.5,16.2-5.5,23.4a2.41,2.41,0,0,0-.7,1.8c.1.6,1.3,1.6,1.3,1.6L2046,1342" transform="translate(2 2)"/></g></svg>