<svg xmlns="http://www.w3.org/2000/svg" viewBox="0 0 966 510"><defs><style>.cls-1,.cls-3,.cls-4,.cls-5{fill:none;stroke:#000;}.cls-1,.cls-3,.cls-5{stroke-miterlimit:10;}.cls-1{stroke-width:2.7px;}.cls-2{font-size:36px;fill:#2595ff;font-family:Avenir-Medium, Avenir;}.cls-3,.cls-4,.cls-5{stroke-width:2.5px;}.cls-4,.cls-5{stroke-linecap:round;}.cls-4{stroke-linejoin:round;}</style></defs><title>gender</title><g id="图层_6" data-name="图层 6"><path class="cls-1" d="M696.31,381.83s6.25.65,16.3-2c20.61-5.36,34.63-20.9,48.76-33.31A77.45,77.45,0,0,0,785.09,310c3.07-10.45,8-22.85,12.28-51.59,2-13.34,4.79-28.51,7.21-43.1"/><path class="cls-1" d="M696.4,381.83a39.86,39.86,0,0,1-16-2.62c-21.16-8.13-34.62-20.89-48.66-33.3a78.79,78.79,0,0,1-23.56-37.22c-3.06-10.45-7.94-22.21-12.22-50.94-2.12-14.24-3.17-21.1-5.68-36.57"/><g id="ear"><path class="cls-1" d="M802.34,229.32s20.47-23.86,22.55-22.61,13.92,15,12,23.26,0,11.58-3.85,17.53S814.52,270,810.27,280.09s-19.83,9.51-19.83,9.51"/><path class="cls-1" d="M797.53,263.61s2.69-3.73,6.64-8.47c6.88-8.27,17.6-19.62,24.57-19.63"/><path class="cls-1" d="M803.85,255.26s17.6,16.24-10.31,24.74"/></g><g id="ear-2" data-name="ear"><path class="cls-1" d="M590.79,229.32s-20.47-23.86-22.54-22.61-13.93,15-12,23.26,0,11.58,3.85,17.53,18.57,22.46,22.81,32.59,19.84,9.51,19.84,9.51"/><path class="cls-1" d="M595.6,263.61s-2.69-3.73-6.63-8.47c-6.89-8.27-17.61-19.62-24.57-19.63"/><path class="cls-1" d="M589.28,255.26S571.69,271.5,599.59,280"/></g><g id="hair"><path id="hair-2" data-name="hair" class="cls-1" d="M566.76,209s-22.41-50.08,17.49-105.36c0,0-9-5-27,13,0,0,15-29,51-28,0,0-18-11-43,7,0,0,84.45-95.91,184.4-36.94"/><path id="hair-3" data-name="hair" class="cls-1" d="M749.66,58.67s8.57-5.93-3.29-18.45c0,0,21.81,6.71,28.69,34.22,0,0,33.07-3.82,35.07,5.18,0,0-17-4-27,8,0,0,63.47-3.84,52.54,86.05,0,0,3.08-9.38-11.92-21.37,0,0,9.23,33.6,3.3,58"/><path id="hair-4" data-name="hair" class="cls-1" d="M591.14,223.46s6.18-61.94,21.22-78.26c0,0,.88,25.39,22.28,40,0,0,13.18-66.56,65.24-66.56,0,0-10.54,40.2-25,54.69,0,0,48.11-2,51.83-48.28,0,0,2.21,34.44,26.4,46.48,0,0-9.72-11.35,5.85-32,0,0,13.45,67.45,48.38,78"/></g><text class="cls-2" transform="translate(228.32 449.89)"><tspan xml:space="preserve">Female                               Male</tspan></text></g><g id="图层_8" data-name="图层 8"><path class="cls-1" d="M285.31,380.33s6.25.65,16.3-2c20.61-5.36,34.63-20.9,48.76-33.31a77.45,77.45,0,0,0,23.72-36.57c3.07-10.45,8-22.85,12.28-51.59,2-13.34,4.79-28.51,7.21-43.1"/><path class="cls-1" d="M285.4,380.33a39.86,39.86,0,0,1-16-2.62c-21.16-8.13-34.62-20.89-48.66-33.3s-16.15-22-19.2-32.41"/><g id="ear-3" data-name="ear"><path class="cls-1" d="M391.34,230.82s20.47-23.86,22.55-22.61,13.92,15,12,23.26,0,11.58-3.85,17.53-18.56,22.46-22.81,32.59-19.83,9.51-19.83,9.51"/><path class="cls-1" d="M386.53,265.11s2.69-3.73,6.64-8.47c6.88-8.27,17.6-19.62,24.57-19.63"/><path class="cls-1" d="M392.85,256.76s17.6,16.24-10.31,24.74"/></g><g id="hair-5" data-name="hair"><path class="cls-3" d="M320.57,117.23c1,1.57,13.59,22.84,14.58,24.43l9.3,15c2.92,4.72,5.84,9.43,8.51,14.28,5.22,9.52,9.45,12.56,15.22,21.76s13.35,17.71,23.3,22.24"/><path class="cls-3" d="M340.63,157.52c7,14.08,14,21.17,21,35.25,4.41,8.86,8.84,17.8,11.33,27.35,3.89,14.92,2.87,30.7,0,45.84"/><path class="cls-3" d="M388.15,217.89a71.65,71.65,0,0,1-2.88,35.57,18.89,18.89,0,0,1-2.92,5.85c-3.27,4.06-9.61,6.3-10,11.46"/><path class="cls-3" d="M279.27,119.27c-5-10.52-24.89-14.49-36-10.71s-19.14,13.8-23.23,24.68-4.83,22.66-5.45,34.25-1.21,16.36-5,27.33c-6.23,17.85-20.66,32.43-24.73,50.88-4.36,19.79,4,39.92,12.12,58.51"/><path class="cls-3" d="M264.12,124c-12-8.92-23.89-9.81-37.2-3"/><path class="cls-3" d="M271.69,123.34c-4.81-8.83-22.14-15-31.1-12.76"/><path class="cls-3" d="M286.09,117.9c11.42-4.22,15.6-22.44,10.69-33.46s-16.34-18-28-21.32a75.21,75.21,0,0,0-47.65,2.17c-9.59,3.73-18.3,9.43-26.22,15.94C180,93.47,167.52,105,160.39,122.75s-8.74,38-2.91,56.24c1.86,5.83,4.46,11.46,5.62,17.47,3.87,19.94-8.49,40.62-3.63,60.35,2.44,9.87,8.92,18.22,15.21,26.26s12.71,16.47,15,26.39-.85,21.78-9.87,26.68c6.27-5.32,12.4-11.25,15.54-18.8s2.63-17.11-3.23-22.88"/><path class="cls-3" d="M284,117.07a27.22,27.22,0,0,0,3.79-8.27,14.79,14.79,0,0,0,.38-7.14c-.91-3.88-4-9.88-7.21-12.29a44.77,44.77,0,0,0-23.17-9.15c-8.41-.63-17.18,1.76-23.55,7.21"/><path class="cls-3" d="M279.27,124.7c1.26-1.18,11.05-1.77,12.39-.68a34.71,34.71,0,0,1,5.5,7.47c3.82,8.89,10.22,14.42,17,21.4s16.86,11.57,26.37,9.36"/><path class="cls-3" d="M291.77,114.68c11.8-12.79,32.21-13.32,49.16-8.89,8.4,2.19,17.5-1.67,22.32,7.83"/><path class="cls-3" d="M298.67,109c-.2-5.07,4.82-8.72,9.51-10.81,18.67-8.33,41.45-10,59,.47"/><path class="cls-3" d="M431.51,300.05c3.63,6.47,8.3,12.42,10.9,19.35a36.68,36.68,0,0,1-7.52,37.26,37.87,37.87,0,0,1-37.09,10.17"/><path class="cls-3" d="M370.65,124.09a161,161,0,0,1,44.75,87.72"/><path class="cls-3" d="M391.44,308.64c5.29,7.68,3.56,18.88-2.91,25.62s-16.74,9.21-26,7.54c10.17,15.5,28.7,26.3,47.42,26.08"/><path class="cls-3" d="M371.39,343a41.54,41.54,0,0,0,29.48,1.68,26.27,26.27,0,0,0,11-6.39c5-5.17,6.67-12.91,5.49-20s-4.93-13.48-9.51-19"/><path class="cls-3" d="M413.37,259.05a112.65,112.65,0,0,0,8.55,44c3.93,9.49,9.27,19,8.7,29.24C430,343.64,421.21,354,410,356.71"/><path class="cls-3" d="M433.77,187.46c2.73,27.54,7.73,68.54,19.05,90.8,3.53,7,7.66,12.74,8.94,20.41,2.35,14-8.58,26.53-18.7,36.68"/><path class="cls-3" d="M312.17,45.89c18.43-1.11,37.41.65,54.22,8.18,38.07,17,53.11,56.81,61.92,97.13,9,41,4.37,50.41.33,83.31"/><path class="cls-3" d="M398.17,113.34c5.54,5.84,8,13.82,10.28,21.49q2.6,8.76,5.2,17.52c1.4,4.69,2.8,9.39,4,14.14a148.92,148.92,0,0,1,3.28,52.16"/><path class="cls-3" d="M297.39,119c7,.46,11.22,7.55,14.66,13.58,5.2,9.13,12.65,19.28,24.35,24.71"/><path class="cls-3" d="M310.64,67.08a53.7,53.7,0,0,1,37.82-3.35"/><path class="cls-3" d="M199.86,222.77c-4.15,8.21-5.61,17.44-7,26.5-.65,4.22-1.31,8.49-.85,12.73,1.57,14.42,15.68,26.25,14,40.66-1.33,11.67-16.53,27.41-26.57,33.72"/><path class="cls-3" d="M307.05,49.54C301.47,39.1,287.94,35.88,276,35.34a138.09,138.09,0,0,0-92.86,30.79c-25.68,21.1-43,47.87-47.51,80.53-3.2,23-.32,46.77-6.06,69.28C121.73,246.73,100,275.25,106,306.45"/><path class="cls-3" d="M140.56,157.2c-4.69,33,8.46,69.11-7,98.76-3,5.73-7,10.88-10.32,16.44-13.09,22-13.57,52,2.51,71.94s49.37,25.42,68.78,8.56"/><path class="cls-3" d="M106,306c1.14,7,2.77,11.5,8.1,16.2"/><path class="cls-3" d="M185,354.59c-5.66,4-13.9.9-18.45-4.27-8.07-9.19-7.64-24.48,1-33.21"/><path class="cls-3" d="M176.87,358.87c-3.89.8-7.72-1.39-10.92-3.71-7.74-5.6-14.73-12.85-17.58-21.9s-.65-20.08,7.06-25.72"/><path class="cls-3" d="M156.24,232.67c-1.34,17.42-12.13,33.16-11.57,50.63.66,20.52,21,36.09,42.36,36.11"/><path class="cls-3" d="M160.83,272.66c-2.36,18.95,8.8,38.79,26.34,46.84"/><path class="cls-3" d="M190.37,355.71c13.3,11.3,27.69,8.94,39.48-3.89"/><path class="cls-3" d="M199.5,332c.46,3.13,2.15,10.15,10,18,2,2,12.66,5.82,20,1"/></g><g id="图层_5" data-name="图层 5"><g id="eyebrow"><path class="cls-4" d="M308.05,200.51c23.29-8,46.76-6.92,70.75-3.28"/><path class="cls-4" d="M308.05,200.51a42.3,42.3,0,0,0,18.6-.06c17-3.52,34.78-4,52.09-3.22"/><g id="eyebrow-2"><path class="cls-4" d="M264.69,199.34A135.11,135.11,0,0,0,194,197.58"/><path class="cls-4" d="M264.69,199.4c-7.74,1.29-15.48.82-23.23-.41-15.72-2.53-31.62-2.29-47.46-1.53"/></g></g><g id="eye2"><path class="cls-5" d="M261.17,244.13s.73-9.47-13.44-19.85c-6.72-4.95-15.64-5.75-23.64-4.46a41.16,41.16,0,0,0-11.67,3.6c-3.3,1.59-6.48,1.83-9-1.47-4-5.25,3.05,4.46,3.05,4.46a13.23,13.23,0,0,1-9.53.8c-4.94-1.65,5.69,1.95,5.69,1.95l-4.34,7.76"/><path class="cls-5" d="M257.75,242.24a32.73,32.73,0,0,0-17-17,30,30,0,0,0-25.85,1s-5.49,2.57-10.69,10.94"/><path class="cls-5" d="M253.53,244.8S232.21,257,208,241.57"/><path class="cls-5" d="M311.08,243.76s-.73-9.46,13.44-19.85c6.91-5.07,16-5.68,24.13-4.22a51.26,51.26,0,0,1,11.92,3.73c3.11,1.35,6.17,1,8.3-1.83,4-5.26-3,4.46-3,4.46a13.25,13.25,0,0,0,9.53.79c4.95-1.65-5.68,2-5.68,2l4.34,7.76"/><path class="cls-5" d="M314.32,242.24a32.88,32.88,0,0,1,17.17-17.35,30,30,0,0,1,25.84,1s5.8,2.69,11.12,11.55"/><path class="cls-5" d="M318.66,244.44s21.32,12.15,45.51-3.24"/><path class="cls-4" d="M341.14,223.54a12.29,12.29,0,0,0-1,24.56,10.91,10.91,0,0,0,3.73-.43,11.91,11.91,0,0,0,9-14.29l-.18-.73A12.48,12.48,0,0,0,341.14,223.54Z"/><path class="cls-4" d="M339.73,224.89a8,8,0,0,0-.61,16,8.5,8.5,0,0,0,2.45-.24,7.8,7.8,0,0,0,5.92-9.29c-.06-.18-.06-.3-.12-.49A8.27,8.27,0,0,0,339.73,224.89Z"/><path class="cls-4" d="M346.76,239.18a3,3,0,1,0-.24,6,2.38,2.38,0,0,0,.91-.12,3,3,0,0,0,2.2-3.55c0-.06,0-.12-.06-.12A3,3,0,0,0,346.76,239.18Z"/><path class="cls-4" d="M219.45,232.89a12,12,0,0,0,8.12,14.85l.73.18a12.28,12.28,0,0,0,6.48-23.7,12.52,12.52,0,0,0-15.33,8.67Z"/><path class="cls-4" d="M224.88,231.06a7.76,7.76,0,0,0,5.32,9.65c.18.06.3.06.49.12a8,8,0,1,0,4.21-15.45,6.43,6.43,0,0,0-2.44-.25A8.17,8.17,0,0,0,224.88,231.06Z"/><path class="cls-4" d="M222.62,241.69a2.92,2.92,0,0,0,2,3.6c.06,0,.12,0,.12.06a3.06,3.06,0,0,0,3.73-2.14,3,3,0,0,0-2.14-3.72,4.83,4.83,0,0,0-.92-.12A3.27,3.27,0,0,0,222.62,241.69Z"/></g><g id="mouth"><path class="cls-5" d="M259,324.28s.84.35,1.05.42c17.28,6.71,36.65,1.54,54.49,2,.42,0,2,.07,2,.07"/><path class="cls-5" d="M261,325s.91-.56,1.19-.77c4.47-2.73,9.86-4.34,13.78-3.78,5.59.84,9.93,2.73,15.74.63,6.5-2.38,16.37.07,21.19,4.48l.63.63"/><path class="cls-5" d="M261,325a3.12,3.12,0,0,1,.56.35,36.74,36.74,0,0,0,11.54,9.93c6.3,3.5,13.29,4.13,20.36,2.66A38.46,38.46,0,0,0,311.67,328c.63-.56,1.82-1.89,1.82-1.89"/></g><g id="nose"><path class="cls-5" d="M285.24,273s-2.3,13.08-7.17,17.67c-.15.07-.3.44-.3.44a2.05,2.05,0,0,0,.3.52c3.77,4,15.15,6.87,15.15,6.87"/></g></g><g id="brow"><path class="cls-1" d="M791.83,209.28a12.36,12.36,0,0,0-1.46-.95c-14-7.71-61.41-.84-65.55-.65-4.31.19-3.73-8.09-3.73-8.09s33.15-1.06,50.59-2.75,20.15,12.46,20.15,12.46"/><g id="brow-2"><path class="cls-1" d="M600.7,209.28a12.86,12.86,0,0,1,1.45-.95c14-7.71,61.42-.84,65.56-.65s3.72-8.09,3.72-8.09-33.15-1.06-50.59-2.75S600.7,209.3,600.7,209.3"/></g></g><path id="nose-2" data-name="nose" class="cls-1" d="M703.86,279.73a31.42,31.42,0,0,1,3.43,3,5.52,5.52,0,0,1,1.72,4,2.64,2.64,0,0,1-.75,1.72c-1.17,1.1-3.1.55-4.33,1.58s-1.1,2.48-1.86,3.65c-1,1.65-3.09,2.13-5,2.34-2.2.27-3.85.06-5.29-1.65a12.86,12.86,0,0,0-4.47-3.92c-1.72-.76-3.44-1.65-3.58-3.72a5.44,5.44,0,0,1,1.52-4,23.89,23.89,0,0,1,3.64-3"/><g id="eye2-2" data-name="eye2"><path class="cls-1" d="M722.42,235.26s.27-2.33.41-3.37.35-2.26.55-3.43c.35-2.27.69-4.61,1.1-6.88.14-1,.21-1.58,1.51-1.85,1-.21,2-.21,3-.35,1.72-.2,3.44-.41,5.23-.55a84.42,84.42,0,0,1,18.63,1.1,77.61,77.61,0,0,1,10.65,2.55c2.48.75,6,1.51,6.81,3.64.48,1.24-.28,2.61-1.17,3.78-3.09,4.26-10.59,12.24-10.59,12.24s7-8.53,6.81-13.2c-.07-2.89-3.71-4.13-6.88-4.95A65.72,65.72,0,0,0,748,222.54a53.54,53.54,0,0,0-10.51-.27,16,16,0,0,0-6.33,1.79,12,12,0,0,0-4.26,4.74c-.76,1.24-1.31,2.54-2.2,3.78-.42.62-1,1.17-1.45,1.79C723,234.64,722.42,235.26,722.42,235.26Z"/><path class="cls-1" d="M754.52,242.76s-1.64.48-2.47.68a45.35,45.35,0,0,1-26.74-1.78c-.62-.28-1.79-.76-1.79-.76"/><path class="cls-1" d="M738.51,233.48a6.46,6.46,0,0,0,2.26,5.56c3.24,2.14,7.09-1.58,6.33-6.6-.41-3.09-2.68-5.08-5-4.46-.07,0-.14.06-.21.06C740.09,228.73,738.71,230.93,738.51,233.48Z"/><path class="cls-1" d="M743.25,223.92a10.2,10.2,0,0,0-9.49,5.57,10,10,0,0,0,11.76,13.89,9.68,9.68,0,0,0,7.29-12.17A10.32,10.32,0,0,0,743.25,223.92Z"/><g id="eye2-3" data-name="eye2"><path class="cls-1" d="M668,234.37c-.48-.62-1-1.17-1.45-1.79-.89-1.24-1.44-2.54-2.2-3.78a11.56,11.56,0,0,0-4.26-4.74,17,17,0,0,0-6.32-1.79,49.36,49.36,0,0,0-10.52.27A65.88,65.88,0,0,0,632.77,224c-3.16.75-6.81,2.06-6.88,4.95-.07,4.6,6.81,13.2,6.81,13.2s-7.49-8-10.59-12.24c-.89-1.17-1.65-2.54-1.17-3.78.83-2.13,4.33-2.89,6.81-3.64a77.75,77.75,0,0,1,10.66-2.55,84.85,84.85,0,0,1,18.63-1.1c1.78.14,3.5.35,5.22.55,1,.14,2,.14,3,.35,1.3.27,1.37,1,1.51,1.85.41,2.27.76,4.61,1.1,6.88.21,1.17.34,2.27.55,3.43s.41,3.37.41,3.37S668.17,234.64,668,234.37Z"/><path class="cls-1" d="M667.62,240.9s-1.16.55-1.78.76a46,46,0,0,1-26.75,1.78c-.82-.2-2.47-.68-2.47-.68"/><path class="cls-1" d="M649.2,228c-.07,0-.14-.06-.21-.06-2.26-.62-4.53,1.37-5,4.46-.75,5,3,8.74,6.33,6.6a6.47,6.47,0,0,0,2.27-5.56C652.43,230.93,651.06,228.66,649.2,228Z"/><path class="cls-1" d="M638.41,231.27a9.69,9.69,0,0,0,7.28,12.17A9.94,9.94,0,1,0,648,224,9.9,9.9,0,0,0,638.41,231.27Z"/></g></g><g id="mouth-2" data-name="mouth"><path class="cls-1" d="M662.24,330.4s6.36-2.71,9.1-2.48c3.54.29,7.09.5,10.59,1,3.73.52,7.41,1.23,11.24,1.43a79.43,79.43,0,0,0,15.36-1.09c5.05-.72,10.42-1.5,15.46-.4l7.19,1.64"/><path class="cls-1" d="M673.59,334.08s2.55.44,3.83.64a139.39,139.39,0,0,0,36.08,1.38c2.11-.22,6.33-.83,6.33-.83"/></g></g></svg>