<svg xmlns="http://www.w3.org/2000/svg" viewBox="0 0 966 510"><defs><style>.cls-1,.cls-2{fill:none;stroke:#000;stroke-width:2.7px;}.cls-1{stroke-linejoin:round;}.cls-2{stroke-miterlimit:10;}.cls-3{font-size:36px;fill:#2595ff;font-family:Avenir-Medium, Avenir;}.cls-4{letter-spacing:-0.02em;}.cls-5{letter-spacing:-0.02em;}</style></defs><title>viewing_angle</title><g id="图层_6" data-name="图层 6"><path id="hair" class="cls-1" d="M342.63,312.9a219.45,219.45,0,0,0,25-16.43c11.2-8.78,13.24-13.26,18.4-21s12.43-19.74,21.69-48.63,10.77-64.92,5.91-77.55a64,64,0,0,0-12.23-20.17s11.1-.76,14,7.1a47.51,47.51,0,0,0-17.65-37A182.11,182.11,0,0,0,361.26,76s12.75-9.21,24-3.37c0,0-7.24-11.63-20.62-14.23S338.81,60,338.81,60s10.95-3.71,8.64-14.39S335,23.18,331.47,22.5c0,0,10.53,13.25-2.43,21.89-7.3,4.86-12.35,9.09-37,.65S241,39.25,221.7,40.82C202.29,42.41,166.78,58,158.89,76.45c3.94-3.29,13.27-.54,16.81,3.8-7.23,0-24.17,6-38.88,23.17-14.91,17.4-14.71,44.13-14.71,44.13s14.68-19.85,24.52-17.16c0-.07-14.71,12.26-14.71,34.33,0,29.42,24.52,41.68,24.52,41.68s.68-34,2.83-44c2-9.21,5.25-13.15,9.06-15.79.11-.07-4.46,15.79-1.18,22.36,4.89,9.78,17.09,13.8,17.09,13.8s8.92-23.74,25.29-42.25c10.37-11.72,28.08-16,28.08-16s-12.28,24-12.62,34.54c-.66,20.37,16.43,30.89,16.43,30.89A79.82,79.82,0,0,1,250,169c5.26-9.2,8.41-13.61,15.77-18.4,0,0-5.18,14.67,4.6,28.26s38.12,19,38.12,19-.63-5.95,7.23-19c3.94-6.58,7.89-6.58,7.89-6.58s-3.46,34.73,13.14,50c7.89,7.23,19.72,15.12,19.72,15.12"/><g id="face"><path class="cls-2" d="M156.44,189.18c1.31,25.64,0,53.24,4.44,77.23,4.72,25.49,10.11,43.38,22.37,65.95,5.64,10.4,17.13,23.86,24.44,34.23a29,29,0,0,0,18.85,11.92c7.46,1.26,15,1.51,22.54,1.91,17,.91,31.56-6,44.12-16.13q15.71-12.65,30.28-26.62c8.71-8.35,19.13-17.13,23.19-28.9,1.4-4.06,2.57-8.38,3.85-12.53l14-45.81.91-3"/><path class="cls-2" d="M351.51,297.4c15-8.77,40.23-45.12,40.23-45.12"/><path class="cls-2" d="M352.3,225.33l13.15-15.12s28.26,14.46,26.29,42.07"/></g><path class="cls-2" d="M668.31,381.83s6.25.65,16.3-2c20.61-5.36,34.63-20.9,48.76-33.31A77.45,77.45,0,0,0,757.09,310c3.07-10.45,8-22.85,12.28-51.59,2-13.34,4.79-28.51,7.21-43.1"/><path class="cls-2" d="M668.4,381.83a39.86,39.86,0,0,1-16-2.62c-21.16-8.13-34.62-20.89-48.66-33.3a78.79,78.79,0,0,1-23.56-37.22c-3.06-10.45-7.94-22.21-12.22-50.94-2.12-14.24-3.17-21.1-5.68-36.57"/><g id="ear"><path class="cls-2" d="M774.34,229.32s20.47-23.86,22.55-22.61,13.92,15,12,23.26,0,11.58-3.85,17.53S786.52,270,782.27,280.09s-19.83,9.51-19.83,9.51"/><path class="cls-2" d="M769.53,263.61s2.69-3.73,6.64-8.47c6.88-8.27,17.6-19.62,24.57-19.63"/><path class="cls-2" d="M775.85,255.26s17.6,16.24-10.31,24.74"/></g><g id="ear-2" data-name="ear"><path class="cls-2" d="M562.79,229.32s-20.47-23.86-22.54-22.61-13.93,15-12,23.26,0,11.58,3.85,17.53,18.57,22.46,22.81,32.59,19.84,9.51,19.84,9.51"/><path class="cls-2" d="M567.6,263.61s-2.69-3.73-6.63-8.47c-6.89-8.27-17.61-19.62-24.57-19.63"/><path class="cls-2" d="M561.28,255.26S543.69,271.5,571.59,280"/></g><g id="hair-2" data-name="hair"><path id="hair-3" data-name="hair" class="cls-2" d="M538.76,209s-22.41-50.08,17.49-105.36c0,0-9-5-27,13,0,0,15-29,51-28,0,0-18-11-43,7,0,0,84.45-95.91,184.4-36.94"/><path id="hair-4" data-name="hair" class="cls-2" d="M721.66,58.67s8.57-5.93-3.29-18.45c0,0,21.81,6.71,28.69,34.22,0,0,33.07-3.82,35.07,5.18,0,0-17-4-27,8,0,0,63.47-3.84,52.54,86.05,0,0,3.08-9.38-11.92-21.37,0,0,9.23,33.6,3.3,58"/><path id="hair-5" data-name="hair" class="cls-2" d="M563.14,223.46s6.18-61.94,21.22-78.26c0,0,.88,25.39,22.28,40,0,0,13.18-66.56,65.24-66.56,0,0-10.54,40.2-25,54.69,0,0,48.11-2,51.83-48.28,0,0,2.21,34.44,26.4,46.48,0,0-9.72-11.35,5.85-32,0,0,13.45,67.45,48.38,78"/></g><text class="cls-3" transform="translate(88.32 449.89)">Mid-P<tspan class="cls-4" x="95.97" y="0">r</tspan><tspan x="108.65" y="0">ofile Left </tspan><tspan class="cls-5" x="263.34" y="0">V</tspan><tspan x="285.37" y="0" xml:space="preserve">iew              F</tspan><tspan class="cls-5" x="502.12" y="0">r</tspan><tspan x="514.8" y="0">ontal </tspan><tspan class="cls-5" x="606.85" y="0">V</tspan><tspan x="628.88" y="0">iew</tspan></text><g id="brow"><path class="cls-2" d="M763.83,206.28a12.36,12.36,0,0,0-1.46-.95c-14-7.71-61.41-.84-65.55-.65-4.31.19-3.73-8.09-3.73-8.09s33.15-1.06,50.59-2.75,20.15,12.46,20.15,12.46"/><g id="brow-2"><path class="cls-2" d="M572.7,206.28a12.86,12.86,0,0,1,1.45-.95c14-7.71,61.42-.84,65.56-.65s3.72-8.09,3.72-8.09-33.15-1.06-50.59-2.75S572.7,206.3,572.7,206.3"/></g></g><path id="nose" class="cls-2" d="M675.86,276.73a31.42,31.42,0,0,1,3.43,3,5.52,5.52,0,0,1,1.72,4,2.64,2.64,0,0,1-.75,1.72c-1.17,1.1-3.1.55-4.33,1.58s-1.1,2.48-1.86,3.65c-1,1.65-3.09,2.13-5,2.34-2.2.27-3.85.06-5.29-1.65a12.86,12.86,0,0,0-4.47-3.92c-1.72-.76-3.44-1.65-3.58-3.72a5.44,5.44,0,0,1,1.52-4,23.89,23.89,0,0,1,3.64-3"/><g id="eye2"><path class="cls-2" d="M694.42,232.26s.27-2.33.41-3.37.35-2.26.55-3.43c.35-2.27.69-4.61,1.1-6.88.14-1,.21-1.58,1.51-1.85,1-.21,2-.21,3-.35,1.72-.2,3.44-.41,5.23-.55a84.42,84.42,0,0,1,18.63,1.1,77.61,77.61,0,0,1,10.65,2.55c2.48.75,6,1.51,6.81,3.64.48,1.24-.28,2.61-1.17,3.78-3.09,4.26-10.59,12.24-10.59,12.24s7-8.53,6.81-13.2c-.07-2.89-3.71-4.13-6.88-4.95A65.72,65.72,0,0,0,720,219.54a53.54,53.54,0,0,0-10.51-.27,16,16,0,0,0-6.33,1.79,12,12,0,0,0-4.26,4.74c-.76,1.24-1.31,2.54-2.2,3.78-.42.62-1,1.17-1.45,1.79C695,231.64,694.42,232.26,694.42,232.26Z"/><path class="cls-2" d="M726.52,239.76s-1.64.48-2.47.68a45.35,45.35,0,0,1-26.74-1.78c-.62-.28-1.79-.76-1.79-.76"/><path class="cls-2" d="M710.51,230.48a6.46,6.46,0,0,0,2.26,5.56c3.24,2.14,7.09-1.58,6.33-6.6-.41-3.09-2.68-5.08-5-4.46-.07,0-.14.06-.21.06C712.09,225.73,710.71,227.93,710.51,230.48Z"/><path class="cls-2" d="M715.25,220.92a10.2,10.2,0,0,0-9.49,5.57,10,10,0,0,0,11.76,13.89,9.68,9.68,0,0,0,7.29-12.17A10.32,10.32,0,0,0,715.25,220.92Z"/><g id="eye2-2" data-name="eye2"><path class="cls-2" d="M640,231.37c-.48-.62-1-1.17-1.45-1.79-.89-1.24-1.44-2.54-2.2-3.78a11.56,11.56,0,0,0-4.26-4.74,17,17,0,0,0-6.32-1.79,49.36,49.36,0,0,0-10.52.27A65.88,65.88,0,0,0,604.77,221c-3.16.75-6.81,2.06-6.88,4.95-.07,4.6,6.81,13.2,6.81,13.2s-7.49-8-10.59-12.24c-.89-1.17-1.65-2.54-1.17-3.78.83-2.13,4.33-2.89,6.81-3.64a77.75,77.75,0,0,1,10.66-2.55,84.85,84.85,0,0,1,18.63-1.1c1.78.14,3.5.35,5.22.55,1,.14,2,.14,3,.35,1.3.27,1.37,1,1.51,1.85.41,2.27.76,4.61,1.1,6.88.21,1.17.34,2.27.55,3.43s.41,3.37.41,3.37S640.17,231.64,640,231.37Z"/><path class="cls-2" d="M639.62,237.9s-1.16.55-1.78.76a46,46,0,0,1-26.75,1.78c-.82-.2-2.47-.68-2.47-.68"/><path class="cls-2" d="M621.2,225c-.07,0-.14-.06-.21-.06-2.26-.62-4.53,1.37-5,4.46-.75,5,3,8.74,6.33,6.6a6.47,6.47,0,0,0,2.27-5.56C624.43,227.93,623.06,225.66,621.2,225Z"/><path class="cls-2" d="M610.41,228.27a9.69,9.69,0,0,0,7.28,12.17A9.94,9.94,0,1,0,620,221,9.9,9.9,0,0,0,610.41,228.27Z"/></g></g><g id="mouth"><path class="cls-2" d="M634.24,327.4s6.36-2.71,9.1-2.48c3.54.29,7.09.5,10.59,1,3.73.52,7.41,1.23,11.24,1.43a79.43,79.43,0,0,0,15.36-1.09c5.05-.72,10.42-1.5,15.46-.4l7.19,1.64"/><path class="cls-2" d="M645.59,331.08s2.55.44,3.83.64a139.39,139.39,0,0,0,36.08,1.38c2.11-.22,6.33-.83,6.33-.83"/></g><g id="brow-2-2" data-name="brow"><path class="cls-1" d="M301.74,206.27a12.88,12.88,0,0,0-1.44-1c-14-7.7-61.39-.82-65.59-.62s-3.71-8.11-3.71-8.11,33.14-1,50.6-2.75,20.14,12.44,20.14,12.44"/><g id="brow-2-3" data-name="brow-2"><path class="cls-1" d="M157.71,207.31s.55-.69.83-1c7.9-7.7,34.85-.82,37.19-.61s2.13-8.12,2.13-8.12-18.77-1-28.67-2.75-11.48,12.52-11.48,12.45"/></g></g><path id="nose-2" data-name="nose" class="cls-1" d="M208.93,295.39c-.82,1.38-2.54,1.72-4.12,1.93-1.79.2-3.17.07-4.33-1.38a9.69,9.69,0,0,0-3.65-3.16c-1.37-.62-2.82-1.37-2.89-3a4.54,4.54,0,0,1,1.24-3.24l.21-.2a15.58,15.58,0,0,0,4-7.22c2.69-11,8.46-37.61,6.4-52.46"/><g id="eye2-3" data-name="eye2"><path class="cls-1" d="M245.44,237.56s.27-2.34.41-3.37.34-2.27.55-3.44c.34-2.27.69-4.61,1.1-6.87.14-1,.21-1.59,1.51-1.86,1-.21,2-.21,3-.35,1.72-.2,3.44-.41,5.22-.55a83.91,83.91,0,0,1,18.64,1.11,76.49,76.49,0,0,1,10.65,2.54c2.48.76,6,1.51,6.81,3.64.48,1.24-.28,2.61-1.17,3.78-3.1,4.27-10.59,12.24-10.59,12.24s7-8.52,6.81-13.2c-.07-2.89-3.72-4.12-6.88-4.95A65.87,65.87,0,0,0,271,224.84a53.63,53.63,0,0,0-10.52-.28,16.13,16.13,0,0,0-6.32,1.79,12.08,12.08,0,0,0-4.26,4.74c-.76,1.24-1.31,2.55-2.2,3.78-.42.62-1,1.17-1.45,1.79C246,236.94,245.44,237.56,245.44,237.56Z"/><path class="cls-1" d="M277.54,245.05s-1.65.48-2.47.69A45.43,45.43,0,0,1,248.33,244c-.62-.28-1.79-.76-1.79-.76"/><path class="cls-1" d="M256,235.77a6.5,6.5,0,0,0,2.27,5.57c3.23,2.13,7.08-1.58,6.33-6.6-.41-3.1-2.68-5.09-4.95-4.47-.07,0-.14.07-.21.07C257.61,231,256.23,233.23,256,235.77Z"/><path class="cls-1" d="M260.77,226.21a10.2,10.2,0,0,0-9.49,5.57A10,10,0,0,0,263,245.67a9.68,9.68,0,0,0,7.29-12.17A10.32,10.32,0,0,0,260.77,226.21Z"/><g id="eye2-4" data-name="eye2"><path class="cls-1" d="M202.74,236.39c-.41-.55-.89-1-1.23-1.51-.76-1-1.31-2.21-2-3.24a10.4,10.4,0,0,0-3.71-4,13.61,13.61,0,0,0-5.29-1.31,41.5,41.5,0,0,0-8.67.62,59.78,59.78,0,0,0-8.59,1.65c-2.61.83-5.57,2.06-5.5,4.67.14,4.06,6.19,11.42,6.19,11.42s-6.53-6.74-9.28-10.45c-.76-1-1.45-2.2-1.1-3.3.61-1.93,3.43-2.75,5.5-3.51a61.37,61.37,0,0,1,8.73-2.68,64.37,64.37,0,0,1,15.4-1.72c1.51.07,2.89.14,4.33.28.82.06,1.65.06,2.47.2,1.1.21,1.17.83,1.31,1.58.41,2,.82,4.06,1.17,6.05.2,1,.34,2,.62,3s.48,2.95.48,2.95A4.81,4.81,0,0,1,202.74,236.39Z"/><path class="cls-1" d="M202.74,242.16s-1,.55-1.44.76a35.71,35.71,0,0,1-22.07,2.61c-.69-.14-2.06-.48-2.06-.48"/><path class="cls-1" d="M180.74,231.78c-.07,0-.13-.07-.2-.07-1.93-.48-3.71,1.38-3.92,4.13-.41,4.47,2.89,7.63,5.5,5.57a5.84,5.84,0,0,0,1.65-5C183.56,234.26,182.33,232.26,180.74,231.78Z"/><path class="cls-1" d="M171.94,235.08a8.67,8.67,0,0,0,6.54,10.52c7.08,1.51,12.37-6.12,9.14-12.72a8.29,8.29,0,0,0-8.11-4.54A8.12,8.12,0,0,0,171.94,235.08Z"/></g></g><g id="mouth-2" data-name="mouth"><path class="cls-1" d="M199.24,325.26s5.43-2.34,7.77-2.14c3,.28,6.05.42,9,.83,3.16.41,6.32,1,9.62,1.24a76.81,76.81,0,0,0,13.13-.9c4.34-.62,8.87-1.3,13.21-.34l6.11,1.38"/><path class="cls-1" d="M206.19,328.42s2.2.41,3.3.55a118.61,118.61,0,0,0,30.8,1.17c1.78-.21,5.43-.69,5.43-.69"/></g></g></svg>