<svg xmlns="http://www.w3.org/2000/svg" viewBox="0 0 966 510"><defs><style>.cls-1,.cls-2,.cls-3,.cls-4{fill:none;stroke:#000;stroke-width:2.7px;}.cls-1,.cls-3{stroke-linejoin:round;}.cls-2,.cls-4{stroke-miterlimit:10;}.cls-3,.cls-4{stroke-linecap:round;}.cls-5{font-size:36px;fill:#3c29e6;font-family:Avenir-Medium, Avenir;}.cls-6{letter-spacing:-0.02em;}.cls-7{letter-spacing:-0.02em;}</style></defs><title>viewing_angle</title><g id="图层_6" data-name="图层 6"><path id="hair" class="cls-1" d="M342.63,312.9a219.45,219.45,0,0,0,25-16.43c11.2-8.78,13.24-13.26,18.4-21s12.43-19.74,21.69-48.63,10.77-64.92,5.91-77.55a64,64,0,0,0-12.23-20.17s11.1-.76,14,7.1a47.51,47.51,0,0,0-17.65-37A182.11,182.11,0,0,0,361.26,76s12.75-9.21,24-3.37c0,0-7.24-11.63-20.62-14.23S338.81,60,338.81,60s10.95-3.71,8.64-14.39S335,23.18,331.47,22.5c0,0,10.53,13.25-2.43,21.89-7.3,4.86-12.35,9.09-37,.65S241,39.25,221.7,40.82C202.29,42.41,166.78,58,158.89,76.45c3.94-3.29,13.27-.54,16.81,3.8-7.23,0-24.17,6-38.88,23.17-14.91,17.4-14.71,44.13-14.71,44.13s14.68-19.85,24.52-17.16c0-.07-14.71,12.26-14.71,34.33,0,29.42,24.52,41.68,24.52,41.68s.68-34,2.83-44c2-9.21,5.25-13.15,9.06-15.79.11-.07-4.46,15.79-1.18,22.36,4.89,9.78,17.09,13.8,17.09,13.8s8.92-23.74,25.29-42.25c10.37-11.72,28.08-16,28.08-16s-12.28,24-12.62,34.54c-.66,20.37,16.43,30.89,16.43,30.89A79.82,79.82,0,0,1,250,169c5.26-9.2,8.41-13.61,15.77-18.4,0,0-5.18,14.67,4.6,28.26s38.12,19,38.12,19-.63-5.95,7.23-19c3.94-6.58,7.89-6.58,7.89-6.58s-3.46,34.73,13.14,50c7.89,7.23,19.72,15.12,19.72,15.12"/><g id="face"><path class="cls-2" d="M156.44,189.18c1.31,25.64,0,53.24,4.44,77.23,4.72,25.49,10.11,43.38,22.37,65.95,5.64,10.4,17.13,23.86,24.44,34.23a29,29,0,0,0,18.85,11.92c7.46,1.26,15,1.51,22.54,1.91,17,.91,31.56-6,44.12-16.13q15.71-12.65,30.28-26.62c8.71-8.35,19.13-17.13,23.19-28.9,1.4-4.06,2.57-8.38,3.85-12.53l14-45.81.91-3"/><path class="cls-2" d="M351.51,297.4c15-8.77,40.23-45.12,40.23-45.12"/><path class="cls-2" d="M352.3,225.33l13.15-15.12s28.26,14.46,26.29,42.07"/></g><g id="eyebrow"><path class="cls-3" d="M235.3,210.23c9.73-16,32.08-17.88,48.7-13.8,6.31,1.57,12.42,4.6,16.76,9.4"/><path class="cls-3" d="M237.41,209.83c19.52-10.05,43.37-15.37,63-3.35"/><path class="cls-3" d="M204,211.41a19.23,19.23,0,0,0-9.2-9.33c-6.83-3.22-15.9-3.22-22.87-.53a19.44,19.44,0,0,0-8.08,5.85"/><path class="cls-3" d="M202.51,210.82c-12.09-7.95-27.47-10.58-39.63-1.71"/></g><g id="eye2"><path class="cls-4" d="M258.17,215s2.05-.53,3.11-.76a47.76,47.76,0,0,1,16.29-.38c2.23.38,7,1.65,7,1.65"/><path class="cls-4" d="M242.24,239.18a29.25,29.25,0,0,1,.5-4.64c2.25-8.75,12-17,27.45-18.09,18.27-1.31,25,12.08,28.39,22.08.71,2,1.53,4.79-3.42,8.29-1.36.94-3.68,1.08-5.72,1.28-5.49.51-11.09.16-16.56.24s-10.88.25-16.34,0c-6.66-.3-13.87-7.2-13.87-7.2"/><path class="cls-4" d="M242.88,234.55a31.37,31.37,0,0,1,3.26-5.23c6.62-7.32,20.88-12.54,34.57-6.42a36.33,36.33,0,0,1,10,6.9,22,22,0,0,1,5.4,6.63,6.69,6.69,0,0,1-.44,7.18c-3,4-13.56,4.81-13.56,4.81"/><path class="cls-4" d="M191.65,218.62s-1.52-.53-2.29-.72a27.83,27.83,0,0,0-13.81-.19c-1,.23-2.9.9-2.9.9"/><path class="cls-4" d="M202,240.12a32.42,32.42,0,0,0-.43-4.1c-1.71-7.71-8.55-15.17-19.32-16.37-12.65-1.44-17.2,14.95-17.2,17.4,0,7.36,3.14,9.95,4.53,10.12,3.77.55,7.64.33,11.42.45s7.49.42,11.29.28a10.68,10.68,0,0,0,8.48-4.16c.37-.63,1-1.9,1-1.9"/><path class="cls-4" d="M201.12,236s-.64-1.74-1-2.62c-4-7.53-14.84-14-25.06-8.29-7.56,4.6-7.56,14.41-7.56,16.86s2.64,5.4,7.05,5.59"/><path class="cls-2" d="M272.5,231.81c-.07-.22-.27-.65-.27-.65a1.26,1.26,0,0,0-.56,0,5.73,5.73,0,0,1-4.11-3l-.2-.44h-.5a5.87,5.87,0,0,0-5.45,3.52,6,6,0,0,0-.08,4.56,4.31,4.31,0,0,0,.27.58,7.11,7.11,0,0,1,1.36-.17,4.71,4.71,0,0,1,4.25,2.7,3.41,3.41,0,0,1,.27.65,3.58,3.58,0,0,0,.93-.19,5.74,5.74,0,0,0,4.07-7.06Z"/><path class="cls-3" d="M276.56,231.86a10.75,10.75,0,0,0-20.12-1.28A11.05,11.05,0,0,0,259,242.84c.21.14.62.51.62.51s-.27-.5-.4-.79a4.53,4.53,0,0,1,.1-3.06,4,4,0,0,1,3.64-2.45,4.12,4.12,0,0,1,3.89,2.9,3.87,3.87,0,0,1-2.51,5c-.07,0-.14.07-.21.06l-1.15.18.57.16a11.28,11.28,0,0,0,5.77-.1,10.64,10.64,0,0,0,7.47-13C276.61,232.29,276.62,232.08,276.56,231.86Z"/><path class="cls-2" d="M185.87,234.74c-.06-.22-.19-.58-.19-.58a2.36,2.36,0,0,0-.43-.08,4.42,4.42,0,0,1-2.83-2.8c-.06-.15-.13-.36-.13-.36a.93.93,0,0,1-.35-.09,4.19,4.19,0,0,0-4.08,2.86,6.36,6.36,0,0,0-.34,4c.06.22.19.58.19.58a6.54,6.54,0,0,1,1-.11,3.44,3.44,0,0,1,2.91,2.58c.06.22.19.58.19.58s.43-.06.65-.12c2.23-.57,3.74-3.3,3.26-6A1,1,0,0,0,185.87,234.74Z"/><path class="cls-3" d="M188.79,234.83a8.5,8.5,0,0,0-7.46-7.15,8,8,0,0,0-7.78,5,10.38,10.38,0,0,0,1.29,10.65l.48.52a4.67,4.67,0,0,1-.26-.72,4.12,4.12,0,0,1,.23-2.63,3,3,0,0,1,2.91-1.9,3.58,3.58,0,0,1,.63,6.86c-.07,0-.07.07-.14.06a8,8,0,0,1-.86.12l.42.15a13.47,13.47,0,0,0,4.41.22c4.38-1.07,7.24-5.89,6.33-10.77C188.85,235.12,188.85,235.05,188.79,234.83Z"/></g><g id="mouth"><g id="mouse"><path class="cls-4" d="M201.32,320.82s1.56.33,2.31.54c5.5,1.22,4.34,1.83,10,2.1,10.79.48,28.57-.41,39.37-1.56l6-.68"/><line class="cls-4" x1="216.14" y1="331.4" x2="231.48" y2="330.52"/></g><path class="cls-3" d="M201.32,320.82s1.7-2.79,9.23-1.63c10.25,1.63,6.32,1.29,16.43-.82,3.33-.68,32.44,2.72,32.44,2.72"/></g><path id="nose" class="cls-4" d="M219,286.1c-4.91,4.9-10.07,5.69-13.77,4.56-4.24-1.25-7.28-5-8.73-9.12a12.25,12.25,0,0,1,.4-9.65,12.6,12.6,0,0,1,9.71-6.08"/><g id="eyebrow-2" data-name="eyebrow"><path class="cls-3" d="M691.82,204.28c9.66-15.94,31.86-17.77,48.39-13.72,6.26,1.57,12.34,4.57,16.65,9.34"/><path class="cls-3" d="M693.91,203.88c19.39-10,43.1-15.28,62.62-3.33"/><path class="cls-3" d="M646.17,204.67c-3.13-5.81-8.62-10.06-14.76-12.54-11-4.37-25.53-4.37-36.76-.72a31.61,31.61,0,0,0-13,7.84"/><path class="cls-3" d="M643.69,203.88c-19.4-10.7-44.15-14.23-63.74-2.28"/></g><g id="eye2-2" data-name="eye2"><path class="cls-4" d="M624.79,209.56a36.58,36.58,0,0,0-22.65-.59c-1.35.41-4.11,1.51-4.11,1.51"/><path class="cls-4" d="M642.7,236.85s.31-4.37-.83-6.14c-7.8-12.14-20.75-18.29-36.53-16.71-13.06,1.3-17.82,8.57-20.53,21.83-.54,2.64-.57,7,4.66,11.59,1.42,1.24,3.83,1.39,5.92,1.64,5.59.67,11.23.1,16.85.16s11,.27,16.59-.08,9.89-2.94,12.21-6.69a21.22,21.22,0,0,0,1.32-3"/><path class="cls-4" d="M641.91,233.59c-7.18-13.72-20.24-19.59-39.44-14.72a19,19,0,0,0-11,7.25,19.45,19.45,0,0,0-3.75,7.49,11.37,11.37,0,0,0,.95,9.5c3.36,5.31,7.47,6.2,14.08,6.28"/><path class="cls-2" d="M621.86,231.07c-.07-.27-.27-.78-.27-.78l-.63-.1a6.52,6.52,0,0,1-4.5-3.47c-.08-.16-.23-.5-.23-.5l-.54,0a6.55,6.55,0,0,0-6.14,3.72,6.64,6.64,0,0,0-.24,5c.08.24.29.7.29.7a9.8,9.8,0,0,1,1.51-.16,5.41,5.41,0,0,1,4.66,3.06c.12.25.3.78.3.78s.71-.09,1.07-.18A6.42,6.42,0,0,0,621.86,231.07Z"/><path class="cls-3" d="M626.38,231.38a12.15,12.15,0,0,0-11.21-8.88A11.91,11.91,0,0,0,604,229.24a12.13,12.13,0,0,0,2.32,13.59l.68.65a8.47,8.47,0,0,1-.39-.88,4.56,4.56,0,0,1,.19-3.35,4.49,4.49,0,0,1,4.2-2.53,4.58,4.58,0,0,1,4.21,3.34,4.38,4.38,0,0,1-3.22,5.49,8.73,8.73,0,0,1-1.26.15l.63.21a12.07,12.07,0,0,0,6.44.1A11.67,11.67,0,0,0,626.38,231.38Z"/><path class="cls-4" d="M711.58,209.56a36.58,36.58,0,0,1,22.65-.59c1.35.41,4.1,1.51,4.1,1.51"/><path class="cls-4" d="M693.67,236.85s-.32-4.37.82-6.14c7.8-12.14,20.75-18.29,36.54-16.71,13.06,1.3,17.81,8.57,20.53,21.83.54,2.64.57,7-4.66,11.59-1.42,1.24-3.84,1.39-5.92,1.64-5.59.67-11.24.1-16.85.16s-11,.27-16.59-.08-9.89-2.94-12.22-6.69a22.55,22.55,0,0,1-1.32-3"/><path class="cls-4" d="M694.46,233.59c7.18-13.72,20.24-19.59,39.43-14.72a19.07,19.07,0,0,1,11,7.25,19.45,19.45,0,0,1,3.75,7.49,11.37,11.37,0,0,1-1,9.5c-3.35,5.31-7.47,6.2-14.07,6.28"/><path class="cls-2" d="M714.5,231.07c.08-.27.28-.78.28-.78l.63-.1a6.54,6.54,0,0,0,4.5-3.47c.08-.16.23-.5.23-.5l.53,0a6.57,6.57,0,0,1,6.15,3.72,6.69,6.69,0,0,1,.24,5c-.08.24-.3.7-.3.7a9.62,9.62,0,0,0-1.5-.16,5.41,5.41,0,0,0-4.66,3.06c-.12.25-.3.78-.3.78s-.71-.09-1.08-.18A6.43,6.43,0,0,1,714.5,231.07Z"/><path class="cls-3" d="M710,231.38a12.14,12.14,0,0,1,11.2-8.88,11.9,11.9,0,0,1,11.16,6.74A12.13,12.13,0,0,1,730,242.83l-.68.65a7.84,7.84,0,0,0,.4-.88,4.56,4.56,0,0,0-.2-3.35,4.47,4.47,0,0,0-4.19-2.53,4.56,4.56,0,0,0-4.21,3.34,4.37,4.37,0,0,0,3.22,5.49,8.58,8.58,0,0,0,1.26.15l-.63.21a12.07,12.07,0,0,1-6.44.1A11.65,11.65,0,0,1,710,231.38Z"/></g><path id="nose-2" data-name="nose" class="cls-4" d="M657.86,270.58s9.72-3.85,14.64-2.62,9.32,5.5,9.32,10.7a15.86,15.86,0,0,1-1.51,6.25,15.44,15.44,0,0,1-3.41,5.15c-4.08,3.79-10.93,3.6-15.74,1.43-3.73-1.67-8.5-8.45-8.5-8.45"/><g id="mouth-2" data-name="mouth"><g id="mouse-2" data-name="mouse"><path class="cls-4" d="M640.42,323.36l2.25.53c15.5,3.35,31.6,2.18,47.47.5l5.71-.65"/><line class="cls-4" x1="661.12" y1="335.5" x2="675.89" y2="334.66"/></g><path class="cls-3" d="M640.42,323.36s3.58-2.69,10.87-1.54c9.83,1.54,26.33,1.25,36.07-.8,3.2-.65,9,2.61,9,2.61"/></g><path class="cls-2" d="M668.31,381.83s6.25.65,16.3-2c20.61-5.36,34.63-20.9,48.76-33.31A77.45,77.45,0,0,0,757.09,310c3.07-10.45,8-22.85,12.28-51.59,2-13.34,4.79-28.51,7.21-43.1"/><path class="cls-2" d="M668.4,381.83a39.86,39.86,0,0,1-16-2.62c-21.16-8.13-34.62-20.89-48.66-33.3a78.79,78.79,0,0,1-23.56-37.22c-3.06-10.45-7.94-22.21-12.22-50.94-2.12-14.24-3.17-21.1-5.68-36.57"/><g id="ear"><path class="cls-2" d="M774.34,229.32s20.47-23.86,22.55-22.61,13.92,15,12,23.26,0,11.58-3.85,17.53S786.52,270,782.27,280.09s-19.83,9.51-19.83,9.51"/><path class="cls-2" d="M769.53,263.61s2.69-3.73,6.64-8.47c6.88-8.27,17.6-19.62,24.57-19.63"/><path class="cls-2" d="M775.85,255.26s17.6,16.24-10.31,24.74"/></g><g id="ear-2" data-name="ear"><path class="cls-2" d="M562.79,229.32s-20.47-23.86-22.54-22.61-13.93,15-12,23.26,0,11.58,3.85,17.53,18.57,22.46,22.81,32.59,19.84,9.51,19.84,9.51"/><path class="cls-2" d="M567.6,263.61s-2.69-3.73-6.63-8.47c-6.89-8.27-17.61-19.62-24.57-19.63"/><path class="cls-2" d="M561.28,255.26S543.69,271.5,571.59,280"/></g><g id="hair-2" data-name="hair"><path id="hair-3" data-name="hair" class="cls-2" d="M538.76,209s-22.41-50.08,17.49-105.36c0,0-9-5-27,13,0,0,15-29,51-28,0,0-18-11-43,7,0,0,84.45-95.91,184.4-36.94"/><path id="hair-4" data-name="hair" class="cls-2" d="M721.66,58.67s8.57-5.93-3.29-18.45c0,0,21.81,6.71,28.69,34.22,0,0,33.07-3.82,35.07,5.18,0,0-17-4-27,8,0,0,63.47-3.84,52.54,86.05,0,0,3.08-9.38-11.92-21.37,0,0,9.23,33.6,3.3,58"/><path id="hair-5" data-name="hair" class="cls-2" d="M563.14,223.46s6.18-61.94,21.22-78.26c0,0,.88,25.39,22.28,40,0,0,13.18-66.56,65.24-66.56,0,0-10.54,40.2-25,54.69,0,0,48.11-2,51.83-48.28,0,0,2.21,34.44,26.4,46.48,0,0-9.72-11.35,5.85-32,0,0,13.45,67.45,48.38,78"/></g><text class="cls-5" transform="translate(88.32 449.89)">Mid-P<tspan class="cls-6" x="95.97" y="0">r</tspan><tspan x="108.65" y="0">ofile Left </tspan><tspan class="cls-7" x="263.34" y="0">V</tspan><tspan x="285.37" y="0" xml:space="preserve">iew              F</tspan><tspan class="cls-7" x="502.12" y="0">r</tspan><tspan x="514.8" y="0">ontal </tspan><tspan class="cls-7" x="606.85" y="0">V</tspan><tspan x="628.88" y="0">iew</tspan></text></g></svg>